<?xml version="1.0" encoding="utf-8" standalone="no"?>
<!DOCTYPE svg PUBLIC "-//W3C//DTD SVG 1.1//EN"
  "http://www.w3.org/Graphics/SVG/1.1/DTD/svg11.dtd">
<svg xmlns:xlink="http://www.w3.org/1999/xlink" width="288pt" height="216pt" viewBox="0 0 288 216" xmlns="http://www.w3.org/2000/svg" version="1.1">
 <metadata>
  <rdf:RDF xmlns:dc="http://purl.org/dc/elements/1.1/" xmlns:cc="http://creativecommons.org/ns#" xmlns:rdf="http://www.w3.org/1999/02/22-rdf-syntax-ns#">
   <cc:Work>
    <dc:type rdf:resource="http://purl.org/dc/dcmitype/StillImage"/>
    <dc:date>2023-07-07T20:33:54.786661</dc:date>
    <dc:format>image/svg+xml</dc:format>
    <dc:creator>
     <cc:Agent>
      <dc:title>Matplotlib v3.5.2, https://matplotlib.org/</dc:title>
     </cc:Agent>
    </dc:creator>
   </cc:Work>
  </rdf:RDF>
 </metadata>
 <defs>
  <style type="text/css">*{stroke-linejoin: round; stroke-linecap: butt}</style>
 </defs>
 <g id="figure_1">
  <g id="patch_1">
   <path d="M 0 216 
L 288 216 
L 288 0 
L 0 0 
z
" style="fill: #ffffff"/>
  </g>
  <g id="axes_1">
   <g id="patch_2">
    <path d="M 30.49 188.12 
L 277.2 188.12 
L 277.2 11.764944 
L 30.49 11.764944 
z
" style="fill: #ffffff"/>
   </g>
   <g id="matplotlib.axis_1">
    <g id="xtick_1">
     <g id="line2d_1">
      <defs>
       <path id="md59019bc53" d="M 0 0 
L 0 3.5 
" style="stroke: #000000; stroke-width: 0.8"/>
      </defs>
      <g>
       <use xlink:href="#md59019bc53" x="41.704091" y="188.12" style="stroke: #000000; stroke-width: 0.8"/>
      </g>
     </g>
     <g id="text_1">
      <!-- 0 -->
      <g transform="translate(38.522841 202.718437)scale(0.1 -0.1)">
       <defs>
        <path id="DejaVuSans-30" d="M 2034 4250 
Q 1547 4250 1301 3770 
Q 1056 3291 1056 2328 
Q 1056 1369 1301 889 
Q 1547 409 2034 409 
Q 2525 409 2770 889 
Q 3016 1369 3016 2328 
Q 3016 3291 2770 3770 
Q 2525 4250 2034 4250 
z
M 2034 4750 
Q 2819 4750 3233 4129 
Q 3647 3509 3647 2328 
Q 3647 1150 3233 529 
Q 2819 -91 2034 -91 
Q 1250 -91 836 529 
Q 422 1150 422 2328 
Q 422 3509 836 4129 
Q 1250 4750 2034 4750 
z
" transform="scale(0.015625)"/>
       </defs>
       <use xlink:href="#DejaVuSans-30"/>
      </g>
     </g>
    </g>
    <g id="xtick_2">
     <g id="line2d_2">
      <g>
       <use xlink:href="#md59019bc53" x="85.594858" y="188.12" style="stroke: #000000; stroke-width: 0.8"/>
      </g>
     </g>
     <g id="text_2">
      <!-- 100 -->
      <g transform="translate(76.051108 202.718437)scale(0.1 -0.1)">
       <defs>
        <path id="DejaVuSans-31" d="M 794 531 
L 1825 531 
L 1825 4091 
L 703 3866 
L 703 4441 
L 1819 4666 
L 2450 4666 
L 2450 531 
L 3481 531 
L 3481 0 
L 794 0 
L 794 531 
z
" transform="scale(0.015625)"/>
       </defs>
       <use xlink:href="#DejaVuSans-31"/>
       <use xlink:href="#DejaVuSans-30" x="63.623047"/>
       <use xlink:href="#DejaVuSans-30" x="127.246094"/>
      </g>
     </g>
    </g>
    <g id="xtick_3">
     <g id="line2d_3">
      <g>
       <use xlink:href="#md59019bc53" x="129.485624" y="188.12" style="stroke: #000000; stroke-width: 0.8"/>
      </g>
     </g>
     <g id="text_3">
      <!-- 200 -->
      <g transform="translate(119.941874 202.718437)scale(0.1 -0.1)">
       <defs>
        <path id="DejaVuSans-32" d="M 1228 531 
L 3431 531 
L 3431 0 
L 469 0 
L 469 531 
Q 828 903 1448 1529 
Q 2069 2156 2228 2338 
Q 2531 2678 2651 2914 
Q 2772 3150 2772 3378 
Q 2772 3750 2511 3984 
Q 2250 4219 1831 4219 
Q 1534 4219 1204 4116 
Q 875 4013 500 3803 
L 500 4441 
Q 881 4594 1212 4672 
Q 1544 4750 1819 4750 
Q 2544 4750 2975 4387 
Q 3406 4025 3406 3419 
Q 3406 3131 3298 2873 
Q 3191 2616 2906 2266 
Q 2828 2175 2409 1742 
Q 1991 1309 1228 531 
z
" transform="scale(0.015625)"/>
       </defs>
       <use xlink:href="#DejaVuSans-32"/>
       <use xlink:href="#DejaVuSans-30" x="63.623047"/>
       <use xlink:href="#DejaVuSans-30" x="127.246094"/>
      </g>
     </g>
    </g>
    <g id="xtick_4">
     <g id="line2d_4">
      <g>
       <use xlink:href="#md59019bc53" x="173.376391" y="188.12" style="stroke: #000000; stroke-width: 0.8"/>
      </g>
     </g>
     <g id="text_4">
      <!-- 300 -->
      <g transform="translate(163.832641 202.718437)scale(0.1 -0.1)">
       <defs>
        <path id="DejaVuSans-33" d="M 2597 2516 
Q 3050 2419 3304 2112 
Q 3559 1806 3559 1356 
Q 3559 666 3084 287 
Q 2609 -91 1734 -91 
Q 1441 -91 1130 -33 
Q 819 25 488 141 
L 488 750 
Q 750 597 1062 519 
Q 1375 441 1716 441 
Q 2309 441 2620 675 
Q 2931 909 2931 1356 
Q 2931 1769 2642 2001 
Q 2353 2234 1838 2234 
L 1294 2234 
L 1294 2753 
L 1863 2753 
Q 2328 2753 2575 2939 
Q 2822 3125 2822 3475 
Q 2822 3834 2567 4026 
Q 2313 4219 1838 4219 
Q 1578 4219 1281 4162 
Q 984 4106 628 3988 
L 628 4550 
Q 988 4650 1302 4700 
Q 1616 4750 1894 4750 
Q 2613 4750 3031 4423 
Q 3450 4097 3450 3541 
Q 3450 3153 3228 2886 
Q 3006 2619 2597 2516 
z
" transform="scale(0.015625)"/>
       </defs>
       <use xlink:href="#DejaVuSans-33"/>
       <use xlink:href="#DejaVuSans-30" x="63.623047"/>
       <use xlink:href="#DejaVuSans-30" x="127.246094"/>
      </g>
     </g>
    </g>
    <g id="xtick_5">
     <g id="line2d_5">
      <g>
       <use xlink:href="#md59019bc53" x="217.267158" y="188.12" style="stroke: #000000; stroke-width: 0.8"/>
      </g>
     </g>
     <g id="text_5">
      <!-- 400 -->
      <g transform="translate(207.723408 202.718437)scale(0.1 -0.1)">
       <defs>
        <path id="DejaVuSans-34" d="M 2419 4116 
L 825 1625 
L 2419 1625 
L 2419 4116 
z
M 2253 4666 
L 3047 4666 
L 3047 1625 
L 3713 1625 
L 3713 1100 
L 3047 1100 
L 3047 0 
L 2419 0 
L 2419 1100 
L 313 1100 
L 313 1709 
L 2253 4666 
z
" transform="scale(0.015625)"/>
       </defs>
       <use xlink:href="#DejaVuSans-34"/>
       <use xlink:href="#DejaVuSans-30" x="63.623047"/>
       <use xlink:href="#DejaVuSans-30" x="127.246094"/>
      </g>
     </g>
    </g>
    <g id="xtick_6">
     <g id="line2d_6">
      <g>
       <use xlink:href="#md59019bc53" x="261.157925" y="188.12" style="stroke: #000000; stroke-width: 0.8"/>
      </g>
     </g>
     <g id="text_6">
      <!-- 500 -->
      <g transform="translate(251.614175 202.718437)scale(0.1 -0.1)">
       <defs>
        <path id="DejaVuSans-35" d="M 691 4666 
L 3169 4666 
L 3169 4134 
L 1269 4134 
L 1269 2991 
Q 1406 3038 1543 3061 
Q 1681 3084 1819 3084 
Q 2600 3084 3056 2656 
Q 3513 2228 3513 1497 
Q 3513 744 3044 326 
Q 2575 -91 1722 -91 
Q 1428 -91 1123 -41 
Q 819 9 494 109 
L 494 744 
Q 775 591 1075 516 
Q 1375 441 1709 441 
Q 2250 441 2565 725 
Q 2881 1009 2881 1497 
Q 2881 1984 2565 2268 
Q 2250 2553 1709 2553 
Q 1456 2553 1204 2497 
Q 953 2441 691 2322 
L 691 4666 
z
" transform="scale(0.015625)"/>
       </defs>
       <use xlink:href="#DejaVuSans-35"/>
       <use xlink:href="#DejaVuSans-30" x="63.623047"/>
       <use xlink:href="#DejaVuSans-30" x="127.246094"/>
      </g>
     </g>
    </g>
   </g>
   <g id="matplotlib.axis_2">
    <g id="ytick_1">
     <g id="line2d_7">
      <defs>
       <path id="mfce0fabfd4" d="M 0 0 
L -3.5 0 
" style="stroke: #000000; stroke-width: 0.8"/>
      </defs>
      <g>
       <use xlink:href="#mfce0fabfd4" x="30.49" y="174.134109" style="stroke: #000000; stroke-width: 0.8"/>
      </g>
     </g>
     <g id="text_7">
      <!-- 0 -->
      <g transform="translate(17.1275 177.933327)scale(0.1 -0.1)">
       <use xlink:href="#DejaVuSans-30"/>
      </g>
     </g>
    </g>
    <g id="ytick_2">
     <g id="line2d_8">
      <g>
       <use xlink:href="#mfce0fabfd4" x="30.49" y="142.295429" style="stroke: #000000; stroke-width: 0.8"/>
      </g>
     </g>
     <g id="text_8">
      <!-- 2 -->
      <g transform="translate(17.1275 146.094647)scale(0.1 -0.1)">
       <use xlink:href="#DejaVuSans-32"/>
      </g>
     </g>
    </g>
    <g id="ytick_3">
     <g id="line2d_9">
      <g>
       <use xlink:href="#mfce0fabfd4" x="30.49" y="110.456749" style="stroke: #000000; stroke-width: 0.8"/>
      </g>
     </g>
     <g id="text_9">
      <!-- 4 -->
      <g transform="translate(17.1275 114.255968)scale(0.1 -0.1)">
       <use xlink:href="#DejaVuSans-34"/>
      </g>
     </g>
    </g>
    <g id="ytick_4">
     <g id="line2d_10">
      <g>
       <use xlink:href="#mfce0fabfd4" x="30.49" y="78.618069" style="stroke: #000000; stroke-width: 0.8"/>
      </g>
     </g>
     <g id="text_10">
      <!-- 6 -->
      <g transform="translate(17.1275 82.417288)scale(0.1 -0.1)">
       <defs>
        <path id="DejaVuSans-36" d="M 2113 2584 
Q 1688 2584 1439 2293 
Q 1191 2003 1191 1497 
Q 1191 994 1439 701 
Q 1688 409 2113 409 
Q 2538 409 2786 701 
Q 3034 994 3034 1497 
Q 3034 2003 2786 2293 
Q 2538 2584 2113 2584 
z
M 3366 4563 
L 3366 3988 
Q 3128 4100 2886 4159 
Q 2644 4219 2406 4219 
Q 1781 4219 1451 3797 
Q 1122 3375 1075 2522 
Q 1259 2794 1537 2939 
Q 1816 3084 2150 3084 
Q 2853 3084 3261 2657 
Q 3669 2231 3669 1497 
Q 3669 778 3244 343 
Q 2819 -91 2113 -91 
Q 1303 -91 875 529 
Q 447 1150 447 2328 
Q 447 3434 972 4092 
Q 1497 4750 2381 4750 
Q 2619 4750 2861 4703 
Q 3103 4656 3366 4563 
z
" transform="scale(0.015625)"/>
       </defs>
       <use xlink:href="#DejaVuSans-36"/>
      </g>
     </g>
    </g>
    <g id="ytick_5">
     <g id="line2d_11">
      <g>
       <use xlink:href="#mfce0fabfd4" x="30.49" y="46.779389" style="stroke: #000000; stroke-width: 0.8"/>
      </g>
     </g>
     <g id="text_11">
      <!-- 8 -->
      <g transform="translate(17.1275 50.578608)scale(0.1 -0.1)">
       <defs>
        <path id="DejaVuSans-38" d="M 2034 2216 
Q 1584 2216 1326 1975 
Q 1069 1734 1069 1313 
Q 1069 891 1326 650 
Q 1584 409 2034 409 
Q 2484 409 2743 651 
Q 3003 894 3003 1313 
Q 3003 1734 2745 1975 
Q 2488 2216 2034 2216 
z
M 1403 2484 
Q 997 2584 770 2862 
Q 544 3141 544 3541 
Q 544 4100 942 4425 
Q 1341 4750 2034 4750 
Q 2731 4750 3128 4425 
Q 3525 4100 3525 3541 
Q 3525 3141 3298 2862 
Q 3072 2584 2669 2484 
Q 3125 2378 3379 2068 
Q 3634 1759 3634 1313 
Q 3634 634 3220 271 
Q 2806 -91 2034 -91 
Q 1263 -91 848 271 
Q 434 634 434 1313 
Q 434 1759 690 2068 
Q 947 2378 1403 2484 
z
M 1172 3481 
Q 1172 3119 1398 2916 
Q 1625 2713 2034 2713 
Q 2441 2713 2670 2916 
Q 2900 3119 2900 3481 
Q 2900 3844 2670 4047 
Q 2441 4250 2034 4250 
Q 1625 4250 1398 4047 
Q 1172 3844 1172 3481 
z
" transform="scale(0.015625)"/>
       </defs>
       <use xlink:href="#DejaVuSans-38"/>
      </g>
     </g>
    </g>
    <g id="ytick_6">
     <g id="line2d_12">
      <g>
       <use xlink:href="#mfce0fabfd4" x="30.49" y="14.940709" style="stroke: #000000; stroke-width: 0.8"/>
      </g>
     </g>
     <g id="text_12">
      <!-- 10 -->
      <g transform="translate(10.765 18.739928)scale(0.1 -0.1)">
       <use xlink:href="#DejaVuSans-31"/>
       <use xlink:href="#DejaVuSans-30" x="63.623047"/>
      </g>
     </g>
    </g>
   </g>
   <g id="line2d_13">
    <path d="M 41.704091 129.710831 
L 42.142999 83.289013 
L 42.581906 124.16162 
L 43.020814 121.19344 
L 43.459722 109.246974 
L 43.898629 134.292415 
L 44.337537 109.798099 
L 44.776445 109.472463 
L 45.215352 113.830471 
L 45.65426 109.674883 
L 46.093168 145.122197 
L 46.532075 126.23968 
L 46.970983 121.694852 
L 47.409891 124.017237 
L 47.848798 73.91916 
L 48.287706 111.857936 
L 48.726614 108.929939 
L 49.165521 134.830092 
L 49.604429 118.874304 
L 50.043337 116.758726 
L 50.482244 101.629838 
L 50.921152 99.520462 
L 51.798967 135.690858 
L 52.237875 111.572047 
L 52.676783 122.700821 
L 53.11569 126.067825 
L 53.554598 103.762032 
L 53.993506 139.037089 
L 54.432413 124.800371 
L 54.871321 114.341371 
L 55.310229 123.361061 
L 55.749136 106.580743 
L 56.626952 122.033028 
L 57.065859 114.76811 
L 57.504767 97.490138 
L 58.382582 126.220976 
L 58.82149 126.243984 
L 59.260398 91.173996 
L 59.699305 105.844149 
L 60.577121 99.679355 
L 61.016028 119.06358 
L 61.454936 121.512457 
L 61.893844 82.618415 
L 62.332751 151.901232 
L 62.771659 100.214918 
L 63.210567 65.263986 
L 63.649474 102.666607 
L 64.088382 86.918769 
L 64.52729 154.830473 
L 64.966197 130.59248 
L 65.405105 136.049495 
L 65.844013 110.008132 
L 66.28292 110.214127 
L 66.721828 134.993691 
L 67.160736 120.284251 
L 67.599643 121.768078 
L 68.038551 123.850016 
L 68.477459 118.486821 
L 68.916366 92.924943 
L 69.794182 125.513007 
L 70.233089 109.329905 
L 70.671997 112.335615 
L 71.110905 123.804053 
L 71.549812 118.27963 
L 71.98872 124.350843 
L 72.427628 119.813564 
L 72.866535 132.722462 
L 73.305443 108.890436 
L 73.744351 116.418519 
L 74.183258 112.202458 
L 74.622166 50.88156 
L 75.061074 101.070363 
L 75.499981 93.34148 
L 75.938889 137.024429 
L 76.377797 133.84373 
L 76.816704 178.475584 
L 77.255612 98.724552 
L 78.133427 119.667833 
L 78.572335 133.304644 
L 79.011243 107.864149 
L 79.45015 121.267186 
L 79.889058 126.338851 
L 80.766873 94.225406 
L 81.205781 115.486387 
L 81.644689 106.144537 
L 82.083596 84.553693 
L 82.522504 117.14849 
L 82.961412 101.566628 
L 83.400319 120.874879 
L 83.839227 88.240548 
L 84.278135 103.292677 
L 84.717042 57.742822 
L 85.15595 132.348058 
L 85.594858 85.4638 
L 86.033765 131.053079 
L 86.472673 117.223872 
L 86.911581 93.223699 
L 87.350488 93.574347 
L 87.789396 110.453454 
L 88.228304 104.034827 
L 88.667211 121.698814 
L 89.106119 105.258706 
L 89.545027 113.235691 
L 89.983934 115.745765 
L 90.422842 138.769881 
L 90.86175 136.75549 
L 91.300657 50.922171 
L 91.739565 100.242792 
L 92.178473 126.674595 
L 92.61738 133.661191 
L 93.495196 119.333039 
L 94.373011 77.582613 
L 94.811919 126.791928 
L 95.250826 51.312482 
L 95.689734 123.179718 
L 96.128642 83.300673 
L 96.567549 118.099452 
L 97.006457 108.882496 
L 97.445365 109.400577 
L 97.884272 72.541208 
L 98.32318 125.024694 
L 98.762088 68.395451 
L 99.200995 120.509823 
L 99.639903 118.376134 
L 100.078811 55.617004 
L 100.517718 100.627766 
L 100.956626 94.914929 
L 101.395534 124.455814 
L 101.834441 105.44189 
L 102.273349 100.900493 
L 102.712257 112.883046 
L 103.590072 120.693942 
L 104.02898 157.81292 
L 104.467887 104.921205 
L 104.906795 126.178998 
L 105.345703 128.720351 
L 105.78461 106.585563 
L 106.223518 112.766355 
L 106.662426 85.322054 
L 107.101333 109.427851 
L 107.540241 98.35375 
L 107.979149 135.688713 
L 108.418056 125.322536 
L 108.856964 120.027169 
L 109.295872 110.260508 
L 109.734779 81.061226 
L 110.173687 79.988323 
L 110.612595 121.507363 
L 111.051502 107.710577 
L 111.49041 117.148892 
L 111.929318 120.857534 
L 112.368225 141.740387 
L 112.807133 118.055838 
L 113.246041 125.971936 
L 113.684948 83.770445 
L 114.123856 96.999528 
L 114.562764 128.474936 
L 115.001671 76.485351 
L 115.440579 111.748209 
L 115.879487 89.825444 
L 116.318394 105.286117 
L 116.757302 99.802541 
L 117.19621 114.27484 
L 117.635117 106.844877 
L 118.074025 111.989814 
L 118.512933 106.297373 
L 118.95184 109.512923 
L 119.390748 121.192575 
L 119.829656 98.031637 
L 120.268563 116.178953 
L 120.707471 112.308215 
L 121.146379 90.000733 
L 121.585286 104.739448 
L 122.024194 127.112159 
L 122.463102 93.449036 
L 122.902009 134.382451 
L 123.779825 117.458185 
L 124.218732 115.732675 
L 124.65764 110.987158 
L 125.096548 96.358656 
L 125.535455 98.653532 
L 125.974363 126.245988 
L 126.413271 115.092186 
L 126.852178 98.959894 
L 127.291086 145.815832 
L 127.729994 91.865841 
L 128.168901 103.533196 
L 128.607809 71.962468 
L 129.046717 19.781083 
L 129.485624 136.039213 
L 129.924532 94.08962 
L 130.36344 90.728628 
L 130.802347 46.553316 
L 131.241255 135.749551 
L 131.680163 104.99899 
L 132.11907 125.876158 
L 132.557978 136.750624 
L 132.996886 119.932867 
L 133.435793 121.633794 
L 133.874701 102.884505 
L 134.313609 119.595997 
L 134.752516 104.194381 
L 135.191424 116.846026 
L 135.630332 118.26479 
L 136.069239 110.158736 
L 136.508147 119.478459 
L 136.947055 108.708937 
L 137.385962 104.113773 
L 137.82487 109.101896 
L 138.263778 101.374896 
L 138.702685 117.496641 
L 139.141593 85.778338 
L 139.580501 118.577415 
L 140.019408 100.529372 
L 140.458316 58.362158 
L 140.897224 55.531568 
L 141.336131 103.49184 
L 141.775039 98.096357 
L 142.213947 103.427408 
L 142.652854 111.61073 
L 143.091762 81.191046 
L 143.969577 102.800048 
L 144.408485 84.502841 
L 144.847393 125.427412 
L 145.2863 74.046141 
L 145.725208 116.003163 
L 146.164116 97.877738 
L 146.603023 104.206633 
L 147.041931 97.637349 
L 147.480839 98.50314 
L 148.358654 114.976982 
L 148.797562 134.831834 
L 149.236469 94.489343 
L 149.675377 105.934481 
L 150.114285 126.053432 
L 150.553192 106.665822 
L 150.9921 116.325925 
L 151.431008 119.704923 
L 151.869915 115.694318 
L 152.308823 107.328146 
L 152.747731 107.949266 
L 153.186638 124.575174 
L 153.625546 102.492084 
L 154.064454 106.282358 
L 154.503362 131.458575 
L 154.942269 129.734872 
L 155.820085 106.519013 
L 156.258992 114.74276 
L 156.6979 88.554752 
L 157.136808 123.2885 
L 157.575715 92.742472 
L 158.014623 99.4473 
L 158.453531 129.150214 
L 158.892438 105.439696 
L 159.331346 128.095594 
L 159.770254 104.429685 
L 160.209161 131.115306 
L 161.086977 100.069332 
L 161.525884 109.905047 
L 161.964792 110.72579 
L 162.4037 101.359031 
L 162.842607 89.192876 
L 163.281515 147.238358 
L 164.15933 99.760768 
L 164.598238 122.406168 
L 165.037146 110.673417 
L 165.476053 117.602974 
L 165.914961 110.114216 
L 166.353869 109.197307 
L 166.792776 105.712036 
L 167.231684 104.782534 
L 167.670592 116.897739 
L 168.109499 123.124687 
L 168.548407 114.309329 
L 168.987315 137.856612 
L 169.86513 101.134112 
L 170.304038 30.39392 
L 170.742945 95.349624 
L 171.181853 106.194804 
L 171.620761 102.505065 
L 172.059668 121.483421 
L 172.498576 100.205961 
L 172.937484 55.369387 
L 173.376391 112.991065 
L 173.815299 105.133205 
L 174.254207 119.608791 
L 174.693114 108.479781 
L 175.132022 113.699049 
L 175.57093 114.965232 
L 176.009837 100.337534 
L 176.448745 135.75324 
L 176.887653 118.025201 
L 177.32656 118.862955 
L 177.765468 89.235089 
L 178.204376 134.996345 
L 178.643283 136.081909 
L 179.082191 119.71478 
L 179.521099 119.283865 
L 179.960006 127.512152 
L 180.398914 119.154349 
L 180.837822 139.493441 
L 181.276729 129.391792 
L 181.715637 86.51711 
L 182.154545 110.279523 
L 182.593452 90.573652 
L 183.03236 108.235748 
L 183.471268 91.050666 
L 183.910175 161.283147 
L 184.349083 88.553909 
L 184.787991 107.293 
L 185.665806 86.260203 
L 186.104714 134.685025 
L 186.543621 122.860113 
L 186.982529 129.933435 
L 187.421437 57.742738 
L 187.860344 121.839747 
L 188.299252 128.807821 
L 188.73816 106.731559 
L 189.177067 108.94049 
L 189.615975 92.135926 
L 190.054883 132.093329 
L 190.49379 114.356902 
L 190.932698 119.019006 
L 191.371606 108.092614 
L 191.810513 112.790661 
L 192.249421 120.819131 
L 192.688329 101.051826 
L 193.127236 120.731114 
L 193.566144 103.280046 
L 194.005052 118.61436 
L 194.443959 99.711852 
L 194.882867 119.403096 
L 195.321775 93.502552 
L 195.760682 106.725153 
L 196.638498 124.270717 
L 197.077405 126.505461 
L 197.516313 135.435491 
L 197.955221 102.541486 
L 198.394128 115.703397 
L 199.271944 122.549386 
L 199.710851 104.870657 
L 200.149759 106.559761 
L 200.588667 103.378234 
L 201.027574 112.144972 
L 201.466482 117.385988 
L 202.344297 130.241156 
L 202.783205 134.963609 
L 203.222113 106.87023 
L 203.66102 109.764 
L 204.099928 121.747639 
L 204.538836 115.512693 
L 204.977743 141.003987 
L 205.416651 121.69552 
L 205.855559 112.24707 
L 206.294466 99.397276 
L 206.733374 174.34884 
L 207.172282 112.542251 
L 207.611189 93.858947 
L 208.050097 126.357768 
L 208.489005 121.682099 
L 208.927912 111.46941 
L 209.36682 123.443973 
L 209.805728 118.282014 
L 210.244635 126.180516 
L 210.683543 125.516795 
L 211.122451 125.160553 
L 211.561358 95.08848 
L 212.000266 132.558281 
L 212.439174 119.176062 
L 212.878081 117.194343 
L 213.316989 106.50163 
L 213.755897 126.712625 
L 214.194804 97.596084 
L 214.633712 115.080511 
L 215.07262 88.012365 
L 215.511527 115.8584 
L 215.950435 121.798999 
L 216.389343 107.847411 
L 216.82825 87.483588 
L 217.267158 92.84791 
L 217.706066 122.970739 
L 218.144973 116.295672 
L 218.583881 112.543398 
L 219.022789 133.308941 
L 219.461696 129.19527 
L 219.900604 96.774958 
L 220.339512 104.860728 
L 220.778419 135.817554 
L 221.217327 95.098288 
L 221.656235 72.484793 
L 222.095142 107.120693 
L 222.53405 105.799681 
L 222.972958 111.740474 
L 223.411865 126.820022 
L 223.850773 118.410202 
L 224.289681 91.4484 
L 224.728588 105.953572 
L 225.167496 113.039511 
L 225.606404 115.493796 
L 226.484219 130.275221 
L 226.923127 113.646132 
L 227.362034 130.194191 
L 227.800942 86.033211 
L 228.23985 122.203452 
L 228.678757 121.764874 
L 229.117665 114.532359 
L 229.556573 115.399357 
L 229.99548 121.853479 
L 230.434388 113.920924 
L 230.873296 138.374014 
L 231.312203 123.281933 
L 231.751111 91.839622 
L 232.190019 99.626886 
L 232.628926 104.827928 
L 233.067834 70.371986 
L 233.506742 104.316458 
L 234.384557 136.965201 
L 234.823465 146.194709 
L 235.262372 98.480671 
L 235.70128 92.323787 
L 236.140188 103.014765 
L 236.579095 105.439476 
L 237.018003 86.515478 
L 237.456911 124.699479 
L 237.895818 104.578103 
L 238.334726 120.706349 
L 238.773634 44.531805 
L 239.212541 86.480734 
L 239.651449 103.075007 
L 240.090357 147.481774 
L 240.529264 104.016305 
L 240.968172 141.365342 
L 241.40708 86.804898 
L 241.845987 100.083109 
L 242.284895 95.051634 
L 242.723803 107.615167 
L 243.16271 116.903151 
L 243.601618 90.533169 
L 244.040526 113.147848 
L 244.479433 124.986451 
L 245.357249 120.835778 
L 245.796156 94.4286 
L 246.235064 88.816047 
L 246.673972 147.724618 
L 247.112879 117.740511 
L 247.551787 125.45978 
L 247.990695 101.439973 
L 248.429602 89.261878 
L 248.86851 116.80141 
L 249.307418 83.447967 
L 249.746325 162.381577 
L 250.185233 86.447251 
L 250.624141 116.123616 
L 251.063048 131.504527 
L 251.501956 83.007647 
L 251.940864 117.031001 
L 252.379771 108.323773 
L 252.818679 112.573742 
L 253.257587 135.471738 
L 253.696494 61.081473 
L 254.135402 116.97832 
L 254.57431 123.842729 
L 255.013217 109.22052 
L 255.452125 119.448307 
L 255.891033 112.76903 
L 256.32994 121.615986 
L 256.768848 94.815465 
L 257.207756 120.977577 
L 257.646663 120.603708 
L 258.085571 102.373514 
L 258.524479 131.45563 
L 258.963386 122.603141 
L 259.402294 117.466702 
L 259.841202 117.664545 
L 260.280109 73.225326 
L 260.719017 105.672374 
L 261.157925 120.615808 
L 261.596832 115.324374 
L 262.03574 127.044349 
L 262.474648 115.384103 
L 262.913555 99.410302 
L 263.352463 120.91486 
L 263.791371 125.414409 
L 264.230278 65.039302 
L 264.669186 109.062173 
L 265.108094 119.700372 
L 265.547001 112.864502 
L 265.985909 90.231384 
L 265.985909 90.231384 
" clip-path="url(#p89f1b42fac)" style="fill: none; stroke: #20b2aa; stroke-width: 1.5; stroke-linecap: square"/>
   </g>
   <g id="line2d_14">
    <path d="M 41.704091 180.103861 
L 143.969577 180.103861 
L 144.408485 179.477064 
L 144.847393 180.103861 
L 265.985909 180.103861 
L 265.985909 180.103861 
" clip-path="url(#p89f1b42fac)" style="fill: none; stroke: #4169e1; stroke-opacity: 0.8; stroke-width: 1.5; stroke-linecap: square"/>
   </g>
   <g id="patch_3">
    <path d="M 30.49 188.12 
L 30.49 11.764944 
" style="fill: none; stroke: #000000; stroke-width: 1.5; stroke-linejoin: miter; stroke-linecap: square"/>
   </g>
   <g id="patch_4">
    <path d="M 277.2 188.12 
L 277.2 11.764944 
" style="fill: none; stroke: #000000; stroke-width: 1.5; stroke-linejoin: miter; stroke-linecap: square"/>
   </g>
   <g id="patch_5">
    <path d="M 30.49 188.12 
L 277.2 188.12 
" style="fill: none; stroke: #000000; stroke-width: 1.5; stroke-linejoin: miter; stroke-linecap: square"/>
   </g>
   <g id="patch_6">
    <path d="M 30.49 11.764944 
L 277.2 11.764944 
" style="fill: none; stroke: #000000; stroke-width: 1.5; stroke-linejoin: miter; stroke-linecap: square"/>
   </g>
   <g id="legend_1">
    <g id="patch_7">
     <path d="M 35.39 184.62 
L 72.2625 184.62 
Q 73.6625 184.62 73.6625 183.22 
L 73.6625 163.370625 
Q 73.6625 161.970625 72.2625 161.970625 
L 35.39 161.970625 
Q 33.99 161.970625 33.99 163.370625 
L 33.99 183.22 
Q 33.99 184.62 35.39 184.62 
z
" style="fill: #ffffff; opacity: 0.8; stroke: #000000; stroke-width: 1.5; stroke-linejoin: miter"/>
    </g>
    <g id="line2d_15">
     <path d="M 36.79 167.639531 
L 43.79 167.639531 
L 50.79 167.639531 
" style="fill: none; stroke: #20b2aa; stroke-width: 1.5; stroke-linecap: square"/>
    </g>
    <g id="text_13">
     <!-- Max -->
     <g transform="translate(56.39 170.089531)scale(0.07 -0.07)">
      <defs>
       <path id="DejaVuSans-4d" d="M 628 4666 
L 1569 4666 
L 2759 1491 
L 3956 4666 
L 4897 4666 
L 4897 0 
L 4281 0 
L 4281 4097 
L 3078 897 
L 2444 897 
L 1241 4097 
L 1241 0 
L 628 0 
L 628 4666 
z
" transform="scale(0.015625)"/>
       <path id="DejaVuSans-61" d="M 2194 1759 
Q 1497 1759 1228 1600 
Q 959 1441 959 1056 
Q 959 750 1161 570 
Q 1363 391 1709 391 
Q 2188 391 2477 730 
Q 2766 1069 2766 1631 
L 2766 1759 
L 2194 1759 
z
M 3341 1997 
L 3341 0 
L 2766 0 
L 2766 531 
Q 2569 213 2275 61 
Q 1981 -91 1556 -91 
Q 1019 -91 701 211 
Q 384 513 384 1019 
Q 384 1609 779 1909 
Q 1175 2209 1959 2209 
L 2766 2209 
L 2766 2266 
Q 2766 2663 2505 2880 
Q 2244 3097 1772 3097 
Q 1472 3097 1187 3025 
Q 903 2953 641 2809 
L 641 3341 
Q 956 3463 1253 3523 
Q 1550 3584 1831 3584 
Q 2591 3584 2966 3190 
Q 3341 2797 3341 1997 
z
" transform="scale(0.015625)"/>
       <path id="DejaVuSans-78" d="M 3513 3500 
L 2247 1797 
L 3578 0 
L 2900 0 
L 1881 1375 
L 863 0 
L 184 0 
L 1544 1831 
L 300 3500 
L 978 3500 
L 1906 2253 
L 2834 3500 
L 3513 3500 
z
" transform="scale(0.015625)"/>
      </defs>
      <use xlink:href="#DejaVuSans-4d"/>
      <use xlink:href="#DejaVuSans-61" x="86.279297"/>
      <use xlink:href="#DejaVuSans-78" x="147.558594"/>
     </g>
    </g>
    <g id="line2d_16">
     <path d="M 36.79 177.914219 
L 43.79 177.914219 
L 50.79 177.914219 
" style="fill: none; stroke: #4169e1; stroke-opacity: 0.8; stroke-width: 1.5; stroke-linecap: square"/>
    </g>
    <g id="text_14">
     <!-- Min -->
     <g transform="translate(56.39 180.364219)scale(0.07 -0.07)">
      <defs>
       <path id="DejaVuSans-69" d="M 603 3500 
L 1178 3500 
L 1178 0 
L 603 0 
L 603 3500 
z
M 603 4863 
L 1178 4863 
L 1178 4134 
L 603 4134 
L 603 4863 
z
" transform="scale(0.015625)"/>
       <path id="DejaVuSans-6e" d="M 3513 2113 
L 3513 0 
L 2938 0 
L 2938 2094 
Q 2938 2591 2744 2837 
Q 2550 3084 2163 3084 
Q 1697 3084 1428 2787 
Q 1159 2491 1159 1978 
L 1159 0 
L 581 0 
L 581 3500 
L 1159 3500 
L 1159 2956 
Q 1366 3272 1645 3428 
Q 1925 3584 2291 3584 
Q 2894 3584 3203 3211 
Q 3513 2838 3513 2113 
z
" transform="scale(0.015625)"/>
      </defs>
      <use xlink:href="#DejaVuSans-4d"/>
      <use xlink:href="#DejaVuSans-69" x="86.279297"/>
      <use xlink:href="#DejaVuSans-6e" x="114.0625"/>
     </g>
    </g>
   </g>
  </g>
 </g>
 <defs>
  <clipPath id="p89f1b42fac">
   <rect x="30.49" y="11.764944" width="246.71" height="176.355056"/>
  </clipPath>
 </defs>
</svg>
