<?xml version="1.0" encoding="utf-8" standalone="no"?>
<!DOCTYPE svg PUBLIC "-//W3C//DTD SVG 1.1//EN"
  "http://www.w3.org/Graphics/SVG/1.1/DTD/svg11.dtd">
<svg xmlns:xlink="http://www.w3.org/1999/xlink" width="288pt" height="216pt" viewBox="0 0 288 216" xmlns="http://www.w3.org/2000/svg" version="1.1">
 <metadata>
  <rdf:RDF xmlns:dc="http://purl.org/dc/elements/1.1/" xmlns:cc="http://creativecommons.org/ns#" xmlns:rdf="http://www.w3.org/1999/02/22-rdf-syntax-ns#">
   <cc:Work>
    <dc:type rdf:resource="http://purl.org/dc/dcmitype/StillImage"/>
    <dc:date>2023-07-07T20:46:02.405449</dc:date>
    <dc:format>image/svg+xml</dc:format>
    <dc:creator>
     <cc:Agent>
      <dc:title>Matplotlib v3.5.2, https://matplotlib.org/</dc:title>
     </cc:Agent>
    </dc:creator>
   </cc:Work>
  </rdf:RDF>
 </metadata>
 <defs>
  <style type="text/css">*{stroke-linejoin: round; stroke-linecap: butt}</style>
 </defs>
 <g id="figure_1">
  <g id="patch_1">
   <path d="M 0 216 
L 288 216 
L 288 0 
L 0 0 
z
" style="fill: #ffffff"/>
  </g>
  <g id="axes_1">
   <g id="patch_2">
    <path d="M 39.94 188.12 
L 277.2 188.12 
L 277.2 10.8 
L 39.94 10.8 
z
" style="fill: #ffffff"/>
   </g>
   <g id="matplotlib.axis_1">
    <g id="xtick_1">
     <g id="line2d_1">
      <defs>
       <path id="m6a35846bab" d="M 0 0 
L 0 3.5 
" style="stroke: #000000; stroke-width: 0.8"/>
      </defs>
      <g>
       <use xlink:href="#m6a35846bab" x="50.724545" y="188.12" style="stroke: #000000; stroke-width: 0.8"/>
      </g>
     </g>
     <g id="text_1">
      <!-- 0 -->
      <g transform="translate(47.543295 202.718437)scale(0.1 -0.1)">
       <defs>
        <path id="DejaVuSans-30" d="M 2034 4250 
Q 1547 4250 1301 3770 
Q 1056 3291 1056 2328 
Q 1056 1369 1301 889 
Q 1547 409 2034 409 
Q 2525 409 2770 889 
Q 3016 1369 3016 2328 
Q 3016 3291 2770 3770 
Q 2525 4250 2034 4250 
z
M 2034 4750 
Q 2819 4750 3233 4129 
Q 3647 3509 3647 2328 
Q 3647 1150 3233 529 
Q 2819 -91 2034 -91 
Q 1250 -91 836 529 
Q 422 1150 422 2328 
Q 422 3509 836 4129 
Q 1250 4750 2034 4750 
z
" transform="scale(0.015625)"/>
       </defs>
       <use xlink:href="#DejaVuSans-30"/>
      </g>
     </g>
    </g>
    <g id="xtick_2">
     <g id="line2d_2">
      <g>
       <use xlink:href="#m6a35846bab" x="92.892856" y="188.12" style="stroke: #000000; stroke-width: 0.8"/>
      </g>
     </g>
     <g id="text_2">
      <!-- 200 -->
      <g transform="translate(83.349106 202.718437)scale(0.1 -0.1)">
       <defs>
        <path id="DejaVuSans-32" d="M 1228 531 
L 3431 531 
L 3431 0 
L 469 0 
L 469 531 
Q 828 903 1448 1529 
Q 2069 2156 2228 2338 
Q 2531 2678 2651 2914 
Q 2772 3150 2772 3378 
Q 2772 3750 2511 3984 
Q 2250 4219 1831 4219 
Q 1534 4219 1204 4116 
Q 875 4013 500 3803 
L 500 4441 
Q 881 4594 1212 4672 
Q 1544 4750 1819 4750 
Q 2544 4750 2975 4387 
Q 3406 4025 3406 3419 
Q 3406 3131 3298 2873 
Q 3191 2616 2906 2266 
Q 2828 2175 2409 1742 
Q 1991 1309 1228 531 
z
" transform="scale(0.015625)"/>
       </defs>
       <use xlink:href="#DejaVuSans-32"/>
       <use xlink:href="#DejaVuSans-30" x="63.623047"/>
       <use xlink:href="#DejaVuSans-30" x="127.246094"/>
      </g>
     </g>
    </g>
    <g id="xtick_3">
     <g id="line2d_3">
      <g>
       <use xlink:href="#m6a35846bab" x="135.061167" y="188.12" style="stroke: #000000; stroke-width: 0.8"/>
      </g>
     </g>
     <g id="text_3">
      <!-- 400 -->
      <g transform="translate(125.517417 202.718437)scale(0.1 -0.1)">
       <defs>
        <path id="DejaVuSans-34" d="M 2419 4116 
L 825 1625 
L 2419 1625 
L 2419 4116 
z
M 2253 4666 
L 3047 4666 
L 3047 1625 
L 3713 1625 
L 3713 1100 
L 3047 1100 
L 3047 0 
L 2419 0 
L 2419 1100 
L 313 1100 
L 313 1709 
L 2253 4666 
z
" transform="scale(0.015625)"/>
       </defs>
       <use xlink:href="#DejaVuSans-34"/>
       <use xlink:href="#DejaVuSans-30" x="63.623047"/>
       <use xlink:href="#DejaVuSans-30" x="127.246094"/>
      </g>
     </g>
    </g>
    <g id="xtick_4">
     <g id="line2d_4">
      <g>
       <use xlink:href="#m6a35846bab" x="177.229477" y="188.12" style="stroke: #000000; stroke-width: 0.8"/>
      </g>
     </g>
     <g id="text_4">
      <!-- 600 -->
      <g transform="translate(167.685727 202.718437)scale(0.1 -0.1)">
       <defs>
        <path id="DejaVuSans-36" d="M 2113 2584 
Q 1688 2584 1439 2293 
Q 1191 2003 1191 1497 
Q 1191 994 1439 701 
Q 1688 409 2113 409 
Q 2538 409 2786 701 
Q 3034 994 3034 1497 
Q 3034 2003 2786 2293 
Q 2538 2584 2113 2584 
z
M 3366 4563 
L 3366 3988 
Q 3128 4100 2886 4159 
Q 2644 4219 2406 4219 
Q 1781 4219 1451 3797 
Q 1122 3375 1075 2522 
Q 1259 2794 1537 2939 
Q 1816 3084 2150 3084 
Q 2853 3084 3261 2657 
Q 3669 2231 3669 1497 
Q 3669 778 3244 343 
Q 2819 -91 2113 -91 
Q 1303 -91 875 529 
Q 447 1150 447 2328 
Q 447 3434 972 4092 
Q 1497 4750 2381 4750 
Q 2619 4750 2861 4703 
Q 3103 4656 3366 4563 
z
" transform="scale(0.015625)"/>
       </defs>
       <use xlink:href="#DejaVuSans-36"/>
       <use xlink:href="#DejaVuSans-30" x="63.623047"/>
       <use xlink:href="#DejaVuSans-30" x="127.246094"/>
      </g>
     </g>
    </g>
    <g id="xtick_5">
     <g id="line2d_5">
      <g>
       <use xlink:href="#m6a35846bab" x="219.397788" y="188.12" style="stroke: #000000; stroke-width: 0.8"/>
      </g>
     </g>
     <g id="text_5">
      <!-- 800 -->
      <g transform="translate(209.854038 202.718437)scale(0.1 -0.1)">
       <defs>
        <path id="DejaVuSans-38" d="M 2034 2216 
Q 1584 2216 1326 1975 
Q 1069 1734 1069 1313 
Q 1069 891 1326 650 
Q 1584 409 2034 409 
Q 2484 409 2743 651 
Q 3003 894 3003 1313 
Q 3003 1734 2745 1975 
Q 2488 2216 2034 2216 
z
M 1403 2484 
Q 997 2584 770 2862 
Q 544 3141 544 3541 
Q 544 4100 942 4425 
Q 1341 4750 2034 4750 
Q 2731 4750 3128 4425 
Q 3525 4100 3525 3541 
Q 3525 3141 3298 2862 
Q 3072 2584 2669 2484 
Q 3125 2378 3379 2068 
Q 3634 1759 3634 1313 
Q 3634 634 3220 271 
Q 2806 -91 2034 -91 
Q 1263 -91 848 271 
Q 434 634 434 1313 
Q 434 1759 690 2068 
Q 947 2378 1403 2484 
z
M 1172 3481 
Q 1172 3119 1398 2916 
Q 1625 2713 2034 2713 
Q 2441 2713 2670 2916 
Q 2900 3119 2900 3481 
Q 2900 3844 2670 4047 
Q 2441 4250 2034 4250 
Q 1625 4250 1398 4047 
Q 1172 3844 1172 3481 
z
" transform="scale(0.015625)"/>
       </defs>
       <use xlink:href="#DejaVuSans-38"/>
       <use xlink:href="#DejaVuSans-30" x="63.623047"/>
       <use xlink:href="#DejaVuSans-30" x="127.246094"/>
      </g>
     </g>
    </g>
    <g id="xtick_6">
     <g id="line2d_6">
      <g>
       <use xlink:href="#m6a35846bab" x="261.566099" y="188.12" style="stroke: #000000; stroke-width: 0.8"/>
      </g>
     </g>
     <g id="text_6">
      <!-- 1000 -->
      <g transform="translate(248.841099 202.718437)scale(0.1 -0.1)">
       <defs>
        <path id="DejaVuSans-31" d="M 794 531 
L 1825 531 
L 1825 4091 
L 703 3866 
L 703 4441 
L 1819 4666 
L 2450 4666 
L 2450 531 
L 3481 531 
L 3481 0 
L 794 0 
L 794 531 
z
" transform="scale(0.015625)"/>
       </defs>
       <use xlink:href="#DejaVuSans-31"/>
       <use xlink:href="#DejaVuSans-30" x="63.623047"/>
       <use xlink:href="#DejaVuSans-30" x="127.246094"/>
       <use xlink:href="#DejaVuSans-30" x="190.869141"/>
      </g>
     </g>
    </g>
   </g>
   <g id="matplotlib.axis_2">
    <g id="ytick_1">
     <g id="line2d_7">
      <defs>
       <path id="m374e4a874d" d="M 0 0 
L -3.5 0 
" style="stroke: #000000; stroke-width: 0.8"/>
      </defs>
      <g>
       <use xlink:href="#m374e4a874d" x="39.94" y="176.423959" style="stroke: #000000; stroke-width: 0.8"/>
      </g>
     </g>
     <g id="text_7">
      <!-- 0.0 -->
      <g transform="translate(17.036875 180.223178)scale(0.1 -0.1)">
       <defs>
        <path id="DejaVuSans-2e" d="M 684 794 
L 1344 794 
L 1344 0 
L 684 0 
L 684 794 
z
" transform="scale(0.015625)"/>
       </defs>
       <use xlink:href="#DejaVuSans-30"/>
       <use xlink:href="#DejaVuSans-2e" x="63.623047"/>
       <use xlink:href="#DejaVuSans-30" x="95.410156"/>
      </g>
     </g>
    </g>
    <g id="ytick_2">
     <g id="line2d_8">
      <g>
       <use xlink:href="#m374e4a874d" x="39.94" y="152.183689" style="stroke: #000000; stroke-width: 0.8"/>
      </g>
     </g>
     <g id="text_8">
      <!-- 2.5 -->
      <g transform="translate(17.036875 155.982908)scale(0.1 -0.1)">
       <defs>
        <path id="DejaVuSans-35" d="M 691 4666 
L 3169 4666 
L 3169 4134 
L 1269 4134 
L 1269 2991 
Q 1406 3038 1543 3061 
Q 1681 3084 1819 3084 
Q 2600 3084 3056 2656 
Q 3513 2228 3513 1497 
Q 3513 744 3044 326 
Q 2575 -91 1722 -91 
Q 1428 -91 1123 -41 
Q 819 9 494 109 
L 494 744 
Q 775 591 1075 516 
Q 1375 441 1709 441 
Q 2250 441 2565 725 
Q 2881 1009 2881 1497 
Q 2881 1984 2565 2268 
Q 2250 2553 1709 2553 
Q 1456 2553 1204 2497 
Q 953 2441 691 2322 
L 691 4666 
z
" transform="scale(0.015625)"/>
       </defs>
       <use xlink:href="#DejaVuSans-32"/>
       <use xlink:href="#DejaVuSans-2e" x="63.623047"/>
       <use xlink:href="#DejaVuSans-35" x="95.410156"/>
      </g>
     </g>
    </g>
    <g id="ytick_3">
     <g id="line2d_9">
      <g>
       <use xlink:href="#m374e4a874d" x="39.94" y="127.943418" style="stroke: #000000; stroke-width: 0.8"/>
      </g>
     </g>
     <g id="text_9">
      <!-- 5.0 -->
      <g transform="translate(17.036875 131.742637)scale(0.1 -0.1)">
       <use xlink:href="#DejaVuSans-35"/>
       <use xlink:href="#DejaVuSans-2e" x="63.623047"/>
       <use xlink:href="#DejaVuSans-30" x="95.410156"/>
      </g>
     </g>
    </g>
    <g id="ytick_4">
     <g id="line2d_10">
      <g>
       <use xlink:href="#m374e4a874d" x="39.94" y="103.703148" style="stroke: #000000; stroke-width: 0.8"/>
      </g>
     </g>
     <g id="text_10">
      <!-- 7.5 -->
      <g transform="translate(17.036875 107.502366)scale(0.1 -0.1)">
       <defs>
        <path id="DejaVuSans-37" d="M 525 4666 
L 3525 4666 
L 3525 4397 
L 1831 0 
L 1172 0 
L 2766 4134 
L 525 4134 
L 525 4666 
z
" transform="scale(0.015625)"/>
       </defs>
       <use xlink:href="#DejaVuSans-37"/>
       <use xlink:href="#DejaVuSans-2e" x="63.623047"/>
       <use xlink:href="#DejaVuSans-35" x="95.410156"/>
      </g>
     </g>
    </g>
    <g id="ytick_5">
     <g id="line2d_11">
      <g>
       <use xlink:href="#m374e4a874d" x="39.94" y="79.462877" style="stroke: #000000; stroke-width: 0.8"/>
      </g>
     </g>
     <g id="text_11">
      <!-- 10.0 -->
      <g transform="translate(10.674375 83.262096)scale(0.1 -0.1)">
       <use xlink:href="#DejaVuSans-31"/>
       <use xlink:href="#DejaVuSans-30" x="63.623047"/>
       <use xlink:href="#DejaVuSans-2e" x="127.246094"/>
       <use xlink:href="#DejaVuSans-30" x="159.033203"/>
      </g>
     </g>
    </g>
    <g id="ytick_6">
     <g id="line2d_12">
      <g>
       <use xlink:href="#m374e4a874d" x="39.94" y="55.222607" style="stroke: #000000; stroke-width: 0.8"/>
      </g>
     </g>
     <g id="text_12">
      <!-- 12.5 -->
      <g transform="translate(10.674375 59.021825)scale(0.1 -0.1)">
       <use xlink:href="#DejaVuSans-31"/>
       <use xlink:href="#DejaVuSans-32" x="63.623047"/>
       <use xlink:href="#DejaVuSans-2e" x="127.246094"/>
       <use xlink:href="#DejaVuSans-35" x="159.033203"/>
      </g>
     </g>
    </g>
    <g id="ytick_7">
     <g id="line2d_13">
      <g>
       <use xlink:href="#m374e4a874d" x="39.94" y="30.982336" style="stroke: #000000; stroke-width: 0.8"/>
      </g>
     </g>
     <g id="text_13">
      <!-- 15.0 -->
      <g transform="translate(10.674375 34.781555)scale(0.1 -0.1)">
       <use xlink:href="#DejaVuSans-31"/>
       <use xlink:href="#DejaVuSans-35" x="63.623047"/>
       <use xlink:href="#DejaVuSans-2e" x="127.246094"/>
       <use xlink:href="#DejaVuSans-30" x="159.033203"/>
      </g>
     </g>
    </g>
   </g>
   <g id="line2d_14">
    <path d="M 50.724545 156.24761 
L 50.935387 134.6164 
L 51.146229 152.109628 
L 51.35707 141.502165 
L 51.567912 18.86 
L 51.778753 163.570729 
L 51.989595 141.952299 
L 52.200436 176.423959 
L 52.411278 168.875888 
L 52.622119 152.62302 
L 52.832961 147.892318 
L 53.043803 137.668063 
L 53.254644 171.832789 
L 53.465486 176.423959 
L 53.676327 170.111575 
L 53.887169 155.526643 
L 54.09801 168.780709 
L 54.308852 160.981061 
L 54.519693 167.559911 
L 54.730535 159.563266 
L 54.941377 176.423959 
L 55.152218 176.423959 
L 55.573901 136.637714 
L 55.784743 136.579246 
L 56.206426 172.54338 
L 56.417267 157.134828 
L 56.838951 140.153156 
L 57.049792 160.794399 
L 57.260634 151.66028 
L 57.471475 81.251391 
L 57.682317 149.447925 
L 57.893158 158.643349 
L 58.104 139.087441 
L 58.314841 155.854001 
L 58.525683 146.804001 
L 58.736524 144.832644 
L 58.947366 164.229998 
L 59.158208 162.235693 
L 59.369049 172.222009 
L 59.579891 140.204051 
L 59.790732 145.449155 
L 60.001574 137.847721 
L 60.212415 164.535045 
L 60.423257 163.930764 
L 60.634098 169.270781 
L 60.84494 168.808753 
L 61.055782 147.448211 
L 61.266623 105.584075 
L 61.477465 170.08741 
L 61.688306 172.49289 
L 61.899148 176.423959 
L 62.109989 167.973326 
L 62.320831 170.417894 
L 62.531672 149.513934 
L 62.742514 153.654353 
L 62.953356 165.001767 
L 63.164197 164.58738 
L 63.375039 172.089941 
L 63.58588 149.534101 
L 63.796722 165.37664 
L 64.007563 157.877963 
L 64.218405 162.800783 
L 64.429246 176.009303 
L 64.640088 164.601682 
L 64.85093 134.446275 
L 65.061771 125.942679 
L 65.272613 174.541563 
L 65.483454 157.263383 
L 65.694296 172.531252 
L 65.905137 141.295619 
L 66.115979 141.037486 
L 66.32682 164.155358 
L 66.537662 172.650376 
L 66.748504 164.793176 
L 66.959345 175.0536 
L 67.170187 146.075098 
L 67.381028 159.152772 
L 67.59187 154.916244 
L 67.802711 162.609535 
L 68.013553 75.575745 
L 68.224394 159.740206 
L 68.435236 169.549497 
L 68.646077 172.999684 
L 68.856919 168.204777 
L 69.067761 166.271742 
L 69.278602 146.524404 
L 69.489444 166.544688 
L 69.700285 137.638324 
L 69.911127 164.466703 
L 70.121968 171.777261 
L 70.33281 164.785123 
L 70.543651 134.480165 
L 70.754493 155.850845 
L 70.965335 163.204489 
L 71.176176 150.923716 
L 71.387018 170.254959 
L 71.597859 170.971036 
L 71.808701 173.242207 
L 72.019542 168.640482 
L 72.230384 176.423959 
L 72.441225 170.319252 
L 72.652067 134.297118 
L 72.862909 134.442715 
L 73.07375 152.655384 
L 73.284592 141.777717 
L 73.495433 175.899167 
L 73.706275 130.228233 
L 74.127958 176.423959 
L 74.338799 145.077176 
L 74.760483 162.659394 
L 74.971324 176.423959 
L 75.182166 172.994219 
L 75.393007 147.904423 
L 75.603849 158.739792 
L 75.81469 162.134746 
L 76.025532 156.5731 
L 76.236373 168.400748 
L 76.447215 171.715521 
L 76.658057 154.059789 
L 76.868898 176.423959 
L 77.07974 164.188427 
L 77.290581 113.425485 
L 77.501423 176.423959 
L 77.712264 151.549017 
L 77.923106 147.016745 
L 78.133947 139.891073 
L 78.344789 156.439195 
L 78.55563 154.869947 
L 78.766472 168.232862 
L 78.977314 172.758506 
L 79.188155 156.640311 
L 79.398997 158.911068 
L 79.609838 156.702404 
L 79.82068 139.512053 
L 80.031521 174.560956 
L 80.242363 175.127068 
L 80.453204 150.094951 
L 80.664046 170.49059 
L 80.874888 169.716695 
L 81.085729 174.755908 
L 81.296571 160.169291 
L 81.507412 164.463215 
L 81.718254 172.300702 
L 81.929095 146.09064 
L 82.139937 155.909129 
L 82.350778 144.783614 
L 82.56162 172.045929 
L 82.772462 156.636511 
L 82.983303 157.110053 
L 83.194145 162.181498 
L 83.404986 149.497643 
L 83.615828 176.423959 
L 83.826669 164.06107 
L 84.037511 140.528189 
L 84.248352 151.218427 
L 84.459194 168.163944 
L 84.670036 142.728412 
L 84.880877 176.423959 
L 85.091719 176.423959 
L 85.30256 168.706852 
L 85.513402 169.665676 
L 85.724243 169.58464 
L 85.935085 162.987271 
L 86.145926 160.273237 
L 86.356768 134.49754 
L 86.56761 137.36621 
L 86.778451 156.165676 
L 87.200134 141.185525 
L 87.410976 144.641579 
L 87.621817 146.125787 
L 87.832659 172.708336 
L 88.0435 156.300556 
L 88.254342 168.874469 
L 88.465184 164.340726 
L 88.676025 101.899446 
L 88.886867 166.494107 
L 89.097708 149.031166 
L 89.30855 155.013635 
L 89.519391 142.645245 
L 89.730233 144.633046 
L 89.941074 174.653517 
L 90.151916 155.931349 
L 90.362757 175.949291 
L 90.573599 151.122086 
L 90.784441 168.170984 
L 90.995282 161.440124 
L 91.206124 169.774754 
L 91.416965 157.24655 
L 91.627807 164.280447 
L 91.838648 161.954951 
L 92.04949 153.322716 
L 92.260331 159.029295 
L 92.471173 140.397659 
L 92.682015 165.387422 
L 92.892856 157.314085 
L 93.103698 176.423959 
L 93.525381 158.0443 
L 93.736222 157.029027 
L 93.947064 157.354477 
L 94.157905 154.700053 
L 94.368747 150.098173 
L 94.579589 169.326545 
L 94.79043 146.733905 
L 95.001272 160.182913 
L 95.212113 135.934874 
L 95.422955 147.976216 
L 95.633796 174.886745 
L 95.844638 157.855561 
L 96.055479 152.989415 
L 96.266321 174.093839 
L 96.477163 175.354429 
L 96.688004 136.717894 
L 96.898846 176.423959 
L 97.109687 149.881546 
L 97.320529 158.632502 
L 97.53137 139.924392 
L 97.742212 133.316051 
L 97.953053 164.425746 
L 98.163895 176.423959 
L 98.374737 174.034358 
L 98.79642 153.828514 
L 99.007261 174.776035 
L 99.218103 132.488219 
L 99.428944 162.779505 
L 99.850627 151.24127 
L 100.27231 168.418156 
L 100.483152 145.437844 
L 100.693994 142.876925 
L 100.904835 151.016747 
L 101.115677 171.72336 
L 101.748201 119.135367 
L 101.959043 167.940383 
L 102.169884 176.423959 
L 102.380726 176.423959 
L 102.591568 159.515885 
L 102.802409 171.139575 
L 103.013251 153.827966 
L 103.224092 154.85714 
L 103.434934 147.941218 
L 103.645775 147.759449 
L 103.856617 176.423959 
L 104.067458 175.517277 
L 104.2783 170.045977 
L 104.489142 132.688744 
L 104.910825 161.426242 
L 105.121666 143.217637 
L 105.332508 141.477992 
L 105.543349 152.12326 
L 105.754191 176.411238 
L 105.965032 174.247807 
L 106.175874 166.687926 
L 106.386716 176.423959 
L 106.597557 150.267203 
L 106.808399 162.849775 
L 107.01924 140.742022 
L 107.230082 174.516752 
L 107.440923 172.431196 
L 107.651765 127.786535 
L 107.862606 173.629263 
L 108.073448 151.102788 
L 108.28429 163.417094 
L 108.495131 163.292434 
L 108.705973 170.699686 
L 108.916814 138.110845 
L 109.127656 168.644132 
L 109.338497 159.99205 
L 109.549339 168.391814 
L 109.76018 165.667998 
L 109.971022 158.559541 
L 110.181864 176.423959 
L 110.392705 141.136336 
L 110.603547 160.54456 
L 110.814388 134.893281 
L 111.02523 158.982672 
L 111.236071 160.877291 
L 111.446913 170.19371 
L 111.868596 163.234779 
L 112.079437 148.505529 
L 112.290279 163.462603 
L 112.501121 168.337823 
L 112.711962 170.412503 
L 112.922804 164.570399 
L 113.133645 164.963292 
L 113.344487 145.894154 
L 113.555328 149.326193 
L 113.76617 156.163193 
L 113.977011 151.301999 
L 114.187853 135.430694 
L 114.398695 87.892526 
L 114.609536 147.764882 
L 114.820378 164.371415 
L 115.031219 151.122668 
L 115.242061 173.063654 
L 115.663744 122.337102 
L 115.874585 168.272995 
L 116.085427 159.974917 
L 116.296269 160.194694 
L 116.717952 176.423959 
L 116.928793 162.745602 
L 117.139635 167.603454 
L 117.350476 175.256415 
L 117.561318 176.423959 
L 117.772159 164.287444 
L 117.983001 176.1697 
L 118.193843 172.671797 
L 118.615526 159.795585 
L 118.826367 139.505605 
L 119.037209 162.585653 
L 119.669733 144.610902 
L 119.880575 161.405464 
L 120.091417 168.893549 
L 120.302258 166.466057 
L 120.723941 167.36358 
L 120.934783 161.889333 
L 121.145624 148.583485 
L 121.356466 165.519287 
L 121.567307 156.358941 
L 121.778149 176.423959 
L 121.98899 147.262325 
L 122.199832 175.258588 
L 122.410674 92.891656 
L 122.621515 159.133977 
L 122.832357 152.007079 
L 123.464881 173.637486 
L 123.675723 176.423959 
L 123.886564 150.919578 
L 124.097406 159.764776 
L 124.308248 154.301451 
L 124.519089 162.399628 
L 124.729931 139.255125 
L 124.940772 163.9766 
L 125.151614 163.083226 
L 125.362455 170.006417 
L 125.573297 125.64447 
L 125.99498 152.994275 
L 126.205822 165.754388 
L 126.416663 157.520933 
L 126.838346 176.423959 
L 127.049188 168.559096 
L 127.260029 168.297838 
L 127.470871 162.473912 
L 127.892554 169.982358 
L 128.103396 158.769149 
L 128.314237 175.459137 
L 128.525079 150.330623 
L 128.73592 176.423959 
L 128.946762 167.271548 
L 129.157603 129.107514 
L 129.368445 167.615228 
L 129.579286 153.541023 
L 129.790128 155.21575 
L 130.00097 159.600764 
L 130.211811 166.737873 
L 130.422653 163.270487 
L 130.633494 157.741266 
L 130.844336 160.912404 
L 131.266019 173.130207 
L 131.687702 176.423959 
L 131.898543 171.421104 
L 132.109385 157.361531 
L 132.320227 174.915726 
L 132.531068 162.735168 
L 132.74191 160.471152 
L 132.952751 143.297302 
L 133.163593 140.51451 
L 133.374434 140.442837 
L 133.585276 136.593736 
L 133.796117 176.423959 
L 134.006959 164.118932 
L 134.217801 160.299818 
L 134.428642 163.601374 
L 134.639484 164.994309 
L 134.850325 168.530934 
L 135.061167 166.585064 
L 135.272008 165.900131 
L 135.48285 133.242898 
L 135.693691 121.577804 
L 135.904533 174.416461 
L 136.115375 117.670635 
L 136.326216 122.240966 
L 136.537058 175.699487 
L 136.747899 151.080345 
L 136.958741 148.528886 
L 137.169582 176.423959 
L 137.591265 98.589318 
L 137.802107 157.734623 
L 138.012949 129.723221 
L 138.434632 163.758866 
L 138.645473 171.439027 
L 139.067156 157.78605 
L 139.277998 175.956716 
L 139.488839 157.055273 
L 139.699681 162.632224 
L 140.121364 145.242417 
L 140.332206 158.647372 
L 140.543047 156.195982 
L 140.753889 139.31532 
L 140.96473 154.125909 
L 141.175572 154.538849 
L 141.386413 161.274905 
L 141.597255 139.341396 
L 141.808097 161.089939 
L 142.018938 149.0421 
L 142.22978 163.856088 
L 142.440621 150.343397 
L 142.651463 153.908838 
L 143.073146 166.619204 
L 143.283987 143.702518 
L 143.494829 163.273135 
L 143.916512 153.554745 
L 144.127354 140.03944 
L 144.338195 156.927646 
L 144.549037 139.991025 
L 144.759878 158.966309 
L 144.97072 129.892213 
L 145.392403 154.704857 
L 145.603244 149.617668 
L 145.814086 150.217637 
L 146.446611 164.195719 
L 146.657452 166.231388 
L 146.868294 146.361381 
L 147.079135 164.564527 
L 147.289977 147.713328 
L 147.500818 174.042753 
L 147.71166 164.019678 
L 147.922502 144.100035 
L 148.133343 147.953101 
L 148.344185 146.72705 
L 148.555026 142.778951 
L 148.765868 149.883876 
L 148.976709 162.402005 
L 149.187551 157.780069 
L 149.398392 131.788458 
L 149.609234 165.2009 
L 149.820076 132.591591 
L 150.030917 176.423959 
L 150.241759 173.066378 
L 150.4526 167.85438 
L 150.663442 153.246115 
L 150.874283 168.230429 
L 151.085125 131.260847 
L 151.506808 162.426487 
L 151.71765 147.166143 
L 151.928491 169.348341 
L 152.139333 165.956946 
L 152.350174 151.313756 
L 152.561016 109.522398 
L 152.771857 165.138281 
L 152.982699 161.829194 
L 153.19354 161.010852 
L 153.404382 154.125472 
L 153.615223 161.539038 
L 153.826065 137.668629 
L 154.036907 169.36061 
L 154.247748 164.454716 
L 154.45859 146.529277 
L 154.669431 159.371658 
L 155.091114 124.28003 
L 155.301956 161.229651 
L 155.512797 142.490033 
L 155.934481 167.587782 
L 156.145322 142.304133 
L 156.356164 163.401372 
L 156.567005 153.302179 
L 156.777847 162.822005 
L 156.988688 146.393976 
L 157.19953 172.449815 
L 157.410371 164.263192 
L 157.621213 139.24127 
L 157.832055 169.374085 
L 158.042896 157.862091 
L 158.253738 122.857408 
L 158.464579 161.291773 
L 158.675421 173.701029 
L 159.097104 146.919934 
L 159.307945 166.627997 
L 159.518787 125.126572 
L 159.729629 169.130186 
L 159.94047 160.399749 
L 160.151312 162.058436 
L 160.362153 127.077767 
L 160.572995 176.423959 
L 160.783836 163.290201 
L 160.994678 167.536264 
L 161.205519 159.70101 
L 161.416361 166.342941 
L 161.627203 166.332228 
L 161.838044 133.597111 
L 162.048886 139.536657 
L 162.259727 162.633982 
L 162.470569 163.696207 
L 162.68141 151.564214 
L 162.892252 157.364254 
L 163.103093 159.08387 
L 163.313935 166.802251 
L 163.524777 167.053547 
L 163.735618 142.075195 
L 163.94646 151.977767 
L 164.157301 172.292792 
L 164.368143 146.04824 
L 164.578984 169.506512 
L 164.789826 173.693641 
L 165.000667 164.696557 
L 165.211509 142.812196 
L 165.42235 171.273786 
L 165.633192 156.358913 
L 165.844034 167.434964 
L 166.054875 159.191874 
L 166.476558 172.135583 
L 166.898241 166.803573 
L 167.109083 172.845557 
L 167.319924 172.504977 
L 167.530766 173.440783 
L 167.741608 161.425475 
L 167.952449 166.466916 
L 168.163291 158.627404 
L 168.374132 161.631712 
L 168.584974 176.423959 
L 168.795815 159.531412 
L 169.006657 169.113342 
L 169.217498 126.974197 
L 169.42834 159.576971 
L 169.639182 147.12143 
L 169.850023 170.31866 
L 170.060865 151.465554 
L 170.271706 159.673346 
L 170.482548 147.63557 
L 170.693389 168.903811 
L 170.904231 176.423959 
L 171.115072 153.947074 
L 171.325914 161.268951 
L 171.536756 148.667232 
L 171.747597 166.43857 
L 171.958439 147.663868 
L 172.590963 167.899749 
L 172.801805 164.47289 
L 173.012646 143.670693 
L 173.43433 172.764347 
L 173.645171 144.120121 
L 173.856013 171.555727 
L 174.066854 149.838455 
L 174.277696 147.514604 
L 174.488537 173.230727 
L 174.699379 162.899125 
L 174.91022 167.808665 
L 175.331903 160.842974 
L 175.542745 146.199421 
L 175.753587 167.776923 
L 175.964428 175.787381 
L 176.17527 156.046018 
L 176.386111 162.124644 
L 176.596953 151.386358 
L 176.807794 147.529039 
L 177.018636 166.646271 
L 177.229477 140.921789 
L 177.440319 160.85219 
L 177.651161 159.260671 
L 178.072844 172.911652 
L 178.283685 176.423959 
L 178.494527 165.08807 
L 178.91621 173.726332 
L 179.127051 157.748657 
L 179.337893 164.461537 
L 179.759576 165.648656 
L 179.970418 165.670689 
L 180.392101 161.484981 
L 180.602942 153.464444 
L 180.813784 157.492973 
L 181.024625 142.603556 
L 181.235467 148.41888 
L 181.446309 166.599866 
L 181.867992 146.695807 
L 182.289675 166.65853 
L 182.500516 175.132571 
L 182.711358 165.429389 
L 182.922199 162.792568 
L 183.133041 133.866003 
L 183.554724 171.578168 
L 183.765566 175.217099 
L 183.976407 176.423959 
L 184.187249 170.114847 
L 184.39809 170.704223 
L 184.608932 134.38519 
L 184.819773 136.27025 
L 185.030615 171.647383 
L 185.241457 165.584945 
L 185.452298 165.929642 
L 185.66314 162.037677 
L 185.873981 167.938011 
L 186.084823 162.992324 
L 186.295664 176.423959 
L 186.506506 145.545859 
L 186.717347 174.174321 
L 186.928189 164.485377 
L 187.13903 167.642722 
L 187.560714 160.320453 
L 187.771555 148.792121 
L 187.982397 176.423959 
L 188.193238 168.236121 
L 188.40408 136.600985 
L 188.614921 164.577966 
L 188.825763 168.96964 
L 189.036604 164.093358 
L 189.247446 174.58824 
L 189.458288 176.423959 
L 189.669129 176.423959 
L 189.879971 169.103184 
L 190.090812 152.849149 
L 190.301654 152.721227 
L 190.512495 145.213728 
L 190.723337 176.423959 
L 190.934178 72.777393 
L 191.14502 155.003623 
L 191.355862 155.852008 
L 191.566703 152.206667 
L 191.777545 171.769604 
L 191.988386 166.531412 
L 192.199228 169.918953 
L 192.410069 145.209266 
L 192.620911 170.167377 
L 192.831752 176.423959 
L 193.042594 159.202621 
L 193.253436 165.406082 
L 193.464277 176.423959 
L 193.675119 173.565323 
L 193.88596 173.000607 
L 194.096802 165.079815 
L 194.307643 164.907843 
L 194.518485 111.939337 
L 194.940168 164.804297 
L 195.15101 147.481043 
L 195.361851 167.563077 
L 195.572693 175.274499 
L 195.783534 145.91041 
L 195.994376 163.926807 
L 196.416059 167.164989 
L 196.6269 165.69484 
L 196.837742 165.955899 
L 197.048583 161.079667 
L 197.259425 176.423959 
L 197.470267 124.369868 
L 197.681108 165.305091 
L 197.89195 171.587084 
L 198.102791 156.602993 
L 198.524474 171.387803 
L 198.735316 130.917471 
L 198.946157 163.059716 
L 199.156999 176.423959 
L 199.367841 166.446289 
L 199.578682 145.691542 
L 199.789524 171.634929 
L 200.000365 173.846608 
L 200.211207 171.296184 
L 200.422048 175.869621 
L 200.63289 139.039151 
L 200.843731 165.549968 
L 201.054573 156.836471 
L 201.265415 157.26023 
L 201.476256 169.428991 
L 201.687098 171.746655 
L 201.897939 171.410171 
L 202.108781 141.528226 
L 202.530464 167.337322 
L 202.741305 168.181994 
L 202.952147 109.641285 
L 203.162989 167.237617 
L 203.37383 170.511469 
L 203.584672 176.423959 
L 203.795513 176.423959 
L 204.006355 163.523165 
L 204.217196 161.710922 
L 204.428038 155.755549 
L 204.849721 113.200632 
L 205.271404 172.718196 
L 205.482246 163.356136 
L 205.693087 139.991781 
L 205.903929 160.820603 
L 206.11477 154.837109 
L 206.325612 162.388556 
L 206.536453 165.192602 
L 206.747295 165.089328 
L 206.958136 160.881504 
L 207.168978 172.969661 
L 207.37982 175.084657 
L 207.590661 151.532266 
L 207.801503 172.736275 
L 208.223186 155.714985 
L 208.434027 167.217306 
L 208.644869 158.997541 
L 208.85571 143.715208 
L 209.066552 162.630574 
L 209.277394 167.003058 
L 209.488235 144.081751 
L 209.699077 161.993314 
L 209.909918 166.714184 
L 210.12076 133.223831 
L 210.331601 142.817886 
L 210.542443 126.595669 
L 210.753284 165.953226 
L 210.964126 168.236711 
L 211.174968 166.038502 
L 211.385809 149.63594 
L 211.596651 162.780247 
L 211.807492 144.860995 
L 212.018334 155.758078 
L 212.229175 142.84183 
L 212.440017 168.689606 
L 212.650858 167.210939 
L 212.8617 159.7279 
L 213.072542 159.80388 
L 213.283383 163.683435 
L 213.494225 175.267894 
L 213.705066 129.137604 
L 213.915908 176.423959 
L 214.126749 145.152615 
L 214.548432 175.689417 
L 214.970116 164.101968 
L 215.180957 164.811249 
L 215.391799 141.82814 
L 216.024323 176.007244 
L 216.235165 157.224852 
L 216.446006 168.909953 
L 216.656848 166.746147 
L 216.86769 171.041966 
L 217.078531 147.281189 
L 217.289373 156.704429 
L 217.500214 145.292845 
L 217.711056 154.623473 
L 217.921897 173.006949 
L 218.132739 170.241161 
L 218.34358 175.26085 
L 218.554422 154.801508 
L 218.976105 173.668726 
L 219.186947 166.588217 
L 219.397788 138.90084 
L 219.60863 144.044472 
L 219.819471 129.372809 
L 220.030313 170.189564 
L 220.451996 143.31881 
L 220.662837 171.50839 
L 220.873679 176.423959 
L 221.084521 175.245509 
L 221.295362 164.41985 
L 221.506204 169.817131 
L 221.717045 166.942545 
L 221.927887 151.519417 
L 222.138728 164.018647 
L 222.34957 138.616606 
L 222.560411 160.044635 
L 222.771253 159.482332 
L 222.982095 166.152458 
L 223.192936 137.642435 
L 223.403778 146.757057 
L 223.614619 163.175946 
L 223.825461 152.960736 
L 224.036302 162.989084 
L 224.247144 151.610039 
L 224.457985 168.594929 
L 224.668827 169.025937 
L 224.879669 89.051462 
L 225.09051 162.607156 
L 225.301352 143.053904 
L 225.512193 166.800591 
L 225.723035 161.675256 
L 225.933876 161.37302 
L 226.144718 159.106863 
L 226.566401 139.571222 
L 226.777243 174.176186 
L 226.988084 153.868098 
L 227.198926 152.81051 
L 227.409767 126.933136 
L 227.83145 173.095539 
L 228.042292 173.87466 
L 228.253133 164.137659 
L 228.463975 172.791214 
L 228.674816 153.2001 
L 228.885658 146.237275 
L 229.307341 160.305757 
L 229.518183 176.423959 
L 229.729024 176.423959 
L 229.939866 149.76546 
L 230.150707 145.417808 
L 230.361549 169.96013 
L 230.57239 167.72367 
L 230.783232 129.502201 
L 230.994074 174.465711 
L 231.204915 168.327647 
L 231.415757 170.517219 
L 231.626598 136.288171 
L 231.83744 175.066764 
L 232.259123 142.849443 
L 232.469964 160.558335 
L 233.102489 144.794676 
L 233.313331 175.29688 
L 233.524172 154.372728 
L 233.945855 166.257956 
L 234.156697 166.072292 
L 234.367538 153.137334 
L 234.57838 165.070851 
L 234.789222 140.025969 
L 235.000063 174.48602 
L 235.210905 166.563518 
L 235.421746 165.18443 
L 235.632588 137.510819 
L 235.843429 165.662311 
L 236.054271 134.713197 
L 236.265112 153.59784 
L 236.475954 154.634084 
L 236.686796 158.227278 
L 236.897637 79.788221 
L 237.108479 176.423959 
L 237.31932 176.423959 
L 237.530162 168.579939 
L 237.741003 175.190572 
L 237.951845 171.219982 
L 238.162686 161.020445 
L 238.373528 137.499547 
L 238.58437 170.098759 
L 238.795211 124.501531 
L 239.006053 155.119543 
L 239.216894 164.439271 
L 239.427736 166.996421 
L 239.638577 166.09835 
L 239.849419 154.328204 
L 240.06026 162.794185 
L 240.271102 163.582929 
L 240.481943 158.949757 
L 240.692785 150.482924 
L 240.903627 172.302115 
L 241.114468 158.578334 
L 241.32531 156.712019 
L 241.536151 128.800396 
L 241.746993 157.654579 
L 241.957834 155.851617 
L 242.168676 131.415502 
L 242.379517 137.281865 
L 242.590359 160.060882 
L 242.801201 160.401019 
L 243.012042 156.146784 
L 243.222884 149.109771 
L 243.433725 164.482893 
L 243.644567 149.562508 
L 243.855408 165.337603 
L 244.06625 172.14295 
L 244.277091 151.363371 
L 244.698775 169.477982 
L 244.909616 152.711869 
L 245.120458 156.550063 
L 245.331299 140.198064 
L 245.542141 173.302176 
L 245.752982 163.792591 
L 245.963824 165.560311 
L 246.174665 176.423959 
L 246.385507 162.515043 
L 246.596349 169.485385 
L 246.80719 160.256685 
L 247.018032 161.087049 
L 247.228873 146.199328 
L 247.439715 100.654518 
L 247.650556 148.474387 
L 247.861398 164.948016 
L 248.072239 155.593143 
L 248.283081 176.423959 
L 248.493923 162.636863 
L 248.704764 172.512865 
L 248.915606 166.165629 
L 249.126447 140.947867 
L 249.337289 176.423959 
L 249.54813 154.361408 
L 249.758972 161.567964 
L 249.969813 124.75786 
L 250.602338 167.744765 
L 250.81318 174.822032 
L 251.024021 127.911729 
L 251.234863 147.629081 
L 251.445704 156.25599 
L 251.656546 159.56452 
L 251.867387 102.415813 
L 252.078229 176.423959 
L 252.28907 141.005115 
L 252.499912 169.167147 
L 252.710754 176.423959 
L 252.921595 168.264782 
L 253.132437 164.495363 
L 253.343278 135.215966 
L 253.55412 176.423959 
L 253.764961 163.059448 
L 253.975803 161.102556 
L 254.186644 168.83336 
L 254.397486 154.556888 
L 254.608328 158.096023 
L 254.819169 157.382087 
L 255.030011 153.020883 
L 255.240852 166.395675 
L 255.451694 147.747886 
L 255.662535 176.423959 
L 255.873377 138.71868 
L 256.29506 176.423959 
L 256.716743 112.001869 
L 256.927585 160.297587 
L 257.138426 162.928073 
L 257.349268 168.966956 
L 257.560109 160.316633 
L 257.770951 162.456816 
L 257.981792 150.550996 
L 258.192634 172.414766 
L 258.403476 159.958152 
L 258.614317 171.066736 
L 258.825159 154.957821 
L 259.036 172.84092 
L 259.246842 168.018097 
L 259.457683 137.321349 
L 259.668525 165.923228 
L 259.879366 167.222874 
L 260.090208 165.191114 
L 260.301049 176.210641 
L 260.511891 164.265452 
L 260.722733 158.99798 
L 260.933574 126.731428 
L 261.144416 161.214226 
L 261.566099 169.623601 
L 261.77694 148.094401 
L 261.987782 141.585288 
L 262.198623 168.273314 
L 262.409465 162.258329 
L 262.620307 172.540653 
L 262.831148 157.554037 
L 263.252831 172.972252 
L 263.463673 145.534874 
L 263.674514 145.035066 
L 263.885356 176.423959 
L 264.096197 138.497424 
L 264.307039 172.238352 
L 264.517881 147.989617 
L 264.728722 142.711497 
L 264.939564 158.945622 
L 265.150405 166.128535 
L 265.361247 142.232987 
L 265.572088 147.507787 
L 265.78293 165.148754 
L 265.993771 117.974563 
L 266.204613 170.741916 
L 266.415455 162.256093 
L 266.415455 162.256093 
" clip-path="url(#p0c0404a4f0)" style="fill: none; stroke: #20b2aa; stroke-width: 1.5; stroke-linecap: square"/>
   </g>
   <g id="line2d_15">
    <path d="M 50.724545 180.059995 
L 183.765566 180.059997 
L 183.976407 179.887652 
L 184.187249 180.059931 
L 235.421746 180.06 
L 235.632588 178.380897 
L 235.843429 180.06 
L 236.686796 180.06 
L 236.897637 175.931841 
L 237.108479 180.059913 
L 248.072239 180.059999 
L 248.283081 179.094699 
L 248.493923 180.059992 
L 265.78293 180.06 
L 265.993771 176.315979 
L 266.204613 180.059875 
L 266.415455 180.059999 
L 266.415455 180.059999 
" clip-path="url(#p0c0404a4f0)" style="fill: none; stroke: #4169e1; stroke-opacity: 0.8; stroke-width: 1.5; stroke-linecap: square"/>
   </g>
   <g id="patch_3">
    <path d="M 39.94 188.12 
L 39.94 10.8 
" style="fill: none; stroke: #000000; stroke-width: 1.5; stroke-linejoin: miter; stroke-linecap: square"/>
   </g>
   <g id="patch_4">
    <path d="M 277.2 188.12 
L 277.2 10.8 
" style="fill: none; stroke: #000000; stroke-width: 1.5; stroke-linejoin: miter; stroke-linecap: square"/>
   </g>
   <g id="patch_5">
    <path d="M 39.94 188.12 
L 277.2 188.12 
" style="fill: none; stroke: #000000; stroke-width: 1.5; stroke-linejoin: miter; stroke-linecap: square"/>
   </g>
   <g id="patch_6">
    <path d="M 39.94 10.8 
L 277.2 10.8 
" style="fill: none; stroke: #000000; stroke-width: 1.5; stroke-linejoin: miter; stroke-linecap: square"/>
   </g>
   <g id="legend_1">
    <g id="patch_7">
     <path d="M 44.84 184.62 
L 81.7125 184.62 
Q 83.1125 184.62 83.1125 183.22 
L 83.1125 163.370625 
Q 83.1125 161.970625 81.7125 161.970625 
L 44.84 161.970625 
Q 43.44 161.970625 43.44 163.370625 
L 43.44 183.22 
Q 43.44 184.62 44.84 184.62 
z
" style="fill: #ffffff; opacity: 0.8; stroke: #000000; stroke-width: 1.5; stroke-linejoin: miter"/>
    </g>
    <g id="line2d_16">
     <path d="M 46.24 167.639531 
L 53.24 167.639531 
L 60.24 167.639531 
" style="fill: none; stroke: #20b2aa; stroke-width: 1.5; stroke-linecap: square"/>
    </g>
    <g id="text_14">
     <!-- Max -->
     <g transform="translate(65.84 170.089531)scale(0.07 -0.07)">
      <defs>
       <path id="DejaVuSans-4d" d="M 628 4666 
L 1569 4666 
L 2759 1491 
L 3956 4666 
L 4897 4666 
L 4897 0 
L 4281 0 
L 4281 4097 
L 3078 897 
L 2444 897 
L 1241 4097 
L 1241 0 
L 628 0 
L 628 4666 
z
" transform="scale(0.015625)"/>
       <path id="DejaVuSans-61" d="M 2194 1759 
Q 1497 1759 1228 1600 
Q 959 1441 959 1056 
Q 959 750 1161 570 
Q 1363 391 1709 391 
Q 2188 391 2477 730 
Q 2766 1069 2766 1631 
L 2766 1759 
L 2194 1759 
z
M 3341 1997 
L 3341 0 
L 2766 0 
L 2766 531 
Q 2569 213 2275 61 
Q 1981 -91 1556 -91 
Q 1019 -91 701 211 
Q 384 513 384 1019 
Q 384 1609 779 1909 
Q 1175 2209 1959 2209 
L 2766 2209 
L 2766 2266 
Q 2766 2663 2505 2880 
Q 2244 3097 1772 3097 
Q 1472 3097 1187 3025 
Q 903 2953 641 2809 
L 641 3341 
Q 956 3463 1253 3523 
Q 1550 3584 1831 3584 
Q 2591 3584 2966 3190 
Q 3341 2797 3341 1997 
z
" transform="scale(0.015625)"/>
       <path id="DejaVuSans-78" d="M 3513 3500 
L 2247 1797 
L 3578 0 
L 2900 0 
L 1881 1375 
L 863 0 
L 184 0 
L 1544 1831 
L 300 3500 
L 978 3500 
L 1906 2253 
L 2834 3500 
L 3513 3500 
z
" transform="scale(0.015625)"/>
      </defs>
      <use xlink:href="#DejaVuSans-4d"/>
      <use xlink:href="#DejaVuSans-61" x="86.279297"/>
      <use xlink:href="#DejaVuSans-78" x="147.558594"/>
     </g>
    </g>
    <g id="line2d_17">
     <path d="M 46.24 177.914219 
L 53.24 177.914219 
L 60.24 177.914219 
" style="fill: none; stroke: #4169e1; stroke-opacity: 0.8; stroke-width: 1.5; stroke-linecap: square"/>
    </g>
    <g id="text_15">
     <!-- Min -->
     <g transform="translate(65.84 180.364219)scale(0.07 -0.07)">
      <defs>
       <path id="DejaVuSans-69" d="M 603 3500 
L 1178 3500 
L 1178 0 
L 603 0 
L 603 3500 
z
M 603 4863 
L 1178 4863 
L 1178 4134 
L 603 4134 
L 603 4863 
z
" transform="scale(0.015625)"/>
       <path id="DejaVuSans-6e" d="M 3513 2113 
L 3513 0 
L 2938 0 
L 2938 2094 
Q 2938 2591 2744 2837 
Q 2550 3084 2163 3084 
Q 1697 3084 1428 2787 
Q 1159 2491 1159 1978 
L 1159 0 
L 581 0 
L 581 3500 
L 1159 3500 
L 1159 2956 
Q 1366 3272 1645 3428 
Q 1925 3584 2291 3584 
Q 2894 3584 3203 3211 
Q 3513 2838 3513 2113 
z
" transform="scale(0.015625)"/>
      </defs>
      <use xlink:href="#DejaVuSans-4d"/>
      <use xlink:href="#DejaVuSans-69" x="86.279297"/>
      <use xlink:href="#DejaVuSans-6e" x="114.0625"/>
     </g>
    </g>
   </g>
  </g>
 </g>
 <defs>
  <clipPath id="p0c0404a4f0">
   <rect x="39.94" y="10.8" width="237.26" height="177.32"/>
  </clipPath>
 </defs>
</svg>
