<?xml version="1.0" encoding="utf-8" standalone="no"?>
<!DOCTYPE svg PUBLIC "-//W3C//DTD SVG 1.1//EN"
  "http://www.w3.org/Graphics/SVG/1.1/DTD/svg11.dtd">
<svg xmlns:xlink="http://www.w3.org/1999/xlink" width="288pt" height="216pt" viewBox="0 0 288 216" xmlns="http://www.w3.org/2000/svg" version="1.1">
 <metadata>
  <rdf:RDF xmlns:dc="http://purl.org/dc/elements/1.1/" xmlns:cc="http://creativecommons.org/ns#" xmlns:rdf="http://www.w3.org/1999/02/22-rdf-syntax-ns#">
   <cc:Work>
    <dc:type rdf:resource="http://purl.org/dc/dcmitype/StillImage"/>
    <dc:date>2023-07-07T20:46:02.494761</dc:date>
    <dc:format>image/svg+xml</dc:format>
    <dc:creator>
     <cc:Agent>
      <dc:title>Matplotlib v3.5.2, https://matplotlib.org/</dc:title>
     </cc:Agent>
    </dc:creator>
   </cc:Work>
  </rdf:RDF>
 </metadata>
 <defs>
  <style type="text/css">*{stroke-linejoin: round; stroke-linecap: butt}</style>
 </defs>
 <g id="figure_1">
  <g id="patch_1">
   <path d="M 0 216 
L 288 216 
L 288 0 
L 0 0 
z
" style="fill: #ffffff"/>
  </g>
  <g id="axes_1">
   <g id="patch_2">
    <path d="M 41.92 188.12 
L 277.2 188.12 
L 277.2 10.8 
L 41.92 10.8 
z
" style="fill: #ffffff"/>
   </g>
   <g id="matplotlib.axis_1">
    <g id="xtick_1">
     <g id="line2d_1">
      <defs>
       <path id="md846d4339f" d="M 0 0 
L 0 3.5 
" style="stroke: #000000; stroke-width: 0.8"/>
      </defs>
      <g>
       <use xlink:href="#md846d4339f" x="52.614545" y="188.12" style="stroke: #000000; stroke-width: 0.8"/>
      </g>
     </g>
     <g id="text_1">
      <!-- 0 -->
      <g transform="translate(49.433295 202.718437)scale(0.1 -0.1)">
       <defs>
        <path id="DejaVuSans-30" d="M 2034 4250 
Q 1547 4250 1301 3770 
Q 1056 3291 1056 2328 
Q 1056 1369 1301 889 
Q 1547 409 2034 409 
Q 2525 409 2770 889 
Q 3016 1369 3016 2328 
Q 3016 3291 2770 3770 
Q 2525 4250 2034 4250 
z
M 2034 4750 
Q 2819 4750 3233 4129 
Q 3647 3509 3647 2328 
Q 3647 1150 3233 529 
Q 2819 -91 2034 -91 
Q 1250 -91 836 529 
Q 422 1150 422 2328 
Q 422 3509 836 4129 
Q 1250 4750 2034 4750 
z
" transform="scale(0.015625)"/>
       </defs>
       <use xlink:href="#DejaVuSans-30"/>
      </g>
     </g>
    </g>
    <g id="xtick_2">
     <g id="line2d_2">
      <g>
       <use xlink:href="#md846d4339f" x="94.43095" y="188.12" style="stroke: #000000; stroke-width: 0.8"/>
      </g>
     </g>
     <g id="text_2">
      <!-- 200 -->
      <g transform="translate(84.8872 202.718437)scale(0.1 -0.1)">
       <defs>
        <path id="DejaVuSans-32" d="M 1228 531 
L 3431 531 
L 3431 0 
L 469 0 
L 469 531 
Q 828 903 1448 1529 
Q 2069 2156 2228 2338 
Q 2531 2678 2651 2914 
Q 2772 3150 2772 3378 
Q 2772 3750 2511 3984 
Q 2250 4219 1831 4219 
Q 1534 4219 1204 4116 
Q 875 4013 500 3803 
L 500 4441 
Q 881 4594 1212 4672 
Q 1544 4750 1819 4750 
Q 2544 4750 2975 4387 
Q 3406 4025 3406 3419 
Q 3406 3131 3298 2873 
Q 3191 2616 2906 2266 
Q 2828 2175 2409 1742 
Q 1991 1309 1228 531 
z
" transform="scale(0.015625)"/>
       </defs>
       <use xlink:href="#DejaVuSans-32"/>
       <use xlink:href="#DejaVuSans-30" x="63.623047"/>
       <use xlink:href="#DejaVuSans-30" x="127.246094"/>
      </g>
     </g>
    </g>
    <g id="xtick_3">
     <g id="line2d_3">
      <g>
       <use xlink:href="#md846d4339f" x="136.247354" y="188.12" style="stroke: #000000; stroke-width: 0.8"/>
      </g>
     </g>
     <g id="text_3">
      <!-- 400 -->
      <g transform="translate(126.703604 202.718437)scale(0.1 -0.1)">
       <defs>
        <path id="DejaVuSans-34" d="M 2419 4116 
L 825 1625 
L 2419 1625 
L 2419 4116 
z
M 2253 4666 
L 3047 4666 
L 3047 1625 
L 3713 1625 
L 3713 1100 
L 3047 1100 
L 3047 0 
L 2419 0 
L 2419 1100 
L 313 1100 
L 313 1709 
L 2253 4666 
z
" transform="scale(0.015625)"/>
       </defs>
       <use xlink:href="#DejaVuSans-34"/>
       <use xlink:href="#DejaVuSans-30" x="63.623047"/>
       <use xlink:href="#DejaVuSans-30" x="127.246094"/>
      </g>
     </g>
    </g>
    <g id="xtick_4">
     <g id="line2d_4">
      <g>
       <use xlink:href="#md846d4339f" x="178.063759" y="188.12" style="stroke: #000000; stroke-width: 0.8"/>
      </g>
     </g>
     <g id="text_4">
      <!-- 600 -->
      <g transform="translate(168.520009 202.718437)scale(0.1 -0.1)">
       <defs>
        <path id="DejaVuSans-36" d="M 2113 2584 
Q 1688 2584 1439 2293 
Q 1191 2003 1191 1497 
Q 1191 994 1439 701 
Q 1688 409 2113 409 
Q 2538 409 2786 701 
Q 3034 994 3034 1497 
Q 3034 2003 2786 2293 
Q 2538 2584 2113 2584 
z
M 3366 4563 
L 3366 3988 
Q 3128 4100 2886 4159 
Q 2644 4219 2406 4219 
Q 1781 4219 1451 3797 
Q 1122 3375 1075 2522 
Q 1259 2794 1537 2939 
Q 1816 3084 2150 3084 
Q 2853 3084 3261 2657 
Q 3669 2231 3669 1497 
Q 3669 778 3244 343 
Q 2819 -91 2113 -91 
Q 1303 -91 875 529 
Q 447 1150 447 2328 
Q 447 3434 972 4092 
Q 1497 4750 2381 4750 
Q 2619 4750 2861 4703 
Q 3103 4656 3366 4563 
z
" transform="scale(0.015625)"/>
       </defs>
       <use xlink:href="#DejaVuSans-36"/>
       <use xlink:href="#DejaVuSans-30" x="63.623047"/>
       <use xlink:href="#DejaVuSans-30" x="127.246094"/>
      </g>
     </g>
    </g>
    <g id="xtick_5">
     <g id="line2d_5">
      <g>
       <use xlink:href="#md846d4339f" x="219.880164" y="188.12" style="stroke: #000000; stroke-width: 0.8"/>
      </g>
     </g>
     <g id="text_5">
      <!-- 800 -->
      <g transform="translate(210.336414 202.718437)scale(0.1 -0.1)">
       <defs>
        <path id="DejaVuSans-38" d="M 2034 2216 
Q 1584 2216 1326 1975 
Q 1069 1734 1069 1313 
Q 1069 891 1326 650 
Q 1584 409 2034 409 
Q 2484 409 2743 651 
Q 3003 894 3003 1313 
Q 3003 1734 2745 1975 
Q 2488 2216 2034 2216 
z
M 1403 2484 
Q 997 2584 770 2862 
Q 544 3141 544 3541 
Q 544 4100 942 4425 
Q 1341 4750 2034 4750 
Q 2731 4750 3128 4425 
Q 3525 4100 3525 3541 
Q 3525 3141 3298 2862 
Q 3072 2584 2669 2484 
Q 3125 2378 3379 2068 
Q 3634 1759 3634 1313 
Q 3634 634 3220 271 
Q 2806 -91 2034 -91 
Q 1263 -91 848 271 
Q 434 634 434 1313 
Q 434 1759 690 2068 
Q 947 2378 1403 2484 
z
M 1172 3481 
Q 1172 3119 1398 2916 
Q 1625 2713 2034 2713 
Q 2441 2713 2670 2916 
Q 2900 3119 2900 3481 
Q 2900 3844 2670 4047 
Q 2441 4250 2034 4250 
Q 1625 4250 1398 4047 
Q 1172 3844 1172 3481 
z
" transform="scale(0.015625)"/>
       </defs>
       <use xlink:href="#DejaVuSans-38"/>
       <use xlink:href="#DejaVuSans-30" x="63.623047"/>
       <use xlink:href="#DejaVuSans-30" x="127.246094"/>
      </g>
     </g>
    </g>
    <g id="xtick_6">
     <g id="line2d_6">
      <g>
       <use xlink:href="#md846d4339f" x="261.696568" y="188.12" style="stroke: #000000; stroke-width: 0.8"/>
      </g>
     </g>
     <g id="text_6">
      <!-- 1000 -->
      <g transform="translate(248.971568 202.718437)scale(0.1 -0.1)">
       <defs>
        <path id="DejaVuSans-31" d="M 794 531 
L 1825 531 
L 1825 4091 
L 703 3866 
L 703 4441 
L 1819 4666 
L 2450 4666 
L 2450 531 
L 3481 531 
L 3481 0 
L 794 0 
L 794 531 
z
" transform="scale(0.015625)"/>
       </defs>
       <use xlink:href="#DejaVuSans-31"/>
       <use xlink:href="#DejaVuSans-30" x="63.623047"/>
       <use xlink:href="#DejaVuSans-30" x="127.246094"/>
       <use xlink:href="#DejaVuSans-30" x="190.869141"/>
      </g>
     </g>
    </g>
   </g>
   <g id="matplotlib.axis_2">
    <g id="ytick_1">
     <g id="line2d_7">
      <defs>
       <path id="ma74ca94bf7" d="M 0 0 
L -3.5 0 
" style="stroke: #000000; stroke-width: 0.8"/>
      </defs>
      <g>
       <use xlink:href="#ma74ca94bf7" x="41.92" y="185.952587" style="stroke: #000000; stroke-width: 0.8"/>
      </g>
     </g>
     <g id="text_7">
      <!-- −0.5 -->
      <g transform="translate(10.637187 189.751806)scale(0.1 -0.1)">
       <defs>
        <path id="DejaVuSans-2212" d="M 678 2272 
L 4684 2272 
L 4684 1741 
L 678 1741 
L 678 2272 
z
" transform="scale(0.015625)"/>
        <path id="DejaVuSans-2e" d="M 684 794 
L 1344 794 
L 1344 0 
L 684 0 
L 684 794 
z
" transform="scale(0.015625)"/>
        <path id="DejaVuSans-35" d="M 691 4666 
L 3169 4666 
L 3169 4134 
L 1269 4134 
L 1269 2991 
Q 1406 3038 1543 3061 
Q 1681 3084 1819 3084 
Q 2600 3084 3056 2656 
Q 3513 2228 3513 1497 
Q 3513 744 3044 326 
Q 2575 -91 1722 -91 
Q 1428 -91 1123 -41 
Q 819 9 494 109 
L 494 744 
Q 775 591 1075 516 
Q 1375 441 1709 441 
Q 2250 441 2565 725 
Q 2881 1009 2881 1497 
Q 2881 1984 2565 2268 
Q 2250 2553 1709 2553 
Q 1456 2553 1204 2497 
Q 953 2441 691 2322 
L 691 4666 
z
" transform="scale(0.015625)"/>
       </defs>
       <use xlink:href="#DejaVuSans-2212"/>
       <use xlink:href="#DejaVuSans-30" x="83.789062"/>
       <use xlink:href="#DejaVuSans-2e" x="147.412109"/>
       <use xlink:href="#DejaVuSans-35" x="179.199219"/>
      </g>
     </g>
    </g>
    <g id="ytick_2">
     <g id="line2d_8">
      <g>
       <use xlink:href="#ma74ca94bf7" x="41.92" y="162.382239" style="stroke: #000000; stroke-width: 0.8"/>
      </g>
     </g>
     <g id="text_8">
      <!-- 0.0 -->
      <g transform="translate(19.016875 166.181458)scale(0.1 -0.1)">
       <use xlink:href="#DejaVuSans-30"/>
       <use xlink:href="#DejaVuSans-2e" x="63.623047"/>
       <use xlink:href="#DejaVuSans-30" x="95.410156"/>
      </g>
     </g>
    </g>
    <g id="ytick_3">
     <g id="line2d_9">
      <g>
       <use xlink:href="#ma74ca94bf7" x="41.92" y="138.81189" style="stroke: #000000; stroke-width: 0.8"/>
      </g>
     </g>
     <g id="text_9">
      <!-- 0.5 -->
      <g transform="translate(19.016875 142.611109)scale(0.1 -0.1)">
       <use xlink:href="#DejaVuSans-30"/>
       <use xlink:href="#DejaVuSans-2e" x="63.623047"/>
       <use xlink:href="#DejaVuSans-35" x="95.410156"/>
      </g>
     </g>
    </g>
    <g id="ytick_4">
     <g id="line2d_10">
      <g>
       <use xlink:href="#ma74ca94bf7" x="41.92" y="115.241542" style="stroke: #000000; stroke-width: 0.8"/>
      </g>
     </g>
     <g id="text_10">
      <!-- 1.0 -->
      <g transform="translate(19.016875 119.040761)scale(0.1 -0.1)">
       <use xlink:href="#DejaVuSans-31"/>
       <use xlink:href="#DejaVuSans-2e" x="63.623047"/>
       <use xlink:href="#DejaVuSans-30" x="95.410156"/>
      </g>
     </g>
    </g>
    <g id="ytick_5">
     <g id="line2d_11">
      <g>
       <use xlink:href="#ma74ca94bf7" x="41.92" y="91.671194" style="stroke: #000000; stroke-width: 0.8"/>
      </g>
     </g>
     <g id="text_11">
      <!-- 1.5 -->
      <g transform="translate(19.016875 95.470413)scale(0.1 -0.1)">
       <use xlink:href="#DejaVuSans-31"/>
       <use xlink:href="#DejaVuSans-2e" x="63.623047"/>
       <use xlink:href="#DejaVuSans-35" x="95.410156"/>
      </g>
     </g>
    </g>
    <g id="ytick_6">
     <g id="line2d_12">
      <g>
       <use xlink:href="#ma74ca94bf7" x="41.92" y="68.100846" style="stroke: #000000; stroke-width: 0.8"/>
      </g>
     </g>
     <g id="text_12">
      <!-- 2.0 -->
      <g transform="translate(19.016875 71.900064)scale(0.1 -0.1)">
       <use xlink:href="#DejaVuSans-32"/>
       <use xlink:href="#DejaVuSans-2e" x="63.623047"/>
       <use xlink:href="#DejaVuSans-30" x="95.410156"/>
      </g>
     </g>
    </g>
    <g id="ytick_7">
     <g id="line2d_13">
      <g>
       <use xlink:href="#ma74ca94bf7" x="41.92" y="44.530497" style="stroke: #000000; stroke-width: 0.8"/>
      </g>
     </g>
     <g id="text_13">
      <!-- 2.5 -->
      <g transform="translate(19.016875 48.329716)scale(0.1 -0.1)">
       <use xlink:href="#DejaVuSans-32"/>
       <use xlink:href="#DejaVuSans-2e" x="63.623047"/>
       <use xlink:href="#DejaVuSans-35" x="95.410156"/>
      </g>
     </g>
    </g>
    <g id="ytick_8">
     <g id="line2d_14">
      <g>
       <use xlink:href="#ma74ca94bf7" x="41.92" y="20.960149" style="stroke: #000000; stroke-width: 0.8"/>
      </g>
     </g>
     <g id="text_14">
      <!-- 3.0 -->
      <g transform="translate(19.016875 24.759368)scale(0.1 -0.1)">
       <defs>
        <path id="DejaVuSans-33" d="M 2597 2516 
Q 3050 2419 3304 2112 
Q 3559 1806 3559 1356 
Q 3559 666 3084 287 
Q 2609 -91 1734 -91 
Q 1441 -91 1130 -33 
Q 819 25 488 141 
L 488 750 
Q 750 597 1062 519 
Q 1375 441 1716 441 
Q 2309 441 2620 675 
Q 2931 909 2931 1356 
Q 2931 1769 2642 2001 
Q 2353 2234 1838 2234 
L 1294 2234 
L 1294 2753 
L 1863 2753 
Q 2328 2753 2575 2939 
Q 2822 3125 2822 3475 
Q 2822 3834 2567 4026 
Q 2313 4219 1838 4219 
Q 1578 4219 1281 4162 
Q 984 4106 628 3988 
L 628 4550 
Q 988 4650 1302 4700 
Q 1616 4750 1894 4750 
Q 2613 4750 3031 4423 
Q 3450 4097 3450 3541 
Q 3450 3153 3228 2886 
Q 3006 2619 2597 2516 
z
" transform="scale(0.015625)"/>
       </defs>
       <use xlink:href="#DejaVuSans-33"/>
       <use xlink:href="#DejaVuSans-2e" x="63.623047"/>
       <use xlink:href="#DejaVuSans-30" x="95.410156"/>
      </g>
     </g>
    </g>
   </g>
   <g id="line2d_15">
    <path d="M 52.614545 177.861106 
L 52.823627 167.04056 
L 53.032709 175.303293 
L 53.241792 170.253541 
L 53.450874 127.961224 
L 53.659956 179.45892 
L 53.869038 167.793813 
L 54.07812 134.246759 
L 54.287202 179.628369 
L 54.496284 174.749368 
L 54.705366 177.250668 
L 54.914448 176.840079 
L 55.12353 179.69624 
L 55.332612 33.944458 
L 55.541694 179.884538 
L 55.750776 177.379409 
L 55.959858 179.89702 
L 56.16894 178.353587 
L 56.378022 179.552589 
L 56.587104 172.040065 
L 56.796186 177.622242 
L 57.005268 158.824398 
L 57.21435 171.87312 
L 57.423432 170.303626 
L 57.632514 167.806313 
L 57.841596 179.418519 
L 58.050678 169.023772 
L 58.468842 177.759456 
L 58.677924 173.970548 
L 58.887006 179.109178 
L 59.096088 172.640575 
L 59.30517 144.232548 
L 59.514252 173.093365 
L 59.723334 173.690961 
L 59.932416 171.125276 
L 60.141498 178.665514 
L 60.35058 150.380443 
L 60.768744 178.956899 
L 60.977826 171.807169 
L 61.186908 178.626729 
L 61.605072 173.886747 
L 61.814154 174.080005 
L 62.023236 179.344236 
L 62.232318 178.979061 
L 62.441401 164.837881 
L 62.650483 179.708822 
L 62.859565 172.035568 
L 63.068647 169.723854 
L 63.277729 179.465905 
L 63.486811 179.860384 
L 63.695893 170.491087 
L 63.904975 179.726396 
L 64.114057 171.353862 
L 64.323139 168.019215 
L 64.532221 162.117182 
L 64.741303 173.759072 
L 64.950385 175.27524 
L 65.159467 127.861678 
L 65.368549 178.050498 
L 65.577631 177.487495 
L 65.786713 179.49942 
L 65.995795 177.968185 
L 66.204877 179.160986 
L 66.413959 147.543493 
L 66.623041 174.164231 
L 66.832123 156.960588 
L 67.041205 179.567571 
L 67.250287 168.074258 
L 67.459369 179.968084 
L 67.668451 165.867074 
L 68.086615 179.628171 
L 68.295697 174.888194 
L 68.504779 179.692004 
L 68.713861 178.253793 
L 68.922943 164.204385 
L 69.132025 160.711826 
L 69.341107 178.965688 
L 69.550189 179.569537 
L 69.759271 123.306603 
L 69.968353 179.662895 
L 70.177435 179.670846 
L 70.386517 179.363572 
L 70.595599 167.364552 
L 70.804681 179.249554 
L 71.013763 177.409326 
L 71.222845 179.576611 
L 71.431927 167.038638 
L 71.64101 179.629605 
L 71.850092 179.74797 
L 72.059174 177.541193 
L 72.268256 161.808737 
L 72.477338 178.854425 
L 72.68642 166.270247 
L 72.895502 177.245365 
L 73.104584 179.599747 
L 73.313666 169.311686 
L 73.522748 179.946926 
L 73.73183 179.625882 
L 73.940912 54.695179 
L 74.149994 178.911676 
L 74.359076 176.928299 
L 74.568158 170.563206 
L 74.77724 172.915353 
L 74.986322 169.853647 
L 75.195404 172.574143 
L 75.404486 168.190677 
L 75.613568 177.381619 
L 75.82265 174.005368 
L 76.031732 175.834883 
L 76.240814 168.895519 
L 76.449896 179.259849 
L 76.658978 167.061068 
L 76.86806 166.940984 
L 77.286224 178.878168 
L 77.495306 177.415999 
L 77.704388 167.073971 
L 77.91347 169.931477 
L 78.122552 165.956833 
L 78.331634 169.055508 
L 78.540716 157.397493 
L 78.749798 173.253197 
L 78.95888 158.133662 
L 79.167962 173.01335 
L 79.377044 178.396717 
L 79.586126 175.449379 
L 80.00429 163.899677 
L 80.213372 169.637589 
L 80.422454 179.674779 
L 80.631536 176.414526 
L 80.840619 179.563923 
L 81.049701 170.802865 
L 81.258783 173.11149 
L 81.467865 159.776108 
L 81.676947 179.92035 
L 81.886029 179.610677 
L 82.095111 167.781234 
L 82.304193 179.858767 
L 82.513275 178.941678 
L 82.722357 179.523937 
L 82.931439 163.659166 
L 83.140521 179.543842 
L 83.349603 177.554808 
L 83.558685 177.293828 
L 83.767767 166.756532 
L 83.976849 167.995354 
L 84.185931 179.986241 
L 84.395013 178.748779 
L 84.604095 173.100655 
L 84.813177 170.808917 
L 85.022259 171.28266 
L 85.231341 169.638146 
L 85.440423 179.032235 
L 85.649505 172.007237 
L 86.067669 178.353773 
L 86.276751 171.200793 
L 86.485833 110.854038 
L 86.694915 87.374177 
L 86.903997 175.584636 
L 87.113079 177.925776 
L 87.322161 178.383248 
L 87.531243 175.835951 
L 87.949407 169.075598 
L 88.367571 175.279427 
L 88.576653 169.892135 
L 88.994817 173.240935 
L 89.203899 169.374555 
L 89.412981 139.311132 
L 89.622063 178.792008 
L 89.831145 179.65849 
L 90.040227 179.173656 
L 90.24931 169.726011 
L 90.458392 147.479418 
L 90.667474 172.389286 
L 90.876556 173.689124 
L 91.085638 174.247279 
L 91.29472 176.201355 
L 91.503802 179.759368 
L 91.712884 175.67361 
L 91.921966 179.297703 
L 92.34013 173.834357 
L 92.549212 178.961423 
L 92.758294 177.890012 
L 92.967376 175.077492 
L 93.176458 179.311819 
L 93.38554 179.095942 
L 93.594622 177.224289 
L 93.803704 179.069835 
L 94.012786 170.179435 
L 94.221868 179.651247 
L 94.43095 170.995598 
L 94.849114 179.602828 
L 95.058196 171.659145 
L 95.267278 173.143465 
L 95.47636 177.671597 
L 95.685442 177.493622 
L 95.894524 172.489545 
L 96.103606 179.79046 
L 96.312688 164.187772 
L 96.52177 178.907501 
L 96.730852 170.260767 
L 96.939934 176.651258 
L 97.149016 130.260172 
L 97.358098 169.253971 
L 97.56718 170.887952 
L 97.776262 161.470138 
L 97.985344 168.773967 
L 98.821672 176.096511 
L 99.030754 166.461892 
L 99.239836 171.260121 
L 99.448919 178.642525 
L 99.658001 175.741215 
L 99.867083 179.963152 
L 100.076165 166.870943 
L 100.285247 175.276578 
L 100.494329 177.168887 
L 100.703411 158.030562 
L 100.912493 172.540592 
L 101.121575 177.45049 
L 101.330657 178.387031 
L 101.539739 175.203551 
L 101.748821 179.218402 
L 101.957903 168.032716 
L 102.166985 176.099901 
L 102.585149 164.911371 
L 102.794231 174.107037 
L 103.003313 170.284507 
L 103.212395 139.289795 
L 103.421477 179.807217 
L 103.630559 178.203365 
L 103.839641 19.268444 
L 104.048723 172.833281 
L 104.257805 178.034113 
L 104.466887 179.060657 
L 104.675969 174.450997 
L 104.885051 166.598419 
L 105.094133 178.311834 
L 105.303215 33.956326 
L 105.512297 168.89203 
L 105.721379 176.585526 
L 105.930461 172.151006 
L 106.139543 172.834478 
L 106.348625 179.173209 
L 106.557707 165.957911 
L 106.766789 174.398923 
L 106.975871 163.652862 
L 107.184953 179.056779 
L 107.394035 176.310428 
L 107.603117 148.157137 
L 107.812199 178.662603 
L 108.021281 171.452504 
L 108.230363 178.49006 
L 108.439445 174.823846 
L 108.648528 179.52249 
L 108.85761 179.96519 
L 109.066692 177.185288 
L 109.275774 178.456981 
L 109.484856 176.886694 
L 109.693938 178.788208 
L 109.90302 172.596798 
L 110.112102 162.422989 
L 110.321184 176.183375 
L 110.530266 167.332109 
L 110.739348 171.120707 
L 110.94843 170.617316 
L 111.157512 177.13927 
L 111.366594 178.900343 
L 111.575676 176.385353 
L 111.99384 163.602707 
L 112.202922 174.866053 
L 112.412004 136.165072 
L 112.830168 179.625756 
L 113.03925 175.799243 
L 113.248332 177.217596 
L 113.666496 170.563957 
L 113.875578 161.675097 
L 114.08466 170.588779 
L 114.293742 171.641704 
L 114.502824 171.78054 
L 114.711906 177.573671 
L 114.920988 169.265526 
L 115.13007 178.667993 
L 115.339152 172.445446 
L 115.548234 172.382663 
L 115.757316 153.560567 
L 116.17548 179.539229 
L 116.384562 168.024399 
L 116.593644 179.98137 
L 117.011808 161.452112 
L 117.22089 179.606524 
L 117.429972 176.141235 
L 117.639054 166.981242 
L 117.848136 177.389938 
L 118.057219 170.442929 
L 118.266301 179.283419 
L 118.475383 178.523502 
L 118.684465 178.743424 
L 118.893547 19.397156 
L 119.102629 173.421833 
L 119.311711 145.16623 
L 119.729875 166.313166 
L 119.938957 172.112125 
L 120.357121 176.813095 
L 120.566203 173.69738 
L 120.775285 174.702141 
L 120.984367 169.903136 
L 121.193449 173.768806 
L 121.402531 179.945703 
L 121.611613 158.72616 
L 121.820695 173.003293 
L 122.029777 169.00192 
L 122.657023 178.632168 
L 122.866105 175.548178 
L 123.075187 166.269493 
L 123.493351 178.763011 
L 123.702433 131.996847 
L 123.911515 179.42628 
L 124.120597 177.555356 
L 124.329679 170.180161 
L 124.538761 179.682539 
L 124.747843 179.933029 
L 124.956925 28.536731 
L 125.166007 174.560089 
L 125.375089 169.839928 
L 125.584171 173.660554 
L 125.793253 172.815474 
L 126.002335 164.533364 
L 126.211417 179.005924 
L 126.420499 178.344075 
L 126.629581 179.895388 
L 126.838663 171.164996 
L 127.047745 174.255617 
L 127.256828 173.485712 
L 127.46591 177.698567 
L 127.674992 178.937879 
L 127.884074 178.21321 
L 128.093156 107.882765 
L 128.302238 166.873475 
L 128.51132 178.832826 
L 128.720402 179.411168 
L 128.929484 175.918375 
L 129.138566 162.164889 
L 129.347648 159.882785 
L 129.765812 174.138438 
L 129.974894 45.059055 
L 130.183976 179.460308 
L 130.393058 165.418107 
L 130.60214 179.537525 
L 130.811222 168.108125 
L 131.020304 177.137511 
L 131.229386 152.343743 
L 131.438468 178.664401 
L 131.64755 178.25501 
L 131.856632 177.355173 
L 132.065714 179.647467 
L 132.483878 158.569009 
L 132.69296 176.95153 
L 132.902042 174.172294 
L 133.111124 179.911909 
L 133.529288 164.972892 
L 133.73837 173.450604 
L 133.947452 174.594694 
L 134.156534 158.569794 
L 134.365616 172.165097 
L 134.574698 173.336008 
L 134.78378 172.241588 
L 134.992862 173.504917 
L 135.201944 178.400108 
L 135.411026 179.485249 
L 135.620108 177.851832 
L 135.82919 179.240227 
L 136.038272 179.591795 
L 136.247354 169.42529 
L 136.456437 179.258007 
L 136.665519 169.72568 
L 136.874601 166.170132 
L 137.083683 176.15083 
L 137.292765 171.189593 
L 137.501847 171.505063 
L 137.710929 131.00073 
L 138.129093 178.646369 
L 138.338175 163.636534 
L 138.547257 175.817691 
L 138.756339 166.312036 
L 139.174503 175.313102 
L 139.383585 173.567292 
L 139.592667 179.297664 
L 139.801749 151.243091 
L 140.010831 178.516202 
L 140.219913 169.648491 
L 140.428995 178.390121 
L 140.638077 169.404959 
L 140.847159 172.30697 
L 141.056241 172.153282 
L 141.474405 178.836594 
L 141.683487 178.594545 
L 141.892569 177.002947 
L 142.101651 173.795102 
L 142.310733 176.196429 
L 142.519815 176.516365 
L 142.937979 169.097922 
L 143.147061 179.623901 
L 143.356143 159.633891 
L 143.565225 177.430978 
L 143.774307 170.588311 
L 143.983389 176.47873 
L 144.192471 178.615439 
L 144.401553 172.189394 
L 144.610635 172.531411 
L 145.028799 175.740025 
L 145.237881 174.653863 
L 145.446963 178.538452 
L 145.656045 172.170434 
L 145.865128 177.509373 
L 146.283292 172.660091 
L 146.492374 178.124607 
L 146.701456 173.457781 
L 146.910538 177.861092 
L 147.11962 159.039856 
L 147.328702 178.724191 
L 147.537784 163.700267 
L 147.746866 178.520438 
L 147.955948 177.552486 
L 148.16503 169.53688 
L 148.374112 174.418491 
L 148.583194 132.538701 
L 148.792276 172.937299 
L 149.001358 154.399568 
L 149.21044 170.461593 
L 149.837686 176.499885 
L 150.046768 163.888949 
L 150.25585 178.426249 
L 150.464932 171.400965 
L 150.674014 170.874918 
L 150.883096 172.778587 
L 151.092178 139.128326 
L 151.30126 178.620051 
L 151.719424 168.025891 
L 152.137588 170.712897 
L 152.34667 171.174756 
L 152.555752 179.599011 
L 152.764834 170.105444 
L 152.973916 179.228379 
L 153.182998 164.509026 
L 153.39208 170.823127 
L 153.601162 159.400337 
L 153.810244 179.860132 
L 154.019326 179.275028 
L 154.228408 167.491162 
L 154.43749 173.470286 
L 154.646572 171.878076 
L 154.855654 164.012938 
L 155.064737 168.250553 
L 155.273819 176.973445 
L 155.482901 177.124176 
L 155.691983 171.231459 
L 155.901065 176.556035 
L 156.110147 172.353388 
L 156.319229 178.144607 
L 156.528311 172.130791 
L 156.737393 178.46989 
L 156.946475 167.65625 
L 157.364639 179.716629 
L 157.573721 176.619258 
L 157.782803 178.351137 
L 157.991885 173.439648 
L 158.200967 177.378248 
L 158.410049 178.247331 
L 158.619131 162.307438 
L 158.828213 179.798137 
L 159.246377 164.765118 
L 159.455459 179.512482 
L 159.664541 146.796968 
L 159.873623 176.643324 
L 160.082705 167.0247 
L 160.291787 178.991386 
L 160.500869 170.516177 
L 160.709951 178.825725 
L 160.919033 177.217897 
L 161.128115 178.207055 
L 161.337197 169.243554 
L 161.546279 117.939224 
L 161.755361 179.454621 
L 161.964443 176.729084 
L 162.173525 176.019382 
L 162.382607 179.814151 
L 162.591689 161.808425 
L 162.800771 163.783899 
L 163.218935 178.721485 
L 163.428017 176.311597 
L 164.055263 178.188462 
L 164.264346 179.938199 
L 164.68251 177.23279 
L 165.100674 168.521081 
L 165.309756 173.929768 
L 165.72792 131.569532 
L 165.937002 179.261692 
L 166.146084 163.941392 
L 166.355166 173.569904 
L 166.564248 170.10425 
L 166.77333 179.83989 
L 166.982412 167.528179 
L 167.191494 179.276256 
L 167.400576 179.801785 
L 167.609658 179.240126 
L 167.81874 177.02189 
L 168.027822 179.41308 
L 168.236904 166.060284 
L 168.445986 179.78406 
L 168.655068 178.903813 
L 168.86415 159.490553 
L 169.073232 178.064471 
L 169.282314 179.203333 
L 169.491396 135.426464 
L 169.700478 178.385441 
L 169.90956 179.519482 
L 170.118642 164.683598 
L 170.327724 177.858459 
L 170.536806 163.691215 
L 170.745888 179.866375 
L 170.95497 161.003038 
L 171.164052 178.011561 
L 171.373134 174.814865 
L 171.582216 179.802694 
L 171.791298 169.79098 
L 172.00038 177.976144 
L 172.209462 171.746764 
L 172.418544 172.841518 
L 172.627626 179.420487 
L 173.04579 175.006333 
L 173.254872 164.480989 
L 173.463955 179.672958 
L 173.673037 179.324905 
L 174.091201 175.578862 
L 174.300283 179.464074 
L 174.509365 177.644906 
L 174.718447 172.711664 
L 174.927529 175.239412 
L 175.136611 171.002567 
L 175.345693 169.505354 
L 175.554775 148.988612 
L 175.763857 177.12993 
L 175.972939 179.804592 
L 176.182021 179.583393 
L 176.391103 173.216478 
L 176.600185 179.836146 
L 176.809267 115.183767 
L 177.018349 162.302519 
L 177.227431 178.271519 
L 177.436513 176.063668 
L 177.645595 175.886885 
L 177.854677 173.712896 
L 178.063759 173.276406 
L 178.272841 178.97482 
L 178.481923 164.828616 
L 178.900087 179.574797 
L 179.109169 19.02715 
L 179.318251 175.199527 
L 179.527333 179.460399 
L 179.736415 179.950596 
L 179.945497 173.48033 
L 180.154579 174.817869 
L 180.363661 146.590067 
L 180.572743 173.826428 
L 180.781825 171.708712 
L 180.990907 163.424348 
L 181.199989 179.146953 
L 181.409071 177.470205 
L 181.618153 170.895594 
L 181.827235 177.854573 
L 182.036317 175.00392 
L 182.245399 177.850822 
L 182.454481 178.271512 
L 182.663563 174.181958 
L 182.872646 173.174793 
L 183.081728 158.703181 
L 183.29081 178.69811 
L 183.499892 175.481036 
L 183.708974 178.184949 
L 183.918056 171.058877 
L 184.127138 178.316379 
L 184.33622 179.641437 
L 184.754384 120.231991 
L 184.963466 179.989561 
L 185.38163 170.881989 
L 185.590712 171.437771 
L 185.799794 179.953125 
L 186.008876 171.781217 
L 186.217958 136.004019 
L 186.42704 168.875478 
L 186.636122 160.730046 
L 186.845204 148.110701 
L 187.054286 33.108282 
L 187.263368 170.663723 
L 187.47245 175.57585 
L 187.681532 170.220273 
L 187.890614 179.586273 
L 188.099696 179.358293 
L 188.308778 178.651303 
L 188.51786 167.298712 
L 188.726942 71.379241 
L 188.936024 179.369524 
L 189.354188 167.531813 
L 189.56327 174.268942 
L 189.772352 174.047054 
L 189.981434 179.80085 
L 190.190516 179.984027 
L 190.399598 172.868088 
L 190.60868 178.106767 
L 190.817762 176.763152 
L 191.026844 151.780496 
L 191.235926 174.167044 
L 191.445008 145.939909 
L 191.863172 177.088796 
L 192.072255 178.328957 
L 192.281337 175.94862 
L 192.490419 179.596009 
L 192.699501 160.06377 
L 192.908583 159.218476 
L 193.117665 156.96114 
L 193.326747 179.854995 
L 193.535829 169.422995 
L 193.744911 175.712774 
L 193.953993 171.265727 
L 194.163075 179.858175 
L 194.372157 174.094155 
L 194.581239 175.305401 
L 194.790321 179.160843 
L 194.999403 177.945942 
L 195.208485 163.830502 
L 195.417567 169.472096 
L 195.626649 178.791198 
L 195.835731 171.872462 
L 196.044813 155.701094 
L 196.253895 172.198028 
L 196.462977 170.24544 
L 196.672059 179.761158 
L 196.881141 179.5538 
L 197.090223 179.777814 
L 197.299305 133.811155 
L 197.508387 177.174834 
L 197.717469 179.016285 
L 197.926551 152.435147 
L 198.135633 176.882545 
L 198.344715 166.973496 
L 198.553797 141.224293 
L 198.762879 174.386706 
L 198.971961 175.649087 
L 199.181043 179.753099 
L 199.390125 177.065865 
L 199.599207 179.086587 
L 199.808289 168.860101 
L 200.017371 176.773653 
L 200.226453 178.846635 
L 200.435535 168.520573 
L 200.644617 173.745657 
L 200.853699 137.55661 
L 201.271864 169.950775 
L 201.480946 158.296555 
L 201.690028 178.252697 
L 201.89911 179.333247 
L 202.108192 179.507882 
L 202.317274 171.534144 
L 202.526356 179.507275 
L 202.735438 175.792955 
L 202.94452 177.908658 
L 203.153602 171.083725 
L 203.362684 177.974397 
L 203.571766 161.020195 
L 203.780848 175.64665 
L 203.98993 169.120626 
L 204.199012 175.444898 
L 204.408094 89.941209 
L 204.617176 177.136398 
L 204.826258 156.054077 
L 205.03534 176.922171 
L 205.244422 172.9313 
L 205.453504 174.748714 
L 205.662586 171.932968 
L 205.871668 179.744939 
L 206.08075 172.713026 
L 206.289832 173.622836 
L 206.498914 179.796235 
L 206.707996 177.763241 
L 206.917078 178.217919 
L 207.12616 179.766419 
L 207.335242 177.282173 
L 207.544324 179.079045 
L 207.753406 151.270336 
L 207.962488 168.397779 
L 208.17157 168.057693 
L 208.380652 145.784759 
L 208.589734 178.185689 
L 208.798816 176.778545 
L 209.007898 178.894018 
L 209.21698 168.955068 
L 209.426062 172.487525 
L 209.635144 167.81197 
L 209.844226 178.886128 
L 210.053308 172.127036 
L 210.26239 170.97337 
L 210.471472 172.88416 
L 210.680555 166.826585 
L 210.889637 173.584519 
L 211.098719 170.906423 
L 211.307801 179.806949 
L 211.516883 178.174489 
L 211.725965 165.152616 
L 211.935047 172.309621 
L 212.144129 163.67997 
L 212.353211 176.150638 
L 212.562293 178.616249 
L 212.980457 169.075177 
L 213.189539 179.272811 
L 213.398621 179.350506 
L 213.607703 174.319586 
L 213.816785 178.930221 
L 214.025867 179.836984 
L 214.444031 160.942 
L 214.862195 177.322146 
L 215.071277 174.958585 
L 215.280359 141.728692 
L 215.489441 179.438228 
L 215.698523 175.756395 
L 215.907605 164.972379 
L 216.116687 178.198638 
L 216.325769 178.476085 
L 216.953015 166.608433 
L 217.162097 179.773775 
L 217.371179 179.801137 
L 217.580261 174.49364 
L 217.789343 177.081915 
L 217.998425 169.401038 
L 218.207507 178.52902 
L 218.416589 179.82947 
L 218.834753 169.888867 
L 219.043835 177.27485 
L 219.252917 175.566634 
L 219.461999 179.660755 
L 219.671081 178.993263 
L 219.880164 151.614608 
L 220.089246 172.662655 
L 220.298328 167.836052 
L 220.50741 179.943965 
L 220.716492 177.895616 
L 220.925574 172.371136 
L 221.134656 175.398818 
L 221.343738 165.602979 
L 221.55282 177.202331 
L 221.761902 178.862758 
L 221.970984 172.148813 
L 222.180066 179.170066 
L 222.389148 178.120593 
L 222.59823 176.038568 
L 222.807312 168.188476 
L 223.016394 173.545886 
L 223.225476 170.287212 
L 223.434558 179.792865 
L 223.64364 166.443736 
L 223.852722 175.41219 
L 224.061804 169.824117 
L 224.270886 178.176907 
L 224.479968 179.488584 
L 224.68905 173.642709 
L 224.898132 179.68565 
L 225.107214 175.394734 
L 225.316296 162.382239 
L 225.525378 179.231696 
L 225.73446 175.166506 
L 225.943542 179.709835 
L 226.361706 178.603795 
L 226.570788 172.157739 
L 226.77987 175.392226 
L 226.988952 165.534773 
L 227.198034 167.226599 
L 227.407116 173.330381 
L 227.616198 171.917163 
L 227.82528 167.874907 
L 228.243444 179.27668 
L 228.452526 177.589002 
L 228.661608 109.001483 
L 229.079773 162.440153 
L 229.288855 176.515415 
L 229.497937 177.610598 
L 229.707019 172.124499 
L 229.916101 91.501605 
L 230.125183 175.285802 
L 230.334265 174.234427 
L 230.752429 179.714506 
L 230.961511 179.031249 
L 231.170593 172.350385 
L 231.379675 18.86 
L 231.588757 175.312667 
L 231.797839 176.880123 
L 232.006921 176.120412 
L 232.216003 179.254501 
L 232.425085 176.634444 
L 232.634167 176.252277 
L 232.843249 178.365668 
L 233.052331 173.436562 
L 233.261413 175.847378 
L 233.470495 170.931547 
L 233.679577 156.447226 
L 233.888659 177.757042 
L 234.097741 163.706215 
L 234.306823 179.272884 
L 234.515905 179.254131 
L 234.724987 176.162288 
L 234.934069 179.550321 
L 235.352233 162.744029 
L 235.561315 135.391768 
L 235.770397 168.087108 
L 235.979479 128.719938 
L 236.188561 171.147281 
L 236.397643 168.909864 
L 236.606725 176.954264 
L 236.815807 178.749128 
L 237.024889 177.829937 
L 237.233971 162.382239 
L 237.443053 177.495171 
L 237.652135 88.13855 
L 237.861217 171.18939 
L 238.070299 171.817399 
L 238.279381 172.798787 
L 238.488464 162.868682 
L 238.697546 175.015328 
L 238.906628 179.936603 
L 239.11571 171.258489 
L 239.324792 177.448284 
L 239.533874 164.985158 
L 239.742956 179.577321 
L 240.16112 176.068588 
L 240.370202 177.426233 
L 240.579284 175.649488 
L 240.788366 170.216227 
L 240.997448 167.716392 
L 241.20653 177.864138 
L 241.415612 169.92002 
L 241.624694 178.227235 
L 241.833776 170.49856 
L 242.042858 173.697763 
L 242.25194 179.18712 
L 242.461022 173.243433 
L 242.670104 173.995776 
L 242.879186 178.338465 
L 243.088268 171.272411 
L 243.29735 173.624553 
L 243.715514 165.148301 
L 244.133678 179.328678 
L 244.34276 150.995827 
L 244.551842 166.637892 
L 244.970006 174.67304 
L 245.179088 176.551695 
L 245.38817 177.109478 
L 245.597252 116.121149 
L 245.806334 178.686104 
L 246.015416 161.229598 
L 246.224498 178.788028 
L 246.43358 176.219867 
L 246.851744 178.570032 
L 247.060826 175.446411 
L 247.269908 168.011148 
L 247.688073 172.859392 
L 247.897155 156.877105 
L 248.106237 172.449374 
L 248.315319 172.500317 
L 248.524401 100.294214 
L 248.733483 172.075998 
L 248.942565 164.483303 
L 249.151647 173.343087 
L 249.360729 177.402774 
L 249.569811 178.51397 
L 249.778893 123.539193 
L 249.987975 179.667172 
L 250.197057 174.321524 
L 250.406139 175.673595 
L 250.824303 179.897581 
L 251.033385 177.393833 
L 251.242467 170.286082 
L 251.451549 157.449685 
L 251.660631 163.550745 
L 251.869713 175.222605 
L 252.078795 173.580722 
L 252.287877 169.278215 
L 252.706041 179.095138 
L 252.915123 178.592681 
L 253.124205 173.147996 
L 253.333287 171.323629 
L 253.542369 171.281704 
L 253.751451 36.406925 
L 253.960533 178.00886 
L 254.378697 179.909271 
L 254.587779 178.44694 
L 254.796861 173.95509 
L 255.005943 178.389993 
L 255.215025 176.821568 
L 255.424107 179.307735 
L 255.633189 167.106446 
L 255.842271 162.123341 
L 256.051353 173.668795 
L 256.260435 175.905221 
L 256.469517 175.140844 
L 256.678599 178.180342 
L 256.887682 176.329753 
L 257.096764 177.477632 
L 257.305846 165.341597 
L 257.514928 179.765211 
L 257.72401 170.239775 
L 257.933092 174.379083 
L 258.142174 152.707476 
L 258.560338 177.926726 
L 258.76942 164.946677 
L 258.978502 178.022376 
L 259.187584 174.151394 
L 259.396666 161.574584 
L 259.605748 168.420308 
L 259.81483 168.885684 
L 260.023912 179.238045 
L 260.232994 179.406063 
L 260.442076 165.447731 
L 260.651158 179.231453 
L 260.86024 178.19914 
L 261.069322 167.048787 
L 261.278404 162.242649 
L 261.487486 179.291901 
L 261.696568 178.298972 
L 262.114732 169.685952 
L 262.323814 179.935152 
L 262.532896 176.412697 
L 262.741978 169.772903 
L 262.95106 172.895245 
L 263.160142 179.0146 
L 263.369224 152.227575 
L 263.578306 170.506887 
L 263.787388 171.650805 
L 263.99647 166.205052 
L 264.205552 167.53699 
L 264.414634 169.786425 
L 264.623716 176.69317 
L 264.832798 169.897622 
L 265.04188 167.913188 
L 265.250962 158.484443 
L 265.669126 173.510297 
L 265.878208 179.464246 
L 266.087291 177.336589 
L 266.296373 158.646631 
L 266.505455 173.653911 
L 266.505455 173.653911 
" clip-path="url(#p02a7c0caeb)" style="fill: none; stroke: #20b2aa; stroke-width: 1.5; stroke-linecap: square"/>
   </g>
   <g id="line2d_16">
    <path d="M 52.614545 180.059997 
L 52.823627 175.489795 
L 53.032709 179.323605 
L 53.241792 174.684282 
L 53.450874 180.059993 
L 53.659956 180.06 
L 53.869038 176.664302 
L 54.07812 135.816836 
L 54.287202 180.06 
L 54.496284 178.331519 
L 54.705366 180.008411 
L 55.12353 180.058384 
L 55.332612 35.93607 
L 55.541694 180.06 
L 55.750776 179.657768 
L 55.959858 180.06 
L 56.378022 180.06 
L 56.587104 174.089522 
L 56.796186 178.335582 
L 57.005268 160.463753 
L 57.21435 175.045037 
L 57.423432 174.646584 
L 57.632514 173.469204 
L 57.841596 180.06 
L 58.050678 170.421808 
L 58.25976 177.185923 
L 58.468842 180.06 
L 59.30517 180.057314 
L 59.514252 176.182287 
L 59.723334 176.811912 
L 59.932416 174.107897 
L 60.141498 180.053394 
L 60.35058 155.656049 
L 60.768744 180.06 
L 60.977826 173.937544 
L 61.186908 179.616295 
L 61.39599 180.06 
L 61.605072 179.833006 
L 62.232318 180.06 
L 62.441401 166.937652 
L 62.650483 180.06 
L 62.859565 174.608731 
L 63.068647 180.06 
L 63.486811 180.06 
L 63.695893 171.676627 
L 63.904975 180.06 
L 64.114057 172.738943 
L 64.323139 171.65219 
L 64.532221 165.751415 
L 64.741303 175.429645 
L 64.950385 177.530375 
L 65.159467 129.875715 
L 65.368549 180.06 
L 65.577631 179.197994 
L 65.786713 180.06 
L 65.995795 179.83971 
L 66.204877 179.817213 
L 66.413959 150.528803 
L 66.623041 179.908161 
L 66.832123 164.969488 
L 67.041205 180.041497 
L 67.250287 170.400103 
L 67.459369 180.06 
L 67.668451 169.940951 
L 67.877533 179.010952 
L 68.086615 180.06 
L 68.295697 175.81714 
L 68.504779 180.06 
L 68.713861 179.098434 
L 68.922943 168.039753 
L 69.132025 165.39487 
L 69.341107 180.059942 
L 70.386517 179.950873 
L 70.595599 168.87934 
L 70.804681 180.035402 
L 71.222845 180.059806 
L 71.431927 172.094126 
L 71.64101 180.06 
L 71.850092 180.029164 
L 72.059174 179.490363 
L 72.268256 169.179616 
L 72.477338 180.06 
L 72.68642 169.726069 
L 72.895502 180.06 
L 73.104584 180.059965 
L 73.313666 170.760063 
L 73.522748 180.06 
L 73.73183 180.06 
L 73.940912 56.503423 
L 74.149994 179.998561 
L 74.359076 180.06 
L 74.568158 176.438325 
L 74.77724 176.834658 
L 74.986322 173.454391 
L 75.195404 173.644887 
L 75.404486 172.256316 
L 75.613568 180.054462 
L 75.82265 175.14569 
L 76.031732 180.03335 
L 76.240814 170.982169 
L 76.449896 180.06 
L 76.658978 168.218158 
L 76.86806 168.460019 
L 77.077142 179.933224 
L 77.286224 180.06 
L 77.495306 179.906239 
L 77.704388 168.896475 
L 77.91347 171.22124 
L 78.122552 167.710386 
L 78.331634 171.784655 
L 78.540716 158.823144 
L 78.749798 175.525591 
L 78.95888 168.145667 
L 79.377044 180.06 
L 79.586126 180.06 
L 80.00429 167.875088 
L 80.213372 172.223884 
L 80.422454 180.06 
L 80.631536 177.47228 
L 80.840619 180.06 
L 81.049701 173.392272 
L 81.258783 175.733574 
L 81.467865 164.358956 
L 81.676947 180.06 
L 81.886029 180.020341 
L 82.095111 172.276622 
L 82.304193 180.056462 
L 82.513275 179.797826 
L 82.722357 179.970102 
L 82.931439 166.863824 
L 83.140521 180.06 
L 83.349603 178.588045 
L 83.558685 180.059903 
L 83.767767 170.156834 
L 83.976849 171.223137 
L 84.185931 180.06 
L 84.395013 180.06 
L 84.813177 172.657244 
L 85.022259 175.173721 
L 85.231341 170.882326 
L 85.440423 180.06 
L 85.649505 178.127869 
L 85.858587 180.06 
L 86.067669 179.573825 
L 86.276751 175.297783 
L 86.485833 112.533728 
L 86.694915 88.970297 
L 86.903997 176.730916 
L 87.113079 179.184272 
L 87.322161 179.61226 
L 87.531243 177.644952 
L 87.740325 174.445954 
L 87.949407 180.06 
L 88.158489 176.218156 
L 88.367571 178.413227 
L 88.576653 174.307954 
L 88.994817 177.695075 
L 89.203899 173.371094 
L 89.412981 141.11187 
L 89.622063 180.06 
L 90.24931 180.059999 
L 90.458392 149.651127 
L 90.667474 175.870098 
L 90.876556 176.754864 
L 91.085638 180.06 
L 91.29472 179.744318 
L 91.503802 180.055636 
L 91.712884 179.219153 
L 91.921966 179.818759 
L 92.131048 179.579439 
L 92.34013 175.176919 
L 92.549212 180.06 
L 92.758294 179.369506 
L 92.967376 177.436244 
L 93.176458 180.06 
L 93.803704 180.06 
L 94.012786 175.115761 
L 94.221868 180.06 
L 94.43095 173.287542 
L 94.849114 180.06 
L 95.058196 174.37256 
L 95.267278 176.291383 
L 95.47636 179.880475 
L 95.685442 179.905399 
L 95.894524 175.211893 
L 96.103606 180.06 
L 96.312688 166.865192 
L 96.52177 180.058959 
L 96.939934 180.043914 
L 97.149016 131.894955 
L 97.358098 171.363845 
L 97.56718 174.684206 
L 97.776262 163.225168 
L 98.194426 179.3222 
L 98.403508 173.256858 
L 98.61259 179.642053 
L 98.821672 179.167488 
L 99.030754 170.995146 
L 99.448919 180.041302 
L 99.658001 176.721726 
L 99.867083 180.06 
L 100.076165 169.050037 
L 100.285247 178.486139 
L 100.494329 178.275998 
L 100.703411 167.815195 
L 101.121575 179.495965 
L 101.330657 180.059857 
L 101.539739 179.203323 
L 101.748821 180.05764 
L 101.957903 171.31736 
L 102.166985 180.06 
L 102.585149 166.062924 
L 102.794231 176.981882 
L 103.003313 176.747609 
L 103.212395 164.495435 
L 103.421477 180.06 
L 103.630559 178.964081 
L 103.839641 20.465826 
L 104.048723 174.748826 
L 104.257805 179.251675 
L 104.466887 180.06 
L 104.675969 176.963147 
L 104.885051 170.192708 
L 105.094133 180.06 
L 105.303215 36.169666 
L 105.512297 170.472696 
L 105.721379 177.89722 
L 105.930461 177.906994 
L 106.139543 175.597335 
L 106.348625 180.06 
L 106.557707 169.705009 
L 106.766789 177.663096 
L 106.975871 169.37642 
L 107.184953 179.622103 
L 107.394035 177.26433 
L 107.603117 152.036454 
L 107.812199 179.470118 
L 108.021281 175.375781 
L 108.230363 179.821925 
L 108.439445 179.455336 
L 108.648528 179.958465 
L 109.066692 180.06 
L 109.275774 179.239536 
L 109.484856 180.059581 
L 109.693938 180.036263 
L 109.90302 175.94757 
L 110.112102 163.921861 
L 110.321184 180.06 
L 110.530266 168.52033 
L 110.739348 173.581715 
L 110.94843 173.97562 
L 111.157512 178.816347 
L 111.366594 179.952986 
L 111.575676 177.359591 
L 111.99384 168.443784 
L 112.202922 180.06 
L 112.412004 142.962687 
L 112.830168 180.053788 
L 113.03925 177.126261 
L 113.248332 179.609133 
L 113.457414 178.582329 
L 113.666496 175.370799 
L 113.875578 163.933815 
L 114.08466 171.957689 
L 114.293742 174.709101 
L 114.502824 174.206284 
L 114.711906 180.031726 
L 114.920988 173.080718 
L 115.13007 180.058285 
L 115.339152 175.464851 
L 115.548234 180.06 
L 115.757316 173.837623 
L 115.966398 173.696164 
L 116.17548 180.06 
L 116.384562 171.593667 
L 116.593644 180.06 
L 116.802726 175.257092 
L 117.011808 180.059705 
L 117.22089 180.06 
L 117.429972 178.569306 
L 117.639054 169.063789 
L 117.848136 178.811202 
L 118.057219 171.593438 
L 118.266301 180.06 
L 118.475383 179.873471 
L 118.684465 179.3743 
L 118.893547 21.128962 
L 119.102629 175.478312 
L 119.311711 146.456476 
L 119.729875 168.436083 
L 120.148039 177.952732 
L 120.357121 178.504141 
L 120.566203 177.263164 
L 120.775285 180.032616 
L 120.984367 175.165145 
L 121.193449 176.420393 
L 121.402531 180.06 
L 121.611613 160.722136 
L 121.820695 174.553948 
L 122.029777 171.729465 
L 122.657023 179.883747 
L 122.866105 179.16814 
L 123.075187 167.494321 
L 123.284269 179.750039 
L 123.493351 179.406336 
L 123.702433 180.06 
L 124.120597 180.054812 
L 124.329679 172.492159 
L 124.538761 180.008176 
L 124.747843 180.06 
L 124.956925 30.955601 
L 125.166007 180.06 
L 125.375089 172.634242 
L 125.584171 177.242702 
L 125.793253 174.902528 
L 126.002335 170.861582 
L 126.211417 180.06 
L 126.420499 179.680765 
L 126.629581 180.06 
L 126.838663 177.831229 
L 127.047745 179.874747 
L 127.256828 179.831674 
L 127.46591 179.295677 
L 127.674992 180.06 
L 127.884074 179.702225 
L 128.093156 109.169352 
L 128.302238 168.616255 
L 128.51132 179.716923 
L 128.720402 180.06 
L 128.929484 177.791917 
L 129.138566 163.765546 
L 129.347648 163.74091 
L 129.55673 166.809568 
L 129.765812 177.292868 
L 129.974894 46.857679 
L 130.183976 180.06 
L 130.393058 171.660536 
L 130.60214 180.06 
L 130.811222 171.085157 
L 131.020304 179.898223 
L 131.229386 155.802407 
L 131.438468 179.981262 
L 131.64755 180.059375 
L 131.856632 179.75219 
L 132.065714 180.06 
L 132.274796 172.751142 
L 132.483878 160.680843 
L 132.69296 178.09603 
L 132.902042 175.259778 
L 133.111124 180.06 
L 133.529288 166.151491 
L 133.73837 176.381367 
L 133.947452 177.347644 
L 134.156534 163.757117 
L 134.365616 175.769148 
L 134.574698 177.530582 
L 134.78378 177.084722 
L 134.992862 174.640983 
L 135.201944 180.056316 
L 135.411026 180.06 
L 135.620108 179.83073 
L 135.82919 180.047692 
L 136.038272 180.05973 
L 136.247354 170.897932 
L 136.456437 180.025077 
L 136.874601 172.483685 
L 137.292765 180.06 
L 137.501847 180.059958 
L 137.710929 132.48883 
L 137.920011 166.933058 
L 138.129093 180.06 
L 138.338175 165.134442 
L 138.547257 180.06 
L 138.965421 172.666909 
L 139.174503 180.059982 
L 139.383585 177.995194 
L 139.592667 180.06 
L 139.801749 153.601739 
L 140.010831 179.766245 
L 140.219913 172.033557 
L 140.428995 179.110875 
L 140.638077 172.60266 
L 140.847159 174.775486 
L 141.056241 175.590837 
L 141.265323 180.06 
L 141.892569 180.06 
L 142.101651 175.964689 
L 142.310733 179.586794 
L 142.519815 178.52049 
L 142.937979 171.68257 
L 143.147061 180.059997 
L 143.356143 161.792342 
L 143.565225 180.059713 
L 143.774307 173.422685 
L 143.983389 180.003205 
L 144.192471 179.8558 
L 144.401553 175.275285 
L 144.610635 174.838915 
L 144.819717 179.088642 
L 145.028799 178.554802 
L 145.237881 180.06 
L 145.446963 180.06 
L 145.656045 177.633326 
L 145.865128 180.058459 
L 146.07421 180.06 
L 146.283292 176.089432 
L 146.492374 180.06 
L 146.701456 178.723965 
L 146.910538 180.06 
L 147.11962 163.655173 
L 147.328702 180.06 
L 147.537784 166.212972 
L 147.746866 179.690949 
L 147.955948 180.06 
L 148.16503 172.16792 
L 148.374112 179.267486 
L 148.583194 134.02957 
L 148.792276 176.324584 
L 149.001358 159.510934 
L 149.21044 174.257054 
L 149.628604 179.766676 
L 149.837686 179.838551 
L 150.046768 167.599608 
L 150.25585 180.06 
L 150.674014 173.405264 
L 150.883096 178.088214 
L 151.092178 140.71546 
L 151.30126 179.532926 
L 151.510342 172.962855 
L 151.719424 170.603088 
L 151.928506 170.923371 
L 152.137588 176.074891 
L 152.555752 180.06 
L 152.764834 173.855324 
L 152.973916 180.04736 
L 153.182998 167.369675 
L 153.39208 173.770143 
L 153.601162 167.66684 
L 153.810244 180.06 
L 154.019326 180.06 
L 154.228408 169.829517 
L 154.43749 177.641244 
L 154.646572 174.969909 
L 154.855654 169.48898 
L 155.064737 170.001816 
L 155.273819 179.579568 
L 155.482901 180.06 
L 155.691983 174.131124 
L 155.901065 180.059486 
L 156.319229 180.06 
L 156.528311 176.092639 
L 156.737393 180.06 
L 156.946475 169.156876 
L 157.155557 178.410176 
L 157.364639 180.06 
L 157.573721 179.46175 
L 157.782803 179.913008 
L 157.991885 177.505489 
L 158.410049 179.913771 
L 158.619131 169.331978 
L 158.828213 180.06 
L 159.037295 174.828397 
L 159.246377 179.74762 
L 159.455459 180.06 
L 159.664541 149.17553 
L 159.873623 180.057515 
L 160.082705 170.733222 
L 160.291787 180.06 
L 160.500869 176.800318 
L 160.709951 179.934087 
L 161.128115 180.06 
L 161.337197 174.153028 
L 161.546279 118.966551 
L 161.755361 180.06 
L 161.964443 178.54878 
L 162.173525 178.972783 
L 162.382607 180.06 
L 162.591689 163.877245 
L 163.009853 180.06 
L 163.218935 179.985606 
L 163.428017 179.059395 
L 163.637099 180.016267 
L 164.264346 180.06 
L 164.68251 180.059848 
L 164.891592 176.369268 
L 165.100674 169.710012 
L 165.309756 179.09402 
L 165.72792 133.478112 
L 165.937002 180.06 
L 166.146084 167.618115 
L 166.355166 175.514813 
L 166.564248 172.792342 
L 166.77333 180.06 
L 166.982412 169.92145 
L 167.191494 180.056054 
L 167.609658 180.04999 
L 167.81874 179.378655 
L 168.027822 179.967139 
L 168.236904 167.585053 
L 168.445986 180.059999 
L 168.655068 180.06 
L 168.86415 161.673862 
L 169.073232 179.438133 
L 169.282314 180.05998 
L 169.491396 136.88967 
L 169.700478 180.059999 
L 170.327724 180.06 
L 170.536806 167.646866 
L 170.745888 180.06 
L 170.95497 165.186591 
L 171.164052 180.06 
L 171.582216 180.06 
L 171.791298 170.864052 
L 172.00038 180.06 
L 172.209462 173.879067 
L 172.418544 178.329474 
L 172.627626 180.06 
L 172.836708 180.06 
L 173.04579 178.160009 
L 173.254872 166.502756 
L 173.463955 180.06 
L 173.882119 180.06 
L 174.091201 179.778157 
L 174.509365 180.051659 
L 174.718447 174.348898 
L 174.927529 178.761436 
L 175.136611 176.089359 
L 175.345693 170.674575 
L 175.554775 153.795006 
L 175.763857 178.69195 
L 175.972939 180.06 
L 176.182021 180.06 
L 176.391103 178.192714 
L 176.600185 180.06 
L 176.809267 116.876674 
L 177.018349 164.768099 
L 177.227431 180.043724 
L 177.436513 180.052058 
L 177.854677 176.665689 
L 178.063759 177.671486 
L 178.272841 180.05349 
L 178.481923 169.436472 
L 178.900087 180.038998 
L 179.109169 20.789099 
L 179.318251 177.441296 
L 179.527333 180.036434 
L 179.736415 180.06 
L 179.945497 176.14388 
L 180.154579 176.998497 
L 180.363661 148.422185 
L 180.572743 175.368863 
L 180.781825 173.021969 
L 180.990907 165.698397 
L 181.199989 180.06 
L 181.409071 180.06 
L 181.618153 173.463186 
L 181.827235 180.06 
L 182.036317 179.648997 
L 182.245399 179.721444 
L 182.454481 180.06 
L 182.872646 175.652691 
L 183.081728 161.868336 
L 183.29081 179.3608 
L 183.499892 177.513019 
L 183.708974 179.659663 
L 183.918056 176.816591 
L 184.127138 180.06 
L 184.33622 180.059999 
L 184.754384 121.116113 
L 184.963466 180.06 
L 185.172548 175.578974 
L 185.38163 177.755882 
L 185.590712 176.482418 
L 185.799794 180.06 
L 186.008876 173.763308 
L 186.217958 137.84475 
L 186.42704 170.745966 
L 186.845204 150.315592 
L 187.054286 34.671017 
L 187.263368 176.069968 
L 187.47245 176.498657 
L 187.681532 173.352603 
L 187.890614 180.06 
L 188.308778 180.06 
L 188.51786 173.406479 
L 188.726942 73.020105 
L 188.936024 180.06 
L 189.145106 178.682672 
L 189.354188 170.253597 
L 189.56327 176.262117 
L 189.772352 175.666744 
L 189.981434 180.059989 
L 190.190516 180.06 
L 190.399598 173.905351 
L 190.60868 179.329315 
L 190.817762 180.06 
L 191.026844 157.992127 
L 191.235926 179.995383 
L 191.445008 146.697445 
L 191.65409 180.06 
L 192.072255 180.06 
L 192.281337 178.962597 
L 192.490419 180.06 
L 192.699501 162.027914 
L 192.908583 161.106549 
L 193.117665 164.023229 
L 193.326747 180.059999 
L 193.535829 170.60674 
L 193.744911 177.917686 
L 193.953993 175.624733 
L 194.163075 180.059868 
L 194.372157 174.930646 
L 194.581239 176.549505 
L 194.790321 179.938445 
L 194.999403 179.666799 
L 195.208485 177.358765 
L 195.417567 173.38409 
L 195.626649 179.977232 
L 195.835731 175.807468 
L 196.044813 157.515341 
L 196.253895 173.998167 
L 196.672059 180.059994 
L 197.090223 180.058438 
L 197.299305 136.354118 
L 197.508387 178.629101 
L 197.717469 180.06 
L 197.926551 153.674425 
L 198.135633 180.059453 
L 198.344715 169.437215 
L 198.553797 143.487548 
L 198.762879 176.900937 
L 198.971961 177.592781 
L 199.181043 180.052137 
L 199.390125 179.986732 
L 199.599207 180.06 
L 199.808289 169.698978 
L 200.017371 178.56476 
L 200.226453 180.06 
L 200.435535 171.158547 
L 200.644617 174.717733 
L 200.853699 139.387695 
L 201.271864 176.758234 
L 201.480946 160.422495 
L 201.690028 180.06 
L 202.108192 180.06 
L 202.317274 173.139636 
L 202.526356 180.057828 
L 202.735438 179.599713 
L 202.94452 180.053647 
L 203.153602 172.668325 
L 203.362684 179.643962 
L 203.571766 170.494366 
L 203.780848 177.277817 
L 203.98993 170.698851 
L 204.199012 176.858572 
L 204.408094 91.424673 
L 204.617176 179.474334 
L 204.826258 159.306433 
L 205.03534 179.999884 
L 205.244422 176.736287 
L 205.453504 180.059705 
L 205.662586 177.628019 
L 205.871668 180.052997 
L 206.08075 174.13635 
L 206.289832 180.06 
L 206.707996 179.969371 
L 206.917078 179.738466 
L 207.12616 180.06 
L 207.335242 179.332956 
L 207.544324 180.06 
L 207.753406 153.370193 
L 207.962488 169.400505 
L 208.17157 171.210767 
L 208.380652 147.283645 
L 208.589734 179.980682 
L 208.798816 180.06 
L 209.007898 179.907433 
L 209.21698 171.592353 
L 209.426062 178.016068 
L 209.635144 170.315382 
L 209.844226 179.944967 
L 210.26239 172.735218 
L 210.889637 180.043342 
L 211.307801 180.06 
L 211.516883 179.77332 
L 211.725965 167.104589 
L 211.935047 175.507624 
L 212.144129 165.566998 
L 212.353211 180.06 
L 212.562293 180.06 
L 212.771375 177.853107 
L 212.980457 170.467932 
L 213.189539 180.018685 
L 213.398621 180.059999 
L 213.607703 175.537216 
L 213.816785 180.06 
L 214.025867 180.059432 
L 214.234949 173.502473 
L 214.444031 163.139347 
L 214.653113 176.311547 
L 214.862195 179.225345 
L 215.071277 176.306742 
L 215.280359 145.543069 
L 215.489441 180.06 
L 215.698523 177.464412 
L 215.907605 170.451971 
L 216.116687 180.06 
L 216.325769 179.863505 
L 216.953015 168.333958 
L 217.162097 180.06 
L 217.371179 180.06 
L 217.580261 179.203772 
L 217.789343 179.977546 
L 217.998425 174.235756 
L 218.207507 180.026421 
L 218.416589 180.058172 
L 218.834753 171.670722 
L 219.043835 180.06 
L 219.252917 177.783134 
L 219.461999 180.028511 
L 219.671081 179.947037 
L 219.880164 157.174605 
L 220.089246 176.680284 
L 220.298328 172.265827 
L 220.50741 180.06 
L 220.716492 180.06 
L 220.925574 179.563836 
L 221.134656 176.460187 
L 221.343738 167.00702 
L 221.55282 178.603777 
L 221.761902 180.058358 
L 221.970984 173.740654 
L 222.180066 179.984197 
L 222.389148 180.06 
L 223.225476 173.678587 
L 223.434558 180.059997 
L 223.64364 172.419708 
L 223.852722 179.306149 
L 224.061804 172.270246 
L 224.270886 180.06 
L 224.479968 180.06 
L 224.68905 176.797455 
L 224.898132 180.06 
L 225.107214 176.676478 
L 225.316296 180.06 
L 226.361706 180.06 
L 226.570788 174.32004 
L 226.77987 180.06 
L 226.988952 169.588619 
L 227.198034 168.256099 
L 227.407116 176.431758 
L 227.616198 174.846992 
L 227.82528 174.242314 
L 228.243444 179.910968 
L 228.452526 178.324755 
L 228.661608 114.117087 
L 229.079773 166.014667 
L 229.288855 179.64822 
L 229.497937 180.06 
L 229.707019 174.237942 
L 229.916101 92.582717 
L 230.125183 176.190969 
L 230.543347 180.059999 
L 230.961511 180.009591 
L 231.170593 177.8583 
L 231.379675 20.870303 
L 231.588757 176.784476 
L 232.006921 180.059954 
L 232.216003 179.818833 
L 232.634167 180.06 
L 232.843249 179.968433 
L 233.052331 178.113488 
L 233.261413 179.431938 
L 233.470495 175.825733 
L 233.679577 157.898807 
L 233.888659 180.06 
L 234.097741 166.527594 
L 234.306823 180.06 
L 234.934069 180.06 
L 235.143151 176.036987 
L 235.352233 163.807993 
L 235.561315 138.24377 
L 235.770397 169.626872 
L 235.979479 136.628023 
L 236.188561 173.895019 
L 236.397643 172.341469 
L 236.606725 180.056014 
L 237.024889 180.059869 
L 237.233971 165.434405 
L 237.443053 178.430469 
L 237.652135 90.226561 
L 237.861217 173.031375 
L 238.070299 173.007977 
L 238.279381 174.319787 
L 238.488464 166.027223 
L 238.697546 180.06 
L 238.906628 180.06 
L 239.11571 177.610716 
L 239.324792 180.006782 
L 239.533874 167.390354 
L 239.742956 180.06 
L 240.16112 179.005981 
L 240.370202 179.784121 
L 240.579284 178.216954 
L 240.788366 173.405784 
L 240.997448 173.056683 
L 241.20653 179.007627 
L 241.415612 174.129526 
L 241.624694 180.06 
L 241.833776 176.821151 
L 242.25194 180.06 
L 242.879186 180.04636 
L 243.088268 174.256734 
L 243.29735 176.357833 
L 243.506432 174.749263 
L 243.715514 166.866699 
L 243.924596 178.610364 
L 244.133678 180.034391 
L 244.34276 152.336322 
L 244.551842 174.614869 
L 244.760924 172.612131 
L 245.179088 179.527638 
L 245.38817 179.803021 
L 245.597252 127.416616 
L 245.806334 179.468304 
L 246.015416 163.604492 
L 246.224498 179.9591 
L 246.43358 176.85523 
L 246.642662 179.592631 
L 246.851744 179.75413 
L 247.060826 178.779633 
L 247.269908 170.396048 
L 247.47899 180.06 
L 247.688073 180.06 
L 247.897155 159.863119 
L 248.106237 173.98532 
L 248.315319 175.308406 
L 248.524401 100.88905 
L 248.733483 174.880841 
L 248.942565 165.539665 
L 249.151647 175.458982 
L 249.360729 180.059373 
L 249.569811 179.489013 
L 249.778893 128.541103 
L 249.987975 180.06 
L 250.824303 180.06 
L 251.033385 178.401083 
L 251.242467 174.907688 
L 251.451549 162.847448 
L 251.869713 177.618117 
L 252.078795 180.06 
L 252.287877 170.59852 
L 252.496959 178.555934 
L 252.706041 179.842198 
L 252.915123 179.17814 
L 253.124205 175.192473 
L 253.333287 173.617941 
L 253.542369 180.06 
L 253.751451 37.902191 
L 253.960533 179.774718 
L 254.169615 180.06 
L 254.587779 180.06 
L 254.796861 177.702686 
L 255.005943 180.06 
L 255.215025 179.981559 
L 255.424107 180.06 
L 255.842271 163.246924 
L 256.051353 180.045251 
L 256.260435 179.869863 
L 256.469517 176.209017 
L 256.678599 180.06 
L 257.096764 180.05993 
L 257.305846 168.363455 
L 257.514928 180.06 
L 257.72401 173.704589 
L 257.933092 175.815424 
L 258.142174 157.821909 
L 258.560338 180.058505 
L 258.76942 166.830155 
L 258.978502 180.06 
L 259.187584 175.45832 
L 259.396666 163.650195 
L 259.605748 175.05022 
L 259.81483 171.188954 
L 260.023912 180.057818 
L 260.232994 180.06 
L 260.442076 166.704611 
L 260.651158 180.06 
L 260.86024 180.049312 
L 261.069322 174.413697 
L 261.278404 164.863431 
L 261.487486 180.038207 
L 261.90565 179.096045 
L 262.114732 173.12219 
L 262.323814 180.06 
L 262.532896 178.247777 
L 262.741978 171.385338 
L 262.95106 177.306306 
L 263.160142 180.058813 
L 263.369224 153.443113 
L 263.578306 180.038189 
L 263.99647 167.207459 
L 264.205552 173.819513 
L 264.414634 171.0579 
L 264.623716 179.519278 
L 264.832798 178.63981 
L 265.250962 161.265047 
L 265.460044 172.525074 
L 265.878208 180.06 
L 266.087291 180.059994 
L 266.296373 161.308553 
L 266.505455 175.748481 
L 266.505455 175.748481 
" clip-path="url(#p02a7c0caeb)" style="fill: none; stroke: #4169e1; stroke-opacity: 0.8; stroke-width: 1.5; stroke-linecap: square"/>
   </g>
   <g id="patch_3">
    <path d="M 41.92 188.12 
L 41.92 10.8 
" style="fill: none; stroke: #000000; stroke-width: 1.5; stroke-linejoin: miter; stroke-linecap: square"/>
   </g>
   <g id="patch_4">
    <path d="M 277.2 188.12 
L 277.2 10.8 
" style="fill: none; stroke: #000000; stroke-width: 1.5; stroke-linejoin: miter; stroke-linecap: square"/>
   </g>
   <g id="patch_5">
    <path d="M 41.92 188.12 
L 277.2 188.12 
" style="fill: none; stroke: #000000; stroke-width: 1.5; stroke-linejoin: miter; stroke-linecap: square"/>
   </g>
   <g id="patch_6">
    <path d="M 41.92 10.8 
L 277.2 10.8 
" style="fill: none; stroke: #000000; stroke-width: 1.5; stroke-linejoin: miter; stroke-linecap: square"/>
   </g>
   <g id="legend_1">
    <g id="patch_7">
     <path d="M 46.82 184.62 
L 83.6925 184.62 
Q 85.0925 184.62 85.0925 183.22 
L 85.0925 163.370625 
Q 85.0925 161.970625 83.6925 161.970625 
L 46.82 161.970625 
Q 45.42 161.970625 45.42 163.370625 
L 45.42 183.22 
Q 45.42 184.62 46.82 184.62 
z
" style="fill: #ffffff; opacity: 0.8; stroke: #000000; stroke-width: 1.5; stroke-linejoin: miter"/>
    </g>
    <g id="line2d_17">
     <path d="M 48.22 167.639531 
L 55.22 167.639531 
L 62.22 167.639531 
" style="fill: none; stroke: #20b2aa; stroke-width: 1.5; stroke-linecap: square"/>
    </g>
    <g id="text_15">
     <!-- Max -->
     <g transform="translate(67.82 170.089531)scale(0.07 -0.07)">
      <defs>
       <path id="DejaVuSans-4d" d="M 628 4666 
L 1569 4666 
L 2759 1491 
L 3956 4666 
L 4897 4666 
L 4897 0 
L 4281 0 
L 4281 4097 
L 3078 897 
L 2444 897 
L 1241 4097 
L 1241 0 
L 628 0 
L 628 4666 
z
" transform="scale(0.015625)"/>
       <path id="DejaVuSans-61" d="M 2194 1759 
Q 1497 1759 1228 1600 
Q 959 1441 959 1056 
Q 959 750 1161 570 
Q 1363 391 1709 391 
Q 2188 391 2477 730 
Q 2766 1069 2766 1631 
L 2766 1759 
L 2194 1759 
z
M 3341 1997 
L 3341 0 
L 2766 0 
L 2766 531 
Q 2569 213 2275 61 
Q 1981 -91 1556 -91 
Q 1019 -91 701 211 
Q 384 513 384 1019 
Q 384 1609 779 1909 
Q 1175 2209 1959 2209 
L 2766 2209 
L 2766 2266 
Q 2766 2663 2505 2880 
Q 2244 3097 1772 3097 
Q 1472 3097 1187 3025 
Q 903 2953 641 2809 
L 641 3341 
Q 956 3463 1253 3523 
Q 1550 3584 1831 3584 
Q 2591 3584 2966 3190 
Q 3341 2797 3341 1997 
z
" transform="scale(0.015625)"/>
       <path id="DejaVuSans-78" d="M 3513 3500 
L 2247 1797 
L 3578 0 
L 2900 0 
L 1881 1375 
L 863 0 
L 184 0 
L 1544 1831 
L 300 3500 
L 978 3500 
L 1906 2253 
L 2834 3500 
L 3513 3500 
z
" transform="scale(0.015625)"/>
      </defs>
      <use xlink:href="#DejaVuSans-4d"/>
      <use xlink:href="#DejaVuSans-61" x="86.279297"/>
      <use xlink:href="#DejaVuSans-78" x="147.558594"/>
     </g>
    </g>
    <g id="line2d_18">
     <path d="M 48.22 177.914219 
L 55.22 177.914219 
L 62.22 177.914219 
" style="fill: none; stroke: #4169e1; stroke-opacity: 0.8; stroke-width: 1.5; stroke-linecap: square"/>
    </g>
    <g id="text_16">
     <!-- Min -->
     <g transform="translate(67.82 180.364219)scale(0.07 -0.07)">
      <defs>
       <path id="DejaVuSans-69" d="M 603 3500 
L 1178 3500 
L 1178 0 
L 603 0 
L 603 3500 
z
M 603 4863 
L 1178 4863 
L 1178 4134 
L 603 4134 
L 603 4863 
z
" transform="scale(0.015625)"/>
       <path id="DejaVuSans-6e" d="M 3513 2113 
L 3513 0 
L 2938 0 
L 2938 2094 
Q 2938 2591 2744 2837 
Q 2550 3084 2163 3084 
Q 1697 3084 1428 2787 
Q 1159 2491 1159 1978 
L 1159 0 
L 581 0 
L 581 3500 
L 1159 3500 
L 1159 2956 
Q 1366 3272 1645 3428 
Q 1925 3584 2291 3584 
Q 2894 3584 3203 3211 
Q 3513 2838 3513 2113 
z
" transform="scale(0.015625)"/>
      </defs>
      <use xlink:href="#DejaVuSans-4d"/>
      <use xlink:href="#DejaVuSans-69" x="86.279297"/>
      <use xlink:href="#DejaVuSans-6e" x="114.0625"/>
     </g>
    </g>
   </g>
  </g>
 </g>
 <defs>
  <clipPath id="p02a7c0caeb">
   <rect x="41.92" y="10.8" width="235.28" height="177.32"/>
  </clipPath>
 </defs>
</svg>
