<?xml version="1.0" encoding="utf-8" standalone="no"?>
<!DOCTYPE svg PUBLIC "-//W3C//DTD SVG 1.1//EN"
  "http://www.w3.org/Graphics/SVG/1.1/DTD/svg11.dtd">
<svg xmlns:xlink="http://www.w3.org/1999/xlink" width="288pt" height="216pt" viewBox="0 0 288 216" xmlns="http://www.w3.org/2000/svg" version="1.1">
 <metadata>
  <rdf:RDF xmlns:dc="http://purl.org/dc/elements/1.1/" xmlns:cc="http://creativecommons.org/ns#" xmlns:rdf="http://www.w3.org/1999/02/22-rdf-syntax-ns#">
   <cc:Work>
    <dc:type rdf:resource="http://purl.org/dc/dcmitype/StillImage"/>
    <dc:date>2023-07-07T20:33:54.867506</dc:date>
    <dc:format>image/svg+xml</dc:format>
    <dc:creator>
     <cc:Agent>
      <dc:title>Matplotlib v3.5.2, https://matplotlib.org/</dc:title>
     </cc:Agent>
    </dc:creator>
   </cc:Work>
  </rdf:RDF>
 </metadata>
 <defs>
  <style type="text/css">*{stroke-linejoin: round; stroke-linecap: butt}</style>
 </defs>
 <g id="figure_1">
  <g id="patch_1">
   <path d="M 0 216 
L 288 216 
L 288 0 
L 0 0 
z
" style="fill: #ffffff"/>
  </g>
  <g id="axes_1">
   <g id="patch_2">
    <path d="M 24.19 188.12 
L 277.2 188.12 
L 277.2 10.8 
L 24.19 10.8 
z
" style="fill: #ffffff"/>
   </g>
   <g id="matplotlib.axis_1">
    <g id="xtick_1">
     <g id="line2d_1">
      <defs>
       <path id="ma7df19e1e0" d="M 0 0 
L 0 3.5 
" style="stroke: #000000; stroke-width: 0.8"/>
      </defs>
      <g>
       <use xlink:href="#ma7df19e1e0" x="35.690455" y="188.12" style="stroke: #000000; stroke-width: 0.8"/>
      </g>
     </g>
     <g id="text_1">
      <!-- 0 -->
      <g transform="translate(32.509205 202.718437)scale(0.1 -0.1)">
       <defs>
        <path id="DejaVuSans-30" d="M 2034 4250 
Q 1547 4250 1301 3770 
Q 1056 3291 1056 2328 
Q 1056 1369 1301 889 
Q 1547 409 2034 409 
Q 2525 409 2770 889 
Q 3016 1369 3016 2328 
Q 3016 3291 2770 3770 
Q 2525 4250 2034 4250 
z
M 2034 4750 
Q 2819 4750 3233 4129 
Q 3647 3509 3647 2328 
Q 3647 1150 3233 529 
Q 2819 -91 2034 -91 
Q 1250 -91 836 529 
Q 422 1150 422 2328 
Q 422 3509 836 4129 
Q 1250 4750 2034 4750 
z
" transform="scale(0.015625)"/>
       </defs>
       <use xlink:href="#DejaVuSans-30"/>
      </g>
     </g>
    </g>
    <g id="xtick_2">
     <g id="line2d_2">
      <g>
       <use xlink:href="#ma7df19e1e0" x="80.702018" y="188.12" style="stroke: #000000; stroke-width: 0.8"/>
      </g>
     </g>
     <g id="text_2">
      <!-- 100 -->
      <g transform="translate(71.158268 202.718437)scale(0.1 -0.1)">
       <defs>
        <path id="DejaVuSans-31" d="M 794 531 
L 1825 531 
L 1825 4091 
L 703 3866 
L 703 4441 
L 1819 4666 
L 2450 4666 
L 2450 531 
L 3481 531 
L 3481 0 
L 794 0 
L 794 531 
z
" transform="scale(0.015625)"/>
       </defs>
       <use xlink:href="#DejaVuSans-31"/>
       <use xlink:href="#DejaVuSans-30" x="63.623047"/>
       <use xlink:href="#DejaVuSans-30" x="127.246094"/>
      </g>
     </g>
    </g>
    <g id="xtick_3">
     <g id="line2d_3">
      <g>
       <use xlink:href="#ma7df19e1e0" x="125.713582" y="188.12" style="stroke: #000000; stroke-width: 0.8"/>
      </g>
     </g>
     <g id="text_3">
      <!-- 200 -->
      <g transform="translate(116.169832 202.718437)scale(0.1 -0.1)">
       <defs>
        <path id="DejaVuSans-32" d="M 1228 531 
L 3431 531 
L 3431 0 
L 469 0 
L 469 531 
Q 828 903 1448 1529 
Q 2069 2156 2228 2338 
Q 2531 2678 2651 2914 
Q 2772 3150 2772 3378 
Q 2772 3750 2511 3984 
Q 2250 4219 1831 4219 
Q 1534 4219 1204 4116 
Q 875 4013 500 3803 
L 500 4441 
Q 881 4594 1212 4672 
Q 1544 4750 1819 4750 
Q 2544 4750 2975 4387 
Q 3406 4025 3406 3419 
Q 3406 3131 3298 2873 
Q 3191 2616 2906 2266 
Q 2828 2175 2409 1742 
Q 1991 1309 1228 531 
z
" transform="scale(0.015625)"/>
       </defs>
       <use xlink:href="#DejaVuSans-32"/>
       <use xlink:href="#DejaVuSans-30" x="63.623047"/>
       <use xlink:href="#DejaVuSans-30" x="127.246094"/>
      </g>
     </g>
    </g>
    <g id="xtick_4">
     <g id="line2d_4">
      <g>
       <use xlink:href="#ma7df19e1e0" x="170.725146" y="188.12" style="stroke: #000000; stroke-width: 0.8"/>
      </g>
     </g>
     <g id="text_4">
      <!-- 300 -->
      <g transform="translate(161.181396 202.718437)scale(0.1 -0.1)">
       <defs>
        <path id="DejaVuSans-33" d="M 2597 2516 
Q 3050 2419 3304 2112 
Q 3559 1806 3559 1356 
Q 3559 666 3084 287 
Q 2609 -91 1734 -91 
Q 1441 -91 1130 -33 
Q 819 25 488 141 
L 488 750 
Q 750 597 1062 519 
Q 1375 441 1716 441 
Q 2309 441 2620 675 
Q 2931 909 2931 1356 
Q 2931 1769 2642 2001 
Q 2353 2234 1838 2234 
L 1294 2234 
L 1294 2753 
L 1863 2753 
Q 2328 2753 2575 2939 
Q 2822 3125 2822 3475 
Q 2822 3834 2567 4026 
Q 2313 4219 1838 4219 
Q 1578 4219 1281 4162 
Q 984 4106 628 3988 
L 628 4550 
Q 988 4650 1302 4700 
Q 1616 4750 1894 4750 
Q 2613 4750 3031 4423 
Q 3450 4097 3450 3541 
Q 3450 3153 3228 2886 
Q 3006 2619 2597 2516 
z
" transform="scale(0.015625)"/>
       </defs>
       <use xlink:href="#DejaVuSans-33"/>
       <use xlink:href="#DejaVuSans-30" x="63.623047"/>
       <use xlink:href="#DejaVuSans-30" x="127.246094"/>
      </g>
     </g>
    </g>
    <g id="xtick_5">
     <g id="line2d_5">
      <g>
       <use xlink:href="#ma7df19e1e0" x="215.73671" y="188.12" style="stroke: #000000; stroke-width: 0.8"/>
      </g>
     </g>
     <g id="text_5">
      <!-- 400 -->
      <g transform="translate(206.19296 202.718437)scale(0.1 -0.1)">
       <defs>
        <path id="DejaVuSans-34" d="M 2419 4116 
L 825 1625 
L 2419 1625 
L 2419 4116 
z
M 2253 4666 
L 3047 4666 
L 3047 1625 
L 3713 1625 
L 3713 1100 
L 3047 1100 
L 3047 0 
L 2419 0 
L 2419 1100 
L 313 1100 
L 313 1709 
L 2253 4666 
z
" transform="scale(0.015625)"/>
       </defs>
       <use xlink:href="#DejaVuSans-34"/>
       <use xlink:href="#DejaVuSans-30" x="63.623047"/>
       <use xlink:href="#DejaVuSans-30" x="127.246094"/>
      </g>
     </g>
    </g>
    <g id="xtick_6">
     <g id="line2d_6">
      <g>
       <use xlink:href="#ma7df19e1e0" x="260.748273" y="188.12" style="stroke: #000000; stroke-width: 0.8"/>
      </g>
     </g>
     <g id="text_6">
      <!-- 500 -->
      <g transform="translate(251.204523 202.718437)scale(0.1 -0.1)">
       <defs>
        <path id="DejaVuSans-35" d="M 691 4666 
L 3169 4666 
L 3169 4134 
L 1269 4134 
L 1269 2991 
Q 1406 3038 1543 3061 
Q 1681 3084 1819 3084 
Q 2600 3084 3056 2656 
Q 3513 2228 3513 1497 
Q 3513 744 3044 326 
Q 2575 -91 1722 -91 
Q 1428 -91 1123 -41 
Q 819 9 494 109 
L 494 744 
Q 775 591 1075 516 
Q 1375 441 1709 441 
Q 2250 441 2565 725 
Q 2881 1009 2881 1497 
Q 2881 1984 2565 2268 
Q 2250 2553 1709 2553 
Q 1456 2553 1204 2497 
Q 953 2441 691 2322 
L 691 4666 
z
" transform="scale(0.015625)"/>
       </defs>
       <use xlink:href="#DejaVuSans-35"/>
       <use xlink:href="#DejaVuSans-30" x="63.623047"/>
       <use xlink:href="#DejaVuSans-30" x="127.246094"/>
      </g>
     </g>
    </g>
   </g>
   <g id="matplotlib.axis_2">
    <g id="ytick_1">
     <g id="line2d_7">
      <defs>
       <path id="m1bd7a0ede6" d="M 0 0 
L -3.5 0 
" style="stroke: #000000; stroke-width: 0.8"/>
      </defs>
      <g>
       <use xlink:href="#m1bd7a0ede6" x="24.19" y="164.658816" style="stroke: #000000; stroke-width: 0.8"/>
      </g>
     </g>
     <g id="text_7">
      <!-- 0 -->
      <g transform="translate(10.8275 168.458034)scale(0.1 -0.1)">
       <use xlink:href="#DejaVuSans-30"/>
      </g>
     </g>
    </g>
    <g id="ytick_2">
     <g id="line2d_8">
      <g>
       <use xlink:href="#m1bd7a0ede6" x="24.19" y="123.588991" style="stroke: #000000; stroke-width: 0.8"/>
      </g>
     </g>
     <g id="text_8">
      <!-- 1 -->
      <g transform="translate(10.8275 127.38821)scale(0.1 -0.1)">
       <use xlink:href="#DejaVuSans-31"/>
      </g>
     </g>
    </g>
    <g id="ytick_3">
     <g id="line2d_9">
      <g>
       <use xlink:href="#m1bd7a0ede6" x="24.19" y="82.519166" style="stroke: #000000; stroke-width: 0.8"/>
      </g>
     </g>
     <g id="text_9">
      <!-- 2 -->
      <g transform="translate(10.8275 86.318385)scale(0.1 -0.1)">
       <use xlink:href="#DejaVuSans-32"/>
      </g>
     </g>
    </g>
    <g id="ytick_4">
     <g id="line2d_10">
      <g>
       <use xlink:href="#m1bd7a0ede6" x="24.19" y="41.449342" style="stroke: #000000; stroke-width: 0.8"/>
      </g>
     </g>
     <g id="text_10">
      <!-- 3 -->
      <g transform="translate(10.8275 45.24856)scale(0.1 -0.1)">
       <use xlink:href="#DejaVuSans-33"/>
      </g>
     </g>
    </g>
   </g>
   <g id="line2d_11">
    <path d="M 35.690455 38.851163 
L 36.14057 162.17999 
L 36.590686 42.640985 
L 37.040801 131.606975 
L 37.941033 49.439321 
L 38.391148 142.815879 
L 38.841264 107.122189 
L 39.29138 149.650077 
L 39.741495 154.106473 
L 40.191611 112.622644 
L 40.641727 123.920831 
L 41.091842 88.411319 
L 41.541958 142.316754 
L 41.992073 163.885237 
L 42.442189 147.338751 
L 42.892305 140.868658 
L 43.34242 106.451572 
L 43.792536 99.482389 
L 44.242652 88.551479 
L 44.692767 67.128263 
L 45.142883 39.828033 
L 45.592999 100.231883 
L 46.043114 71.258302 
L 46.49323 149.722014 
L 46.943345 103.121647 
L 47.393461 43.567839 
L 47.843577 129.7367 
L 48.293692 106.562386 
L 48.743808 118.04857 
L 49.193924 112.126072 
L 49.644039 121.561568 
L 50.094155 78.448584 
L 50.544271 107.726206 
L 50.994386 112.171585 
L 51.444502 144.350368 
L 51.894618 149.956524 
L 52.344733 164.756146 
L 52.794849 111.721323 
L 53.244964 126.320397 
L 53.69508 147.642826 
L 54.145196 39.301293 
L 54.595311 162.780337 
L 55.045427 95.865681 
L 55.495543 146.322992 
L 55.945658 115.719314 
L 56.395774 27.489473 
L 57.296005 164.720629 
L 57.746121 154.271536 
L 58.196236 126.622699 
L 58.646352 154.146256 
L 59.096468 128.427947 
L 59.546583 90.066184 
L 59.996699 148.003992 
L 60.89693 119.513292 
L 61.347046 122.272179 
L 61.797162 106.722179 
L 62.247277 175.607256 
L 62.697393 144.123578 
L 63.147508 80.102783 
L 63.597624 145.928326 
L 64.04774 43.992842 
L 64.497855 36.662851 
L 64.947971 139.290524 
L 65.398087 92.030019 
L 65.848202 85.228114 
L 66.298318 136.669076 
L 66.748434 109.180329 
L 67.198549 32.856539 
L 67.648665 139.507401 
L 68.09878 148.877603 
L 68.999012 62.573975 
L 69.449127 18.86 
L 69.899243 141.638057 
L 70.349359 161.077162 
L 70.799474 95.685546 
L 71.24959 128.312721 
L 71.699706 42.706267 
L 72.149821 164.68395 
L 72.599937 129.307949 
L 73.050052 162.272482 
L 73.500168 44.515294 
L 73.950284 90.831536 
L 74.400399 78.89181 
L 74.850515 36.74188 
L 75.300631 76.341935 
L 75.750746 145.423225 
L 76.200862 128.355352 
L 76.650978 154.213284 
L 77.101093 155.386878 
L 77.551209 138.743446 
L 78.001324 150.081012 
L 78.45144 96.188042 
L 78.901556 143.99578 
L 79.351671 160.470629 
L 79.801787 26.147495 
L 80.251903 136.082444 
L 80.702018 160.792428 
L 81.152134 132.885354 
L 81.60225 160.149321 
L 82.052365 129.432356 
L 82.502481 158.284223 
L 82.952597 141.696462 
L 83.402712 144.033026 
L 83.852828 35.633252 
L 84.302943 40.506939 
L 84.753059 142.640826 
L 85.203175 130.856305 
L 85.65329 93.056333 
L 86.103406 94.905658 
L 87.003637 150.987506 
L 87.453753 88.12153 
L 87.903869 96.921096 
L 88.353984 98.866631 
L 88.8041 101.876976 
L 89.254215 103.518431 
L 89.704331 159.035649 
L 90.154447 124.37355 
L 90.604562 167.403929 
L 91.054678 139.058187 
L 91.504794 147.840626 
L 91.954909 105.433224 
L 92.405025 155.102167 
L 92.855141 153.325855 
L 93.305256 80.272788 
L 93.755372 121.449686 
L 94.205487 118.023924 
L 94.655603 145.865915 
L 95.105719 138.731055 
L 95.555834 171.334859 
L 96.00595 128.438448 
L 96.456066 30.778238 
L 96.906181 88.456136 
L 97.356297 106.100923 
L 97.806413 137.532486 
L 98.256528 77.788655 
L 98.706644 122.738117 
L 99.156759 126.682774 
L 99.606875 85.386095 
L 100.056991 98.820379 
L 100.507106 152.67428 
L 100.957222 58.295209 
L 101.407338 87.72058 
L 101.857453 142.754524 
L 102.307569 157.602804 
L 102.757685 120.174254 
L 103.2078 34.864908 
L 103.657916 118.930342 
L 104.108031 142.614334 
L 104.558147 130.341435 
L 105.008263 148.291681 
L 105.458378 134.176093 
L 105.908494 23.007458 
L 106.35861 124.097039 
L 106.808725 35.90424 
L 107.258841 35.245153 
L 107.708957 105.704075 
L 108.159072 132.375177 
L 108.609188 121.083287 
L 109.059304 58.590756 
L 109.509419 128.749338 
L 109.959535 79.49056 
L 110.40965 44.448857 
L 110.859766 111.501566 
L 111.309882 46.648068 
L 111.759997 162.018363 
L 112.210113 35.358425 
L 112.660229 92.925554 
L 113.110344 35.053302 
L 113.56046 106.162689 
L 114.010576 145.935022 
L 114.460691 139.040368 
L 114.910807 146.005732 
L 115.360922 127.383596 
L 115.811038 160.5443 
L 116.261154 152.741153 
L 116.711269 127.134605 
L 117.161385 175.143263 
L 117.611501 148.987177 
L 118.061616 140.217706 
L 118.511732 66.199873 
L 118.961848 133.044491 
L 119.411963 147.943602 
L 119.862079 45.97635 
L 120.312194 127.20776 
L 120.76231 98.008756 
L 121.212426 155.092708 
L 121.662541 105.693583 
L 122.112657 145.225426 
L 122.562773 142.703692 
L 123.012888 124.159836 
L 123.463004 41.031476 
L 123.91312 148.008128 
L 124.363235 26.851996 
L 124.813351 123.839177 
L 125.263466 155.416487 
L 125.713582 136.052882 
L 126.163698 125.702898 
L 126.613813 131.856093 
L 127.063929 170.676239 
L 127.514045 112.45212 
L 127.96416 136.234422 
L 128.414276 96.257819 
L 128.864392 129.910431 
L 129.314507 51.715447 
L 129.764623 119.010135 
L 130.664854 153.515903 
L 131.11497 158.153529 
L 131.565085 88.021326 
L 132.015201 90.495652 
L 132.465317 71.432048 
L 132.915432 147.216559 
L 133.365548 151.269526 
L 133.815664 21.924601 
L 134.265779 37.41775 
L 134.715895 161.066507 
L 135.16601 119.36738 
L 135.616126 147.402858 
L 136.066242 112.940536 
L 136.516357 164.069709 
L 136.966473 141.931596 
L 137.416589 151.633746 
L 137.866704 84.927643 
L 138.31682 148.569764 
L 138.766936 105.797239 
L 139.217051 152.074444 
L 139.667167 152.282851 
L 140.117283 138.074563 
L 140.567398 89.425927 
L 141.017514 168.018612 
L 141.467629 90.344349 
L 141.917745 156.699989 
L 142.367861 82.910751 
L 142.817976 32.108749 
L 143.268092 83.236083 
L 143.718208 158.104434 
L 144.618439 52.024545 
L 145.068555 113.335806 
L 145.51867 101.912412 
L 145.968786 98.566297 
L 146.418901 161.373766 
L 146.869017 129.204496 
L 147.319133 154.653884 
L 147.769248 158.927533 
L 148.219364 145.271005 
L 148.66948 76.653755 
L 149.119595 88.449781 
L 149.569711 37.494861 
L 150.019827 136.69688 
L 150.469942 151.1455 
L 150.920058 155.870657 
L 151.370173 105.041894 
L 151.820289 119.61407 
L 152.270405 37.177263 
L 152.72052 32.317109 
L 153.170636 36.4169 
L 153.620752 155.194233 
L 154.070867 95.0382 
L 154.520983 158.801612 
L 154.971099 88.211135 
L 155.421214 97.319672 
L 155.87133 156.953623 
L 156.321445 128.840466 
L 156.771561 151.482666 
L 157.221677 101.177385 
L 157.671792 155.228756 
L 158.121908 135.646559 
L 158.572024 107.520637 
L 159.022139 153.77509 
L 159.472255 153.763827 
L 159.922371 33.671218 
L 160.372486 37.18211 
L 160.822602 35.998065 
L 161.272717 103.821194 
L 161.722833 144.664163 
L 162.172949 110.893661 
L 162.623064 102.618798 
L 163.07318 104.523389 
L 163.523296 143.903235 
L 163.973411 137.833954 
L 164.423527 153.134687 
L 164.873643 73.963093 
L 165.323758 81.441333 
L 165.773874 143.610609 
L 166.22399 87.766998 
L 166.674105 97.178788 
L 167.574336 169.586999 
L 168.024452 163.460591 
L 168.474568 39.835074 
L 168.924683 119.359644 
L 169.374799 147.564322 
L 169.824915 134.16417 
L 170.27503 144.380877 
L 170.725146 148.934918 
L 171.175262 25.91916 
L 171.625377 114.35036 
L 172.075493 93.13336 
L 172.525608 38.710631 
L 172.975724 33.963171 
L 173.42584 121.283113 
L 173.875955 120.22618 
L 174.326071 109.448032 
L 174.776187 148.685002 
L 175.226302 71.963175 
L 175.676418 37.868516 
L 176.126534 107.966443 
L 176.576649 96.112146 
L 177.026765 87.892975 
L 177.47688 38.527857 
L 177.926996 99.66342 
L 178.377112 129.258422 
L 178.827227 37.653351 
L 179.277343 154.717976 
L 179.727459 70.407766 
L 180.177574 132.127853 
L 180.62769 157.884905 
L 181.077806 150.629217 
L 181.527921 129.889467 
L 181.978037 162.464961 
L 182.428152 35.251998 
L 182.878268 153.611255 
L 183.328384 151.71815 
L 183.778499 113.813284 
L 184.228615 104.972549 
L 184.678731 112.748787 
L 185.128846 174.094136 
L 185.578962 29.5722 
L 186.029078 35.87883 
L 186.479193 153.33937 
L 186.929309 144.710254 
L 187.379424 152.368225 
L 187.82954 151.309674 
L 188.279656 145.58661 
L 188.729771 161.609428 
L 189.179887 146.378106 
L 189.630003 88.10698 
L 190.080118 121.976843 
L 190.530234 35.893019 
L 190.98035 124.035302 
L 191.430465 93.386983 
L 191.880581 120.619772 
L 192.330696 139.304527 
L 192.780812 74.744509 
L 193.230928 157.059574 
L 193.681043 152.409032 
L 194.131159 153.869495 
L 194.581275 86.039268 
L 195.03139 60.928609 
L 195.481506 135.406819 
L 195.931622 147.388941 
L 196.381737 117.906589 
L 196.831853 31.821428 
L 197.281969 40.855997 
L 197.732084 157.965516 
L 198.632315 31.179281 
L 199.082431 37.683578 
L 199.532547 117.48747 
L 199.982662 40.260273 
L 200.432778 96.428774 
L 200.882894 113.316864 
L 201.333009 125.814571 
L 201.783125 39.319711 
L 202.233241 41.28388 
L 202.683356 140.24187 
L 203.133472 100.344998 
L 203.583587 138.202571 
L 204.033703 129.776293 
L 204.483819 154.376961 
L 204.933934 41.733304 
L 205.38405 37.199119 
L 205.834166 28.091845 
L 206.284281 106.71317 
L 206.734397 135.19203 
L 207.184513 78.371336 
L 207.634628 95.959722 
L 208.084744 34.910802 
L 208.534859 42.68685 
L 208.984975 130.404732 
L 209.435091 113.888079 
L 209.885206 148.337774 
L 210.335322 106.183428 
L 210.785438 127.489103 
L 211.235553 102.698793 
L 211.685669 119.785519 
L 212.135785 153.315795 
L 212.5859 82.707874 
L 213.036016 108.351144 
L 213.486131 158.480152 
L 213.936247 149.31936 
L 214.386363 62.746576 
L 214.836478 132.183512 
L 215.286594 175.85849 
L 215.73671 153.599611 
L 216.186825 97.242395 
L 216.636941 152.514068 
L 217.087057 33.92086 
L 217.537172 41.966976 
L 217.987288 144.887464 
L 218.437403 148.932654 
L 218.887519 98.261987 
L 219.337635 125.300281 
L 220.237866 164.524471 
L 220.687982 132.129084 
L 221.138097 121.317536 
L 221.588213 125.189144 
L 222.488444 94.439695 
L 222.93856 154.893817 
L 223.388676 43.887757 
L 223.838791 131.915564 
L 224.288907 131.20483 
L 224.739022 54.49256 
L 225.189138 128.904147 
L 225.639254 108.68949 
L 226.089369 133.231948 
L 226.539485 151.337573 
L 226.989601 97.655213 
L 227.439716 134.704508 
L 227.889832 107.703357 
L 228.339948 154.535408 
L 228.790063 83.820322 
L 229.240179 115.396875 
L 229.690294 42.792876 
L 230.14041 110.598913 
L 230.590526 148.444669 
L 231.040641 29.248483 
L 231.490757 153.26128 
L 231.940873 157.467907 
L 232.390988 153.372906 
L 232.841104 83.45944 
L 233.29122 91.817645 
L 233.741335 39.286311 
L 234.191451 143.421938 
L 234.641566 104.332287 
L 235.091682 130.714662 
L 235.541798 135.954744 
L 235.991913 163.113633 
L 236.442029 93.967128 
L 236.892145 150.235443 
L 237.34226 130.00773 
L 237.792376 169.707883 
L 238.242492 162.301246 
L 238.692607 19.696583 
L 239.142723 112.393732 
L 239.592838 141.414182 
L 240.042954 97.747506 
L 240.49307 144.04942 
L 240.943185 30.175336 
L 241.393301 134.32016 
L 241.843417 151.66837 
L 242.293532 123.798085 
L 242.743648 34.393335 
L 243.193764 76.99921 
L 243.643879 85.181892 
L 244.093995 113.104558 
L 244.54411 38.229129 
L 244.994226 107.642961 
L 245.444342 159.717285 
L 245.894457 35.140244 
L 246.344573 100.307564 
L 247.244804 151.06063 
L 247.69492 168.349859 
L 248.145036 124.616896 
L 248.595151 145.383368 
L 249.045267 139.598981 
L 249.495382 113.84876 
L 249.945498 109.06622 
L 250.395614 88.831652 
L 250.845729 150.797414 
L 251.295845 118.424654 
L 251.745961 94.458398 
L 252.196076 155.839221 
L 253.096308 45.019572 
L 253.546423 138.089221 
L 253.996539 132.111941 
L 254.446655 170.231843 
L 254.89677 114.664658 
L 255.346886 142.864136 
L 255.797001 95.554752 
L 256.247117 132.660441 
L 256.697233 116.685511 
L 257.147348 132.728627 
L 257.597464 164.89931 
L 258.04758 73.191352 
L 258.497695 98.681806 
L 258.947811 103.077236 
L 259.397927 123.645911 
L 259.848042 155.934924 
L 260.298158 140.664712 
L 260.748273 107.239529 
L 261.198389 123.020577 
L 261.648505 129.879724 
L 262.09862 109.814079 
L 262.548736 97.434657 
L 262.998852 153.620015 
L 263.448967 76.418908 
L 263.899083 162.328413 
L 264.349199 126.744783 
L 264.799314 77.508198 
L 265.24943 151.329143 
L 265.699545 153.879424 
L 265.699545 153.879424 
" clip-path="url(#pdd7b17ac02)" style="fill: none; stroke: #20b2aa; stroke-width: 1.5; stroke-linecap: square"/>
   </g>
   <g id="line2d_12">
    <path d="M 35.690455 55.537581 
L 36.14057 177.256975 
L 36.590686 56.92653 
L 37.040801 143.445745 
L 37.490917 110.222535 
L 37.941033 67.52352 
L 38.391148 156.784102 
L 38.841264 125.734269 
L 39.29138 170.952681 
L 39.741495 175.045897 
L 40.191611 127.895297 
L 40.641727 138.476088 
L 41.091842 115.586703 
L 41.541958 159.357112 
L 41.992073 180.059882 
L 42.892305 154.431282 
L 43.34242 124.912804 
L 43.792536 115.793095 
L 44.242652 109.57981 
L 45.142883 63.420086 
L 45.592999 115.379602 
L 46.043114 87.136533 
L 46.49323 168.519452 
L 46.943345 123.478251 
L 47.393461 62.633206 
L 47.843577 150.444875 
L 48.293692 121.278614 
L 48.743808 134.280883 
L 49.193924 129.990856 
L 49.644039 135.103792 
L 50.094155 109.608544 
L 50.544271 127.991369 
L 50.994386 127.018004 
L 51.444502 160.483372 
L 51.894618 173.188331 
L 52.344733 177.205027 
L 52.794849 127.985721 
L 53.244964 142.783674 
L 53.69508 170.659938 
L 54.145196 62.506902 
L 54.595311 176.109621 
L 55.045427 123.165603 
L 55.495543 160.317319 
L 55.945658 130.691482 
L 56.395774 58.822058 
L 57.296005 180.059984 
L 57.746121 178.142193 
L 58.196236 148.454943 
L 58.646352 175.690366 
L 59.096468 141.780288 
L 59.546583 116.670887 
L 59.996699 160.438404 
L 60.446815 152.501846 
L 60.89693 139.156335 
L 61.347046 139.949692 
L 61.797162 131.150069 
L 62.247277 180.06 
L 62.697393 160.996549 
L 63.147508 98.351014 
L 63.597624 165.064919 
L 64.04774 71.136815 
L 64.497855 52.1447 
L 64.947971 158.553901 
L 65.398087 114.258748 
L 65.848202 101.809687 
L 66.298318 158.252875 
L 66.748434 125.209599 
L 67.198549 53.741832 
L 67.648665 155.680946 
L 68.09878 169.096897 
L 68.548896 120.399838 
L 68.999012 88.699766 
L 69.449127 68.702463 
L 69.899243 165.389058 
L 70.349359 176.385005 
L 70.799474 110.421612 
L 71.24959 143.833686 
L 71.699706 55.368731 
L 72.149821 177.421382 
L 72.599937 152.40795 
L 73.050052 173.207093 
L 73.500168 58.853617 
L 73.950284 118.549543 
L 74.400399 105.947725 
L 74.850515 52.962962 
L 75.300631 101.72299 
L 75.750746 171.860959 
L 76.200862 147.365249 
L 76.650978 170.361268 
L 77.101093 173.507318 
L 77.551209 155.300785 
L 78.001324 166.698178 
L 78.45144 111.662651 
L 78.901556 165.249389 
L 79.351671 175.785588 
L 79.801787 57.918851 
L 80.251903 153.57795 
L 80.702018 175.655283 
L 81.152134 151.925427 
L 81.60225 174.596643 
L 82.052365 150.374899 
L 82.502481 178.485756 
L 82.952597 159.062676 
L 83.402712 170.497613 
L 83.852828 54.047102 
L 84.302943 63.880614 
L 84.753059 154.738379 
L 85.203175 152.506974 
L 85.65329 109.21813 
L 86.103406 109.150675 
L 86.553522 160.461957 
L 87.003637 164.035234 
L 87.453753 103.620936 
L 89.254215 125.522673 
L 89.704331 179.674603 
L 90.154447 141.893652 
L 90.604562 180.059973 
L 91.054678 154.180811 
L 91.504794 168.257449 
L 91.954909 129.157449 
L 92.405025 172.027233 
L 92.855141 169.717883 
L 93.305256 115.0996 
L 93.755372 138.79922 
L 94.205487 140.9162 
L 94.655603 165.661237 
L 95.105719 157.609876 
L 95.555834 180.06 
L 96.00595 149.427248 
L 96.456066 61.282054 
L 96.906181 107.02972 
L 97.356297 140.645417 
L 97.806413 162.887576 
L 98.256528 100.529559 
L 98.706644 139.123388 
L 99.156759 143.611988 
L 99.606875 96.749745 
L 100.056991 120.964992 
L 100.507106 164.998721 
L 100.957222 71.810814 
L 101.407338 105.966936 
L 101.857453 164.356607 
L 102.307569 177.249281 
L 102.757685 139.105415 
L 103.2078 58.628425 
L 103.657916 133.796791 
L 104.108031 160.719242 
L 104.558147 148.311875 
L 105.008263 170.734474 
L 105.458378 155.402311 
L 105.908494 65.283222 
L 106.35861 142.819385 
L 106.808725 61.889411 
L 107.258841 67.772672 
L 107.708957 116.509111 
L 108.159072 145.075285 
L 108.609188 144.120515 
L 109.059304 77.216931 
L 109.509419 153.202745 
L 110.40965 63.28538 
L 110.859766 134.96254 
L 111.309882 76.904543 
L 111.759997 179.337404 
L 112.210113 57.059904 
L 112.660229 115.588921 
L 113.110344 58.176298 
L 113.56046 125.80783 
L 114.010576 165.661749 
L 114.460691 160.767509 
L 114.910807 168.032975 
L 115.360922 143.655688 
L 115.811038 178.385095 
L 116.711269 151.430094 
L 117.161385 180.06 
L 117.611501 169.878142 
L 118.061616 156.864409 
L 118.511732 97.780915 
L 118.961848 147.170176 
L 119.411963 159.908861 
L 119.862079 61.559524 
L 120.312194 146.407596 
L 120.76231 120.210866 
L 121.212426 179.019554 
L 121.662541 126.892733 
L 122.112657 159.720994 
L 122.562773 159.071499 
L 123.012888 149.052728 
L 123.463004 55.753687 
L 123.91312 168.528147 
L 124.363235 56.568404 
L 124.813351 146.542271 
L 125.263466 180.039347 
L 125.713582 146.216034 
L 126.163698 142.942326 
L 126.613813 165.247949 
L 127.063929 180.06 
L 127.514045 125.624943 
L 127.96416 153.904685 
L 128.414276 112.374579 
L 128.864392 152.504919 
L 129.314507 66.191765 
L 129.764623 141.560469 
L 130.664854 170.019694 
L 131.11497 175.527407 
L 131.565085 105.074447 
L 132.015201 104.230981 
L 132.465317 94.830437 
L 132.915432 161.636373 
L 133.365548 166.91566 
L 133.815664 57.193611 
L 134.265779 61.929204 
L 134.715895 178.330459 
L 135.16601 135.139412 
L 135.616126 171.960536 
L 136.066242 135.191653 
L 136.516357 179.766522 
L 136.966473 167.630649 
L 137.416589 180.052635 
L 137.866704 102.057331 
L 138.31682 168.682179 
L 138.766936 136.426611 
L 139.217051 172.007176 
L 139.667167 178.39457 
L 140.117283 166.786728 
L 140.567398 110.471697 
L 141.017514 177.122323 
L 141.467629 108.848098 
L 141.917745 177.900262 
L 142.367861 104.233561 
L 142.817976 56.28313 
L 143.268092 101.774847 
L 143.718208 175.626827 
L 144.618439 78.574908 
L 145.068555 128.835482 
L 145.51867 115.89516 
L 145.968786 129.400895 
L 146.418901 174.181663 
L 146.869017 145.500982 
L 147.319133 173.688814 
L 147.769248 173.601141 
L 148.219364 161.899618 
L 148.66948 94.922285 
L 149.119595 116.355674 
L 149.569711 57.6485 
L 150.019827 150.022936 
L 150.469942 168.325964 
L 150.920058 171.516115 
L 151.370173 118.768664 
L 151.820289 134.817029 
L 152.270405 57.657723 
L 152.72052 52.607715 
L 153.170636 56.692065 
L 153.620752 176.3364 
L 154.070867 115.607203 
L 154.520983 179.488128 
L 154.971099 110.872907 
L 155.421214 119.03509 
L 155.87133 175.86588 
L 156.321445 142.063638 
L 156.771561 169.797544 
L 157.221677 116.885313 
L 157.671792 170.024009 
L 158.572024 125.244507 
L 159.022139 173.067488 
L 159.472255 178.7018 
L 159.922371 57.305483 
L 160.372486 54.301649 
L 160.822602 58.695792 
L 161.272717 119.472279 
L 161.722833 164.848958 
L 162.172949 126.717741 
L 162.623064 123.358213 
L 163.07318 122.212361 
L 163.523296 163.460939 
L 163.973411 160.5682 
L 164.423527 169.764663 
L 164.873643 97.473986 
L 165.323758 98.934474 
L 165.773874 159.961853 
L 166.22399 99.150383 
L 166.674105 118.667633 
L 167.124221 156.353455 
L 167.574336 180.06 
L 168.024452 177.508039 
L 168.474568 64.022615 
L 168.924683 141.008551 
L 169.374799 163.169561 
L 169.824915 161.638829 
L 170.27503 173.966856 
L 170.725146 165.735839 
L 171.175262 53.693999 
L 171.625377 133.857184 
L 172.075493 113.138311 
L 172.525608 59.604482 
L 172.975724 56.036807 
L 173.42584 148.012084 
L 173.875955 132.836449 
L 174.326071 130.229923 
L 174.776187 165.299794 
L 175.226302 94.714894 
L 175.676418 56.064557 
L 176.126534 118.059571 
L 177.026765 102.668693 
L 177.47688 54.599085 
L 177.926996 116.749226 
L 178.377112 140.107279 
L 178.827227 52.265433 
L 179.277343 178.89234 
L 179.727459 87.350156 
L 180.177574 153.048976 
L 180.62769 174.23015 
L 181.077806 169.334191 
L 181.527921 134.213716 
L 181.978037 179.012803 
L 182.428152 59.478853 
L 182.878268 173.287943 
L 183.328384 176.929339 
L 183.778499 125.561673 
L 184.228615 117.548541 
L 184.678731 128.47552 
L 185.128846 180.06 
L 185.578962 56.064028 
L 186.029078 51.175007 
L 186.479193 169.363393 
L 186.929309 164.141576 
L 187.379424 172.876987 
L 187.82954 163.164616 
L 188.279656 164.170754 
L 188.729771 176.169664 
L 189.179887 166.860235 
L 189.630003 106.760523 
L 190.080118 135.55103 
L 190.530234 56.057615 
L 190.98035 140.140461 
L 191.430465 113.336467 
L 191.880581 149.349627 
L 192.330696 171.307307 
L 192.780812 95.496976 
L 193.230928 178.096989 
L 193.681043 170.525578 
L 194.131159 167.870315 
L 194.581275 102.866668 
L 195.03139 85.551675 
L 195.481506 152.02222 
L 195.931622 170.039564 
L 196.381737 132.428921 
L 196.831853 55.1228 
L 197.281969 59.311717 
L 197.732084 176.875453 
L 198.632315 56.157834 
L 199.082431 61.002703 
L 199.532547 132.979943 
L 199.982662 56.778399 
L 200.432778 112.327392 
L 200.882894 127.259622 
L 201.333009 146.168007 
L 201.783125 60.132231 
L 202.233241 71.235311 
L 202.683356 158.308053 
L 203.133472 112.927145 
L 203.583587 154.331592 
L 204.033703 154.180863 
L 204.483819 176.763783 
L 204.933934 51.167771 
L 205.38405 53.968405 
L 205.834166 55.466659 
L 206.284281 123.337767 
L 206.734397 151.455935 
L 207.184513 94.294914 
L 207.634628 110.537376 
L 208.084744 57.491733 
L 208.534859 58.857132 
L 208.984975 141.721449 
L 209.435091 129.747398 
L 209.885206 167.940705 
L 210.335322 124.713299 
L 210.785438 140.781856 
L 211.235553 119.699454 
L 211.685669 138.880681 
L 212.135785 164.190276 
L 212.5859 126.699225 
L 213.036016 129.63713 
L 213.486131 174.776409 
L 213.936247 167.708026 
L 214.386363 86.884061 
L 214.836478 152.116852 
L 215.286594 180.06 
L 215.73671 176.285816 
L 216.186825 121.047605 
L 216.636941 167.583209 
L 217.087057 66.184382 
L 217.537172 61.26437 
L 217.987288 157.435819 
L 218.437403 179.297203 
L 218.887519 122.175945 
L 219.337635 135.227168 
L 219.78775 160.054397 
L 220.237866 177.380741 
L 220.687982 151.528489 
L 221.138097 141.138768 
L 221.588213 140.511663 
L 222.038329 133.370441 
L 222.488444 113.758582 
L 222.93856 174.546834 
L 223.388676 82.060322 
L 223.838791 148.046487 
L 224.288907 146.560945 
L 224.739022 71.388924 
L 225.189138 146.97643 
L 225.639254 122.418028 
L 226.539485 167.75479 
L 226.989601 117.242214 
L 227.439716 155.796994 
L 227.889832 128.684984 
L 228.339948 171.828134 
L 228.790063 98.751621 
L 229.240179 137.073654 
L 229.690294 59.005644 
L 230.14041 129.268294 
L 230.590526 163.192456 
L 231.040641 53.223346 
L 231.490757 174.222382 
L 231.940873 178.712605 
L 232.390988 172.771983 
L 232.841104 101.369809 
L 233.29122 102.728486 
L 233.741335 60.874352 
L 234.191451 167.542875 
L 234.641566 132.778535 
L 235.091682 150.722993 
L 235.541798 150.080736 
L 235.991913 179.658746 
L 236.442029 109.023087 
L 236.892145 172.810056 
L 237.34226 144.835138 
L 237.792376 180.06 
L 238.242492 180.059995 
L 238.692607 57.467616 
L 239.142723 125.035821 
L 239.592838 161.197504 
L 240.042954 113.054879 
L 240.49307 172.708784 
L 240.943185 57.839048 
L 241.393301 150.250744 
L 241.843417 168.37341 
L 242.293532 137.269972 
L 242.743648 55.451648 
L 243.193764 101.694545 
L 243.643879 103.275393 
L 244.093995 131.056756 
L 244.54411 60.500599 
L 244.994226 134.516748 
L 245.444342 172.221363 
L 245.894457 48.954724 
L 246.344573 114.672942 
L 246.794689 149.455682 
L 247.244804 174.935672 
L 247.69492 180.05998 
L 248.145036 147.601706 
L 248.595151 173.582803 
L 249.045267 149.493028 
L 249.495382 142.661685 
L 250.395614 106.513966 
L 250.845729 172.691531 
L 251.745961 110.157405 
L 252.196076 171.459904 
L 252.646192 110.488804 
L 253.096308 66.55134 
L 253.546423 160.52681 
L 253.996539 161.367378 
L 254.446655 180.06 
L 254.89677 131.527908 
L 255.346886 161.309085 
L 255.797001 115.11372 
L 256.247117 166.884569 
L 256.697233 139.590232 
L 257.147348 150.844908 
L 257.597464 179.478977 
L 258.04758 89.211016 
L 258.497695 113.039002 
L 258.947811 118.662888 
L 259.397927 140.776365 
L 259.848042 179.393347 
L 260.298158 168.076874 
L 260.748273 124.868105 
L 261.198389 139.109065 
L 261.648505 144.103987 
L 262.548736 121.211525 
L 262.998852 168.008844 
L 263.448967 96.118663 
L 263.899083 180.059838 
L 264.799314 93.836481 
L 265.24943 169.068757 
L 265.699545 175.540581 
L 265.699545 175.540581 
" clip-path="url(#pdd7b17ac02)" style="fill: none; stroke: #4169e1; stroke-opacity: 0.8; stroke-width: 1.5; stroke-linecap: square"/>
   </g>
   <g id="patch_3">
    <path d="M 24.19 188.12 
L 24.19 10.8 
" style="fill: none; stroke: #000000; stroke-width: 1.5; stroke-linejoin: miter; stroke-linecap: square"/>
   </g>
   <g id="patch_4">
    <path d="M 277.2 188.12 
L 277.2 10.8 
" style="fill: none; stroke: #000000; stroke-width: 1.5; stroke-linejoin: miter; stroke-linecap: square"/>
   </g>
   <g id="patch_5">
    <path d="M 24.19 188.12 
L 277.2 188.12 
" style="fill: none; stroke: #000000; stroke-width: 1.5; stroke-linejoin: miter; stroke-linecap: square"/>
   </g>
   <g id="patch_6">
    <path d="M 24.19 10.8 
L 277.2 10.8 
" style="fill: none; stroke: #000000; stroke-width: 1.5; stroke-linejoin: miter; stroke-linecap: square"/>
   </g>
   <g id="legend_1">
    <g id="patch_7">
     <path d="M 29.09 184.62 
L 65.9625 184.62 
Q 67.3625 184.62 67.3625 183.22 
L 67.3625 163.370625 
Q 67.3625 161.970625 65.9625 161.970625 
L 29.09 161.970625 
Q 27.69 161.970625 27.69 163.370625 
L 27.69 183.22 
Q 27.69 184.62 29.09 184.62 
z
" style="fill: #ffffff; opacity: 0.8; stroke: #000000; stroke-width: 1.5; stroke-linejoin: miter"/>
    </g>
    <g id="line2d_13">
     <path d="M 30.49 167.639531 
L 37.49 167.639531 
L 44.49 167.639531 
" style="fill: none; stroke: #20b2aa; stroke-width: 1.5; stroke-linecap: square"/>
    </g>
    <g id="text_11">
     <!-- Max -->
     <g transform="translate(50.09 170.089531)scale(0.07 -0.07)">
      <defs>
       <path id="DejaVuSans-4d" d="M 628 4666 
L 1569 4666 
L 2759 1491 
L 3956 4666 
L 4897 4666 
L 4897 0 
L 4281 0 
L 4281 4097 
L 3078 897 
L 2444 897 
L 1241 4097 
L 1241 0 
L 628 0 
L 628 4666 
z
" transform="scale(0.015625)"/>
       <path id="DejaVuSans-61" d="M 2194 1759 
Q 1497 1759 1228 1600 
Q 959 1441 959 1056 
Q 959 750 1161 570 
Q 1363 391 1709 391 
Q 2188 391 2477 730 
Q 2766 1069 2766 1631 
L 2766 1759 
L 2194 1759 
z
M 3341 1997 
L 3341 0 
L 2766 0 
L 2766 531 
Q 2569 213 2275 61 
Q 1981 -91 1556 -91 
Q 1019 -91 701 211 
Q 384 513 384 1019 
Q 384 1609 779 1909 
Q 1175 2209 1959 2209 
L 2766 2209 
L 2766 2266 
Q 2766 2663 2505 2880 
Q 2244 3097 1772 3097 
Q 1472 3097 1187 3025 
Q 903 2953 641 2809 
L 641 3341 
Q 956 3463 1253 3523 
Q 1550 3584 1831 3584 
Q 2591 3584 2966 3190 
Q 3341 2797 3341 1997 
z
" transform="scale(0.015625)"/>
       <path id="DejaVuSans-78" d="M 3513 3500 
L 2247 1797 
L 3578 0 
L 2900 0 
L 1881 1375 
L 863 0 
L 184 0 
L 1544 1831 
L 300 3500 
L 978 3500 
L 1906 2253 
L 2834 3500 
L 3513 3500 
z
" transform="scale(0.015625)"/>
      </defs>
      <use xlink:href="#DejaVuSans-4d"/>
      <use xlink:href="#DejaVuSans-61" x="86.279297"/>
      <use xlink:href="#DejaVuSans-78" x="147.558594"/>
     </g>
    </g>
    <g id="line2d_14">
     <path d="M 30.49 177.914219 
L 37.49 177.914219 
L 44.49 177.914219 
" style="fill: none; stroke: #4169e1; stroke-opacity: 0.8; stroke-width: 1.5; stroke-linecap: square"/>
    </g>
    <g id="text_12">
     <!-- Min -->
     <g transform="translate(50.09 180.364219)scale(0.07 -0.07)">
      <defs>
       <path id="DejaVuSans-69" d="M 603 3500 
L 1178 3500 
L 1178 0 
L 603 0 
L 603 3500 
z
M 603 4863 
L 1178 4863 
L 1178 4134 
L 603 4134 
L 603 4863 
z
" transform="scale(0.015625)"/>
       <path id="DejaVuSans-6e" d="M 3513 2113 
L 3513 0 
L 2938 0 
L 2938 2094 
Q 2938 2591 2744 2837 
Q 2550 3084 2163 3084 
Q 1697 3084 1428 2787 
Q 1159 2491 1159 1978 
L 1159 0 
L 581 0 
L 581 3500 
L 1159 3500 
L 1159 2956 
Q 1366 3272 1645 3428 
Q 1925 3584 2291 3584 
Q 2894 3584 3203 3211 
Q 3513 2838 3513 2113 
z
" transform="scale(0.015625)"/>
      </defs>
      <use xlink:href="#DejaVuSans-4d"/>
      <use xlink:href="#DejaVuSans-69" x="86.279297"/>
      <use xlink:href="#DejaVuSans-6e" x="114.0625"/>
     </g>
    </g>
   </g>
  </g>
 </g>
 <defs>
  <clipPath id="pdd7b17ac02">
   <rect x="24.19" y="10.8" width="253.01" height="177.32"/>
  </clipPath>
 </defs>
</svg>
