<?xml version="1.0" encoding="utf-8" standalone="no"?>
<!DOCTYPE svg PUBLIC "-//W3C//DTD SVG 1.1//EN"
  "http://www.w3.org/Graphics/SVG/1.1/DTD/svg11.dtd">
<svg xmlns:xlink="http://www.w3.org/1999/xlink" width="288pt" height="216pt" viewBox="0 0 288 216" xmlns="http://www.w3.org/2000/svg" version="1.1">
 <metadata>
  <rdf:RDF xmlns:dc="http://purl.org/dc/elements/1.1/" xmlns:cc="http://creativecommons.org/ns#" xmlns:rdf="http://www.w3.org/1999/02/22-rdf-syntax-ns#">
   <cc:Work>
    <dc:type rdf:resource="http://purl.org/dc/dcmitype/StillImage"/>
    <dc:date>2023-07-07T20:33:54.949421</dc:date>
    <dc:format>image/svg+xml</dc:format>
    <dc:creator>
     <cc:Agent>
      <dc:title>Matplotlib v3.5.2, https://matplotlib.org/</dc:title>
     </cc:Agent>
    </dc:creator>
   </cc:Work>
  </rdf:RDF>
 </metadata>
 <defs>
  <style type="text/css">*{stroke-linejoin: round; stroke-linecap: butt}</style>
 </defs>
 <g id="figure_1">
  <g id="patch_1">
   <path d="M 0 216 
L 288 216 
L 288 0 
L 0 0 
z
" style="fill: #ffffff"/>
  </g>
  <g id="axes_1">
   <g id="patch_2">
    <path d="M 38.86 188.12 
L 277.2 188.12 
L 277.2 10.8 
L 38.86 10.8 
z
" style="fill: #ffffff"/>
   </g>
   <g id="matplotlib.axis_1">
    <g id="xtick_1">
     <g id="line2d_1">
      <defs>
       <path id="m3ef1c9b5e2" d="M 0 0 
L 0 3.5 
" style="stroke: #000000; stroke-width: 0.8"/>
      </defs>
      <g>
       <use xlink:href="#m3ef1c9b5e2" x="49.693636" y="188.12" style="stroke: #000000; stroke-width: 0.8"/>
      </g>
     </g>
     <g id="text_1">
      <!-- 0 -->
      <g transform="translate(46.512386 202.718437)scale(0.1 -0.1)">
       <defs>
        <path id="DejaVuSans-30" d="M 2034 4250 
Q 1547 4250 1301 3770 
Q 1056 3291 1056 2328 
Q 1056 1369 1301 889 
Q 1547 409 2034 409 
Q 2525 409 2770 889 
Q 3016 1369 3016 2328 
Q 3016 3291 2770 3770 
Q 2525 4250 2034 4250 
z
M 2034 4750 
Q 2819 4750 3233 4129 
Q 3647 3509 3647 2328 
Q 3647 1150 3233 529 
Q 2819 -91 2034 -91 
Q 1250 -91 836 529 
Q 422 1150 422 2328 
Q 422 3509 836 4129 
Q 1250 4750 2034 4750 
z
" transform="scale(0.015625)"/>
       </defs>
       <use xlink:href="#DejaVuSans-30"/>
      </g>
     </g>
    </g>
    <g id="xtick_2">
     <g id="line2d_2">
      <g>
       <use xlink:href="#m3ef1c9b5e2" x="92.178485" y="188.12" style="stroke: #000000; stroke-width: 0.8"/>
      </g>
     </g>
     <g id="text_2">
      <!-- 50 -->
      <g transform="translate(85.815985 202.718437)scale(0.1 -0.1)">
       <defs>
        <path id="DejaVuSans-35" d="M 691 4666 
L 3169 4666 
L 3169 4134 
L 1269 4134 
L 1269 2991 
Q 1406 3038 1543 3061 
Q 1681 3084 1819 3084 
Q 2600 3084 3056 2656 
Q 3513 2228 3513 1497 
Q 3513 744 3044 326 
Q 2575 -91 1722 -91 
Q 1428 -91 1123 -41 
Q 819 9 494 109 
L 494 744 
Q 775 591 1075 516 
Q 1375 441 1709 441 
Q 2250 441 2565 725 
Q 2881 1009 2881 1497 
Q 2881 1984 2565 2268 
Q 2250 2553 1709 2553 
Q 1456 2553 1204 2497 
Q 953 2441 691 2322 
L 691 4666 
z
" transform="scale(0.015625)"/>
       </defs>
       <use xlink:href="#DejaVuSans-35"/>
       <use xlink:href="#DejaVuSans-30" x="63.623047"/>
      </g>
     </g>
    </g>
    <g id="xtick_3">
     <g id="line2d_3">
      <g>
       <use xlink:href="#m3ef1c9b5e2" x="134.663333" y="188.12" style="stroke: #000000; stroke-width: 0.8"/>
      </g>
     </g>
     <g id="text_3">
      <!-- 100 -->
      <g transform="translate(125.119583 202.718437)scale(0.1 -0.1)">
       <defs>
        <path id="DejaVuSans-31" d="M 794 531 
L 1825 531 
L 1825 4091 
L 703 3866 
L 703 4441 
L 1819 4666 
L 2450 4666 
L 2450 531 
L 3481 531 
L 3481 0 
L 794 0 
L 794 531 
z
" transform="scale(0.015625)"/>
       </defs>
       <use xlink:href="#DejaVuSans-31"/>
       <use xlink:href="#DejaVuSans-30" x="63.623047"/>
       <use xlink:href="#DejaVuSans-30" x="127.246094"/>
      </g>
     </g>
    </g>
    <g id="xtick_4">
     <g id="line2d_4">
      <g>
       <use xlink:href="#m3ef1c9b5e2" x="177.148182" y="188.12" style="stroke: #000000; stroke-width: 0.8"/>
      </g>
     </g>
     <g id="text_4">
      <!-- 150 -->
      <g transform="translate(167.604432 202.718437)scale(0.1 -0.1)">
       <use xlink:href="#DejaVuSans-31"/>
       <use xlink:href="#DejaVuSans-35" x="63.623047"/>
       <use xlink:href="#DejaVuSans-30" x="127.246094"/>
      </g>
     </g>
    </g>
    <g id="xtick_5">
     <g id="line2d_5">
      <g>
       <use xlink:href="#m3ef1c9b5e2" x="219.63303" y="188.12" style="stroke: #000000; stroke-width: 0.8"/>
      </g>
     </g>
     <g id="text_5">
      <!-- 200 -->
      <g transform="translate(210.08928 202.718437)scale(0.1 -0.1)">
       <defs>
        <path id="DejaVuSans-32" d="M 1228 531 
L 3431 531 
L 3431 0 
L 469 0 
L 469 531 
Q 828 903 1448 1529 
Q 2069 2156 2228 2338 
Q 2531 2678 2651 2914 
Q 2772 3150 2772 3378 
Q 2772 3750 2511 3984 
Q 2250 4219 1831 4219 
Q 1534 4219 1204 4116 
Q 875 4013 500 3803 
L 500 4441 
Q 881 4594 1212 4672 
Q 1544 4750 1819 4750 
Q 2544 4750 2975 4387 
Q 3406 4025 3406 3419 
Q 3406 3131 3298 2873 
Q 3191 2616 2906 2266 
Q 2828 2175 2409 1742 
Q 1991 1309 1228 531 
z
" transform="scale(0.015625)"/>
       </defs>
       <use xlink:href="#DejaVuSans-32"/>
       <use xlink:href="#DejaVuSans-30" x="63.623047"/>
       <use xlink:href="#DejaVuSans-30" x="127.246094"/>
      </g>
     </g>
    </g>
    <g id="xtick_6">
     <g id="line2d_6">
      <g>
       <use xlink:href="#m3ef1c9b5e2" x="262.117879" y="188.12" style="stroke: #000000; stroke-width: 0.8"/>
      </g>
     </g>
     <g id="text_6">
      <!-- 250 -->
      <g transform="translate(252.574129 202.718437)scale(0.1 -0.1)">
       <use xlink:href="#DejaVuSans-32"/>
       <use xlink:href="#DejaVuSans-35" x="63.623047"/>
       <use xlink:href="#DejaVuSans-30" x="127.246094"/>
      </g>
     </g>
    </g>
   </g>
   <g id="matplotlib.axis_2">
    <g id="ytick_1">
     <g id="line2d_7">
      <defs>
       <path id="m3e2b7f62cc" d="M 0 0 
L -3.5 0 
" style="stroke: #000000; stroke-width: 0.8"/>
      </defs>
      <g>
       <use xlink:href="#m3e2b7f62cc" x="38.86" y="167.667678" style="stroke: #000000; stroke-width: 0.8"/>
      </g>
     </g>
     <g id="text_7">
      <!-- −10 -->
      <g transform="translate(10.755312 171.466897)scale(0.1 -0.1)">
       <defs>
        <path id="DejaVuSans-2212" d="M 678 2272 
L 4684 2272 
L 4684 1741 
L 678 1741 
L 678 2272 
z
" transform="scale(0.015625)"/>
       </defs>
       <use xlink:href="#DejaVuSans-2212"/>
       <use xlink:href="#DejaVuSans-31" x="83.789062"/>
       <use xlink:href="#DejaVuSans-30" x="147.412109"/>
      </g>
     </g>
    </g>
    <g id="ytick_2">
     <g id="line2d_8">
      <g>
       <use xlink:href="#m3e2b7f62cc" x="38.86" y="134.930198" style="stroke: #000000; stroke-width: 0.8"/>
      </g>
     </g>
     <g id="text_8">
      <!-- −5 -->
      <g transform="translate(17.117812 138.729417)scale(0.1 -0.1)">
       <use xlink:href="#DejaVuSans-2212"/>
       <use xlink:href="#DejaVuSans-35" x="83.789062"/>
      </g>
     </g>
    </g>
    <g id="ytick_3">
     <g id="line2d_9">
      <g>
       <use xlink:href="#m3e2b7f62cc" x="38.86" y="102.192718" style="stroke: #000000; stroke-width: 0.8"/>
      </g>
     </g>
     <g id="text_9">
      <!-- 0 -->
      <g transform="translate(25.4975 105.991937)scale(0.1 -0.1)">
       <use xlink:href="#DejaVuSans-30"/>
      </g>
     </g>
    </g>
    <g id="ytick_4">
     <g id="line2d_10">
      <g>
       <use xlink:href="#m3e2b7f62cc" x="38.86" y="69.455238" style="stroke: #000000; stroke-width: 0.8"/>
      </g>
     </g>
     <g id="text_10">
      <!-- 5 -->
      <g transform="translate(25.4975 73.254457)scale(0.1 -0.1)">
       <use xlink:href="#DejaVuSans-35"/>
      </g>
     </g>
    </g>
    <g id="ytick_5">
     <g id="line2d_11">
      <g>
       <use xlink:href="#m3e2b7f62cc" x="38.86" y="36.717758" style="stroke: #000000; stroke-width: 0.8"/>
      </g>
     </g>
     <g id="text_11">
      <!-- 10 -->
      <g transform="translate(19.135 40.516977)scale(0.1 -0.1)">
       <use xlink:href="#DejaVuSans-31"/>
       <use xlink:href="#DejaVuSans-30" x="63.623047"/>
      </g>
     </g>
    </g>
   </g>
   <g id="line2d_12">
    <path d="M 49.693636 59.376434 
L 50.543333 79.485781 
L 51.39303 74.218841 
L 52.242727 76.356517 
L 53.092424 67.14896 
L 53.942121 70.087439 
L 54.791818 81.072192 
L 55.641515 82.825914 
L 56.491212 84.075975 
L 57.340909 78.34353 
L 58.190606 59.958161 
L 59.040303 58.646206 
L 59.89 74.410009 
L 60.739697 78.170513 
L 61.589394 50.241582 
L 62.439091 67.791111 
L 63.288788 82.885032 
L 64.138485 72.114721 
L 64.988182 54.866548 
L 65.837879 74.772846 
L 66.687576 81.030764 
L 67.537273 69.720862 
L 68.38697 79.205475 
L 69.236667 28.619383 
L 70.086364 85.342566 
L 70.936061 76.597348 
L 71.785758 81.206495 
L 72.635455 71.4438 
L 73.485152 87.358727 
L 74.334848 66.834875 
L 75.184545 61.637267 
L 76.034242 87.628575 
L 76.883939 53.576682 
L 77.733636 70.978134 
L 78.583333 79.883393 
L 79.43303 74.38916 
L 80.282727 72.313839 
L 81.132424 45.51929 
L 81.982121 67.490616 
L 82.831818 77.61992 
L 83.681515 90.972889 
L 84.531212 76.809324 
L 85.380909 82.62467 
L 86.230606 82.805323 
L 87.080303 56.690747 
L 87.93 66.485519 
L 88.779697 64.152928 
L 89.629394 76.44392 
L 90.479091 47.692645 
L 91.328788 74.992076 
L 92.178485 64.652806 
L 93.028182 21.355355 
L 93.877879 80.056405 
L 94.727576 81.596466 
L 95.577273 81.444314 
L 96.42697 83.540752 
L 97.276667 58.958302 
L 98.126364 56.34698 
L 98.976061 86.304767 
L 99.825758 76.397767 
L 100.675455 71.581431 
L 101.525152 64.177399 
L 102.374848 53.379216 
L 103.224545 72.738746 
L 104.074242 80.051022 
L 104.923939 73.175129 
L 105.773636 53.806124 
L 106.623333 85.71121 
L 107.47303 65.219552 
L 108.322727 79.824029 
L 109.172424 67.46504 
L 110.022121 79.37197 
L 110.871818 78.390407 
L 111.721515 75.60035 
L 112.571212 48.989886 
L 113.420909 72.154981 
L 114.270606 82.885332 
L 115.120303 51.163122 
L 115.97 72.243542 
L 116.819697 76.107469 
L 117.669394 84.54604 
L 118.519091 83.728955 
L 119.368788 65.209534 
L 120.218485 80.74873 
L 121.068182 81.138466 
L 121.917879 73.485834 
L 122.767576 73.10915 
L 123.617273 76.449941 
L 124.46697 90.258634 
L 125.316667 23.235671 
L 126.166364 73.096603 
L 127.016061 82.90757 
L 127.865758 66.10404 
L 128.715455 81.867532 
L 129.565152 73.621036 
L 130.414848 82.518783 
L 131.264545 71.65938 
L 132.114242 33.152151 
L 132.963939 85.49831 
L 133.813636 91.811462 
L 135.51303 69.411903 
L 136.362727 80.830402 
L 137.212424 73.689256 
L 138.062121 80.930484 
L 138.911818 52.826094 
L 139.761515 76.352623 
L 140.611212 78.472021 
L 141.460909 82.005788 
L 142.310606 84.004827 
L 143.160303 79.538617 
L 144.01 67.707208 
L 144.859697 84.882738 
L 145.709394 76.253073 
L 146.559091 89.049248 
L 147.408788 41.7676 
L 148.258485 66.506646 
L 149.108182 86.068397 
L 149.957879 68.182621 
L 150.807576 71.986903 
L 151.657273 81.691977 
L 152.50697 84.468364 
L 153.356667 72.964036 
L 154.206364 52.531088 
L 155.056061 81.267807 
L 155.905758 88.981806 
L 156.755455 70.776665 
L 157.605152 81.296482 
L 158.454848 86.307791 
L 159.304545 83.949661 
L 160.154242 83.25436 
L 161.003939 82.029439 
L 161.853636 83.680895 
L 162.703333 64.617848 
L 163.55303 74.592171 
L 164.402727 65.704173 
L 165.252424 70.565113 
L 166.951818 85.841343 
L 167.801515 70.400763 
L 168.651212 70.503377 
L 169.500909 74.89467 
L 170.350606 84.951825 
L 171.200303 79.844137 
L 172.05 72.912246 
L 172.899697 57.416049 
L 173.749394 78.450257 
L 174.599091 75.284048 
L 175.448788 51.262914 
L 176.298485 94.457824 
L 177.148182 67.482206 
L 177.997879 83.132773 
L 178.847576 71.07283 
L 179.697273 83.176064 
L 180.54697 60.719598 
L 181.396667 86.992888 
L 182.246364 84.022522 
L 183.096061 36.495147 
L 183.945758 32.087312 
L 184.795455 82.045291 
L 185.645152 64.307521 
L 186.494848 83.306341 
L 187.344545 81.312827 
L 188.194242 85.543237 
L 189.043939 80.778685 
L 189.893636 79.620165 
L 190.743333 79.293772 
L 191.59303 81.137416 
L 192.442727 87.371356 
L 193.292424 76.911523 
L 194.142121 56.264426 
L 194.991818 83.328167 
L 195.841515 78.087392 
L 196.691212 70.336235 
L 197.540909 79.93709 
L 199.240303 56.229081 
L 200.09 71.302878 
L 200.939697 79.67995 
L 201.789394 84.70467 
L 202.639091 79.915258 
L 203.488788 78.873314 
L 204.338485 82.87237 
L 205.188182 35.104837 
L 206.037879 72.991822 
L 206.887576 83.230663 
L 207.737273 42.257306 
L 208.58697 75.592388 
L 209.436667 78.840791 
L 210.286364 76.182607 
L 211.136061 79.984024 
L 211.985758 69.891203 
L 212.835455 79.896963 
L 213.685152 69.533634 
L 214.534848 83.44284 
L 215.384545 77.961748 
L 216.234242 76.009134 
L 217.083939 68.773889 
L 218.783333 87.518937 
L 219.63303 75.484798 
L 220.482727 76.715602 
L 221.332424 75.844834 
L 222.182121 71.508727 
L 223.031818 18.86 
L 223.881515 84.684217 
L 224.731212 64.217212 
L 225.580909 80.93604 
L 226.430606 91.438655 
L 227.280303 41.646444 
L 228.13 74.552898 
L 228.979697 65.958426 
L 229.829394 84.60698 
L 230.679091 80.808576 
L 231.528788 78.891669 
L 232.378485 73.66555 
L 233.228182 78.498339 
L 234.077879 93.56261 
L 234.927576 79.318688 
L 235.777273 77.253899 
L 236.62697 77.479318 
L 237.476667 80.381218 
L 238.326364 80.116394 
L 239.176061 85.513834 
L 240.025758 87.305634 
L 240.875455 71.412882 
L 241.725152 83.692354 
L 242.574848 84.51497 
L 244.274242 77.461163 
L 245.123939 84.808689 
L 245.973636 73.847309 
L 246.823333 57.411525 
L 247.67303 84.415368 
L 248.522727 71.654041 
L 249.372424 86.80408 
L 250.222121 73.377485 
L 251.071818 72.608077 
L 251.921515 83.98375 
L 252.771212 81.326908 
L 253.620909 83.423325 
L 254.470606 69.638361 
L 255.320303 76.810662 
L 256.17 68.770333 
L 257.019697 84.617495 
L 257.869394 66.776591 
L 258.719091 25.779936 
L 259.568788 59.927552 
L 260.418485 89.436844 
L 262.117879 77.305248 
L 262.967576 87.899944 
L 263.817273 82.324938 
L 264.66697 66.534801 
L 265.516667 68.40759 
L 266.366364 61.880081 
L 266.366364 61.880081 
" clip-path="url(#p808d472cd8)" style="fill: none; stroke: #20b2aa; stroke-width: 1.5; stroke-linecap: square"/>
   </g>
   <g id="line2d_13">
    <path d="M 49.693636 127.405177 
L 50.543333 124.213533 
L 51.39303 130.477596 
L 52.242727 124.339755 
L 53.092424 131.486021 
L 53.942121 130.376834 
L 54.791818 130.213455 
L 55.641515 117.560134 
L 56.491212 121.055945 
L 57.340909 131.734814 
L 58.190606 124.796167 
L 59.040303 170.339412 
L 59.89 125.413582 
L 60.739697 133.518336 
L 61.589394 147.081804 
L 62.439091 118.2514 
L 64.138485 134.980592 
L 64.988182 141.236534 
L 65.837879 120.923404 
L 66.687576 124.740535 
L 67.537273 122.71749 
L 68.38697 124.242025 
L 69.236667 153.795401 
L 70.086364 130.24692 
L 70.936061 125.984279 
L 71.785758 125.572578 
L 72.635455 122.944381 
L 73.485152 125.262495 
L 74.334848 148.467855 
L 76.034242 120.132428 
L 76.883939 165.792376 
L 77.733636 127.280038 
L 79.43303 133.738481 
L 80.282727 123.163091 
L 81.132424 146.304816 
L 81.982121 134.816654 
L 82.831818 120.388697 
L 83.681515 127.987705 
L 84.531212 127.251233 
L 85.380909 124.614107 
L 86.230606 125.825909 
L 87.080303 132.278938 
L 87.93 135.633358 
L 88.779697 125.456814 
L 89.629394 133.609997 
L 90.479091 150.812095 
L 91.328788 117.735136 
L 92.178485 133.219499 
L 93.028182 152.866068 
L 93.877879 122.509843 
L 94.727576 129.795198 
L 95.577273 129.602933 
L 96.42697 124.044156 
L 98.126364 158.234241 
L 98.976061 123.020749 
L 99.825758 123.858927 
L 100.675455 142.31994 
L 101.525152 143.264325 
L 102.374848 134.646153 
L 103.224545 132.854218 
L 104.923939 111.872271 
L 105.773636 153.15837 
L 106.623333 128.190639 
L 107.47303 138.140561 
L 108.322727 109.189514 
L 109.172424 123.493407 
L 110.022121 131.987054 
L 110.871818 119.284254 
L 111.721515 129.009046 
L 112.571212 131.802742 
L 113.420909 131.554105 
L 114.270606 124.529529 
L 115.120303 139.282665 
L 115.97 139.335335 
L 116.819697 149.374953 
L 117.669394 119.746644 
L 118.519091 114.07758 
L 119.368788 150.759628 
L 120.218485 124.275211 
L 121.068182 121.391108 
L 121.917879 116.403001 
L 122.767576 123.707501 
L 123.617273 133.577509 
L 124.46697 141.444918 
L 125.316667 153.134727 
L 126.166364 123.452528 
L 127.016061 123.123482 
L 127.865758 139.567703 
L 128.715455 118.896834 
L 129.565152 128.892892 
L 130.414848 123.509308 
L 131.264545 126.287199 
L 132.114242 175.883369 
L 132.963939 124.529514 
L 133.813636 126.567257 
L 134.663333 122.220088 
L 135.51303 123.906965 
L 136.362727 126.393199 
L 137.212424 147.623667 
L 138.062121 123.211635 
L 138.911818 147.338752 
L 139.761515 125.90316 
L 140.611212 123.414409 
L 141.460909 116.705529 
L 142.310606 125.632197 
L 143.160303 125.023972 
L 144.01 129.63091 
L 144.859697 122.990477 
L 145.709394 128.87258 
L 146.559091 120.963857 
L 147.408788 155.366883 
L 148.258485 132.673555 
L 149.108182 115.971688 
L 149.957879 115.367556 
L 150.807576 129.522193 
L 151.657273 119.680616 
L 152.50697 127.076812 
L 153.356667 126.056302 
L 154.206364 161.831044 
L 155.056061 122.470893 
L 155.905758 118.77533 
L 157.605152 139.455888 
L 158.454848 132.1323 
L 159.304545 128.0903 
L 160.154242 119.829698 
L 161.003939 137.411329 
L 161.853636 116.417616 
L 162.703333 139.733792 
L 163.55303 123.619026 
L 164.402727 124.819493 
L 165.252424 131.051857 
L 166.102121 123.662487 
L 166.951818 122.695782 
L 167.801515 180.06 
L 168.651212 127.76497 
L 169.500909 123.761913 
L 171.200303 116.49863 
L 172.05 137.730091 
L 172.899697 141.421983 
L 173.749394 146.404264 
L 174.599091 126.187271 
L 175.448788 155.489906 
L 176.298485 139.631521 
L 177.148182 116.728347 
L 177.997879 123.026691 
L 178.847576 132.473301 
L 179.697273 126.556273 
L 180.54697 162.224209 
L 181.396667 121.753271 
L 182.246364 118.590028 
L 183.096061 161.98254 
L 183.945758 149.977991 
L 184.795455 126.184189 
L 185.645152 145.401289 
L 186.494848 132.790209 
L 187.344545 117.780711 
L 188.194242 120.616519 
L 189.043939 122.573238 
L 189.893636 131.638345 
L 190.743333 127.344662 
L 191.59303 132.992767 
L 192.442727 124.130877 
L 193.292424 126.152121 
L 194.142121 164.109589 
L 194.991818 138.078938 
L 195.841515 124.280551 
L 196.691212 127.60814 
L 197.540909 127.679278 
L 198.390606 131.803144 
L 199.240303 144.793687 
L 200.09 138.832975 
L 200.939697 121.737825 
L 201.789394 125.611322 
L 202.639091 122.366091 
L 203.488788 125.100428 
L 204.338485 125.346175 
L 205.188182 142.512951 
L 206.037879 124.950199 
L 206.887576 124.633032 
L 207.737273 135.950853 
L 208.58697 131.173076 
L 209.436667 118.329037 
L 210.286364 117.512313 
L 211.136061 125.596551 
L 211.985758 129.213047 
L 212.835455 122.155599 
L 213.685152 122.021353 
L 215.384545 123.804375 
L 216.234242 123.379643 
L 217.083939 132.069524 
L 217.933636 120.508922 
L 218.783333 128.769189 
L 219.63303 123.278144 
L 220.482727 118.801066 
L 221.332424 123.413772 
L 222.182121 103.3811 
L 223.031818 173.12968 
L 223.881515 118.558153 
L 224.731212 154.334436 
L 225.580909 115.966953 
L 226.430606 128.778561 
L 227.280303 151.890655 
L 228.13 136.620082 
L 228.979697 144.071279 
L 229.829394 125.756354 
L 230.679091 120.175903 
L 231.528788 124.472945 
L 232.378485 119.544426 
L 233.228182 126.587012 
L 234.077879 116.122505 
L 234.927576 111.791845 
L 235.777273 130.414427 
L 236.62697 129.689762 
L 237.476667 128.288214 
L 238.326364 132.000504 
L 239.176061 119.487798 
L 240.025758 124.154686 
L 240.875455 134.550109 
L 241.725152 126.553092 
L 242.574848 117.487999 
L 243.424545 124.611101 
L 244.274242 127.053805 
L 245.123939 117.793285 
L 245.973636 126.03518 
L 246.823333 122.575535 
L 247.67303 120.020236 
L 248.522727 130.44472 
L 249.372424 129.855192 
L 250.222121 126.67456 
L 251.071818 127.755604 
L 251.921515 124.16155 
L 252.771212 128.270257 
L 253.620909 120.975751 
L 254.470606 120.862616 
L 255.320303 127.664264 
L 256.17 140.709963 
L 257.019697 127.225087 
L 257.869394 137.484429 
L 258.719091 154.928404 
L 259.568788 135.349738 
L 260.418485 124.057835 
L 261.268182 121.460707 
L 262.117879 121.465474 
L 262.967576 129.900041 
L 263.817273 123.004513 
L 264.66697 131.110084 
L 265.516667 123.61574 
L 266.366364 133.965051 
L 266.366364 133.965051 
" clip-path="url(#p808d472cd8)" style="fill: none; stroke: #4169e1; stroke-opacity: 0.8; stroke-width: 1.5; stroke-linecap: square"/>
   </g>
   <g id="patch_3">
    <path d="M 38.86 188.12 
L 38.86 10.8 
" style="fill: none; stroke: #000000; stroke-width: 1.5; stroke-linejoin: miter; stroke-linecap: square"/>
   </g>
   <g id="patch_4">
    <path d="M 277.2 188.12 
L 277.2 10.8 
" style="fill: none; stroke: #000000; stroke-width: 1.5; stroke-linejoin: miter; stroke-linecap: square"/>
   </g>
   <g id="patch_5">
    <path d="M 38.86 188.12 
L 277.2 188.12 
" style="fill: none; stroke: #000000; stroke-width: 1.5; stroke-linejoin: miter; stroke-linecap: square"/>
   </g>
   <g id="patch_6">
    <path d="M 38.86 10.8 
L 277.2 10.8 
" style="fill: none; stroke: #000000; stroke-width: 1.5; stroke-linejoin: miter; stroke-linecap: square"/>
   </g>
   <g id="legend_1">
    <g id="patch_7">
     <path d="M 235.4275 184.62 
L 272.3 184.62 
Q 273.7 184.62 273.7 183.22 
L 273.7 163.370625 
Q 273.7 161.970625 272.3 161.970625 
L 235.4275 161.970625 
Q 234.0275 161.970625 234.0275 163.370625 
L 234.0275 183.22 
Q 234.0275 184.62 235.4275 184.62 
z
" style="fill: #ffffff; opacity: 0.8; stroke: #000000; stroke-width: 1.5; stroke-linejoin: miter"/>
    </g>
    <g id="line2d_14">
     <path d="M 236.8275 167.639531 
L 243.8275 167.639531 
L 250.8275 167.639531 
" style="fill: none; stroke: #20b2aa; stroke-width: 1.5; stroke-linecap: square"/>
    </g>
    <g id="text_12">
     <!-- Max -->
     <g transform="translate(256.4275 170.089531)scale(0.07 -0.07)">
      <defs>
       <path id="DejaVuSans-4d" d="M 628 4666 
L 1569 4666 
L 2759 1491 
L 3956 4666 
L 4897 4666 
L 4897 0 
L 4281 0 
L 4281 4097 
L 3078 897 
L 2444 897 
L 1241 4097 
L 1241 0 
L 628 0 
L 628 4666 
z
" transform="scale(0.015625)"/>
       <path id="DejaVuSans-61" d="M 2194 1759 
Q 1497 1759 1228 1600 
Q 959 1441 959 1056 
Q 959 750 1161 570 
Q 1363 391 1709 391 
Q 2188 391 2477 730 
Q 2766 1069 2766 1631 
L 2766 1759 
L 2194 1759 
z
M 3341 1997 
L 3341 0 
L 2766 0 
L 2766 531 
Q 2569 213 2275 61 
Q 1981 -91 1556 -91 
Q 1019 -91 701 211 
Q 384 513 384 1019 
Q 384 1609 779 1909 
Q 1175 2209 1959 2209 
L 2766 2209 
L 2766 2266 
Q 2766 2663 2505 2880 
Q 2244 3097 1772 3097 
Q 1472 3097 1187 3025 
Q 903 2953 641 2809 
L 641 3341 
Q 956 3463 1253 3523 
Q 1550 3584 1831 3584 
Q 2591 3584 2966 3190 
Q 3341 2797 3341 1997 
z
" transform="scale(0.015625)"/>
       <path id="DejaVuSans-78" d="M 3513 3500 
L 2247 1797 
L 3578 0 
L 2900 0 
L 1881 1375 
L 863 0 
L 184 0 
L 1544 1831 
L 300 3500 
L 978 3500 
L 1906 2253 
L 2834 3500 
L 3513 3500 
z
" transform="scale(0.015625)"/>
      </defs>
      <use xlink:href="#DejaVuSans-4d"/>
      <use xlink:href="#DejaVuSans-61" x="86.279297"/>
      <use xlink:href="#DejaVuSans-78" x="147.558594"/>
     </g>
    </g>
    <g id="line2d_15">
     <path d="M 236.8275 177.914219 
L 243.8275 177.914219 
L 250.8275 177.914219 
" style="fill: none; stroke: #4169e1; stroke-opacity: 0.8; stroke-width: 1.5; stroke-linecap: square"/>
    </g>
    <g id="text_13">
     <!-- Min -->
     <g transform="translate(256.4275 180.364219)scale(0.07 -0.07)">
      <defs>
       <path id="DejaVuSans-69" d="M 603 3500 
L 1178 3500 
L 1178 0 
L 603 0 
L 603 3500 
z
M 603 4863 
L 1178 4863 
L 1178 4134 
L 603 4134 
L 603 4863 
z
" transform="scale(0.015625)"/>
       <path id="DejaVuSans-6e" d="M 3513 2113 
L 3513 0 
L 2938 0 
L 2938 2094 
Q 2938 2591 2744 2837 
Q 2550 3084 2163 3084 
Q 1697 3084 1428 2787 
Q 1159 2491 1159 1978 
L 1159 0 
L 581 0 
L 581 3500 
L 1159 3500 
L 1159 2956 
Q 1366 3272 1645 3428 
Q 1925 3584 2291 3584 
Q 2894 3584 3203 3211 
Q 3513 2838 3513 2113 
z
" transform="scale(0.015625)"/>
      </defs>
      <use xlink:href="#DejaVuSans-4d"/>
      <use xlink:href="#DejaVuSans-69" x="86.279297"/>
      <use xlink:href="#DejaVuSans-6e" x="114.0625"/>
     </g>
    </g>
   </g>
  </g>
 </g>
 <defs>
  <clipPath id="p808d472cd8">
   <rect x="38.86" y="10.8" width="238.34" height="177.32"/>
  </clipPath>
 </defs>
</svg>
