<?xml version="1.0" encoding="utf-8" standalone="no"?>
<!DOCTYPE svg PUBLIC "-//W3C//DTD SVG 1.1//EN"
  "http://www.w3.org/Graphics/SVG/1.1/DTD/svg11.dtd">
<svg xmlns:xlink="http://www.w3.org/1999/xlink" width="288pt" height="216pt" viewBox="0 0 288 216" xmlns="http://www.w3.org/2000/svg" version="1.1">
 <metadata>
  <rdf:RDF xmlns:dc="http://purl.org/dc/elements/1.1/" xmlns:cc="http://creativecommons.org/ns#" xmlns:rdf="http://www.w3.org/1999/02/22-rdf-syntax-ns#">
   <cc:Work>
    <dc:type rdf:resource="http://purl.org/dc/dcmitype/StillImage"/>
    <dc:date>2023-07-07T20:46:02.582659</dc:date>
    <dc:format>image/svg+xml</dc:format>
    <dc:creator>
     <cc:Agent>
      <dc:title>Matplotlib v3.5.2, https://matplotlib.org/</dc:title>
     </cc:Agent>
    </dc:creator>
   </cc:Work>
  </rdf:RDF>
 </metadata>
 <defs>
  <style type="text/css">*{stroke-linejoin: round; stroke-linecap: butt}</style>
 </defs>
 <g id="figure_1">
  <g id="patch_1">
   <path d="M 0 216 
L 288 216 
L 288 0 
L 0 0 
z
" style="fill: #ffffff"/>
  </g>
  <g id="axes_1">
   <g id="patch_2">
    <path d="M 38.86 188.12 
L 277.2 188.12 
L 277.2 12.860312 
L 38.86 12.860312 
z
" style="fill: #ffffff"/>
   </g>
   <g id="matplotlib.axis_1">
    <g id="xtick_1">
     <g id="line2d_1">
      <defs>
       <path id="m461da0a115" d="M 0 0 
L 0 3.5 
" style="stroke: #000000; stroke-width: 0.8"/>
      </defs>
      <g>
       <use xlink:href="#m461da0a115" x="49.693636" y="188.12" style="stroke: #000000; stroke-width: 0.8"/>
      </g>
     </g>
     <g id="text_1">
      <!-- 0 -->
      <g transform="translate(46.512386 202.718437)scale(0.1 -0.1)">
       <defs>
        <path id="DejaVuSans-30" d="M 2034 4250 
Q 1547 4250 1301 3770 
Q 1056 3291 1056 2328 
Q 1056 1369 1301 889 
Q 1547 409 2034 409 
Q 2525 409 2770 889 
Q 3016 1369 3016 2328 
Q 3016 3291 2770 3770 
Q 2525 4250 2034 4250 
z
M 2034 4750 
Q 2819 4750 3233 4129 
Q 3647 3509 3647 2328 
Q 3647 1150 3233 529 
Q 2819 -91 2034 -91 
Q 1250 -91 836 529 
Q 422 1150 422 2328 
Q 422 3509 836 4129 
Q 1250 4750 2034 4750 
z
" transform="scale(0.015625)"/>
       </defs>
       <use xlink:href="#DejaVuSans-30"/>
      </g>
     </g>
    </g>
    <g id="xtick_2">
     <g id="line2d_2">
      <g>
       <use xlink:href="#m461da0a115" x="92.178485" y="188.12" style="stroke: #000000; stroke-width: 0.8"/>
      </g>
     </g>
     <g id="text_2">
      <!-- 50 -->
      <g transform="translate(85.815985 202.718437)scale(0.1 -0.1)">
       <defs>
        <path id="DejaVuSans-35" d="M 691 4666 
L 3169 4666 
L 3169 4134 
L 1269 4134 
L 1269 2991 
Q 1406 3038 1543 3061 
Q 1681 3084 1819 3084 
Q 2600 3084 3056 2656 
Q 3513 2228 3513 1497 
Q 3513 744 3044 326 
Q 2575 -91 1722 -91 
Q 1428 -91 1123 -41 
Q 819 9 494 109 
L 494 744 
Q 775 591 1075 516 
Q 1375 441 1709 441 
Q 2250 441 2565 725 
Q 2881 1009 2881 1497 
Q 2881 1984 2565 2268 
Q 2250 2553 1709 2553 
Q 1456 2553 1204 2497 
Q 953 2441 691 2322 
L 691 4666 
z
" transform="scale(0.015625)"/>
       </defs>
       <use xlink:href="#DejaVuSans-35"/>
       <use xlink:href="#DejaVuSans-30" x="63.623047"/>
      </g>
     </g>
    </g>
    <g id="xtick_3">
     <g id="line2d_3">
      <g>
       <use xlink:href="#m461da0a115" x="134.663333" y="188.12" style="stroke: #000000; stroke-width: 0.8"/>
      </g>
     </g>
     <g id="text_3">
      <!-- 100 -->
      <g transform="translate(125.119583 202.718437)scale(0.1 -0.1)">
       <defs>
        <path id="DejaVuSans-31" d="M 794 531 
L 1825 531 
L 1825 4091 
L 703 3866 
L 703 4441 
L 1819 4666 
L 2450 4666 
L 2450 531 
L 3481 531 
L 3481 0 
L 794 0 
L 794 531 
z
" transform="scale(0.015625)"/>
       </defs>
       <use xlink:href="#DejaVuSans-31"/>
       <use xlink:href="#DejaVuSans-30" x="63.623047"/>
       <use xlink:href="#DejaVuSans-30" x="127.246094"/>
      </g>
     </g>
    </g>
    <g id="xtick_4">
     <g id="line2d_4">
      <g>
       <use xlink:href="#m461da0a115" x="177.148182" y="188.12" style="stroke: #000000; stroke-width: 0.8"/>
      </g>
     </g>
     <g id="text_4">
      <!-- 150 -->
      <g transform="translate(167.604432 202.718437)scale(0.1 -0.1)">
       <use xlink:href="#DejaVuSans-31"/>
       <use xlink:href="#DejaVuSans-35" x="63.623047"/>
       <use xlink:href="#DejaVuSans-30" x="127.246094"/>
      </g>
     </g>
    </g>
    <g id="xtick_5">
     <g id="line2d_5">
      <g>
       <use xlink:href="#m461da0a115" x="219.63303" y="188.12" style="stroke: #000000; stroke-width: 0.8"/>
      </g>
     </g>
     <g id="text_5">
      <!-- 200 -->
      <g transform="translate(210.08928 202.718437)scale(0.1 -0.1)">
       <defs>
        <path id="DejaVuSans-32" d="M 1228 531 
L 3431 531 
L 3431 0 
L 469 0 
L 469 531 
Q 828 903 1448 1529 
Q 2069 2156 2228 2338 
Q 2531 2678 2651 2914 
Q 2772 3150 2772 3378 
Q 2772 3750 2511 3984 
Q 2250 4219 1831 4219 
Q 1534 4219 1204 4116 
Q 875 4013 500 3803 
L 500 4441 
Q 881 4594 1212 4672 
Q 1544 4750 1819 4750 
Q 2544 4750 2975 4387 
Q 3406 4025 3406 3419 
Q 3406 3131 3298 2873 
Q 3191 2616 2906 2266 
Q 2828 2175 2409 1742 
Q 1991 1309 1228 531 
z
" transform="scale(0.015625)"/>
       </defs>
       <use xlink:href="#DejaVuSans-32"/>
       <use xlink:href="#DejaVuSans-30" x="63.623047"/>
       <use xlink:href="#DejaVuSans-30" x="127.246094"/>
      </g>
     </g>
    </g>
    <g id="xtick_6">
     <g id="line2d_6">
      <g>
       <use xlink:href="#m461da0a115" x="262.117879" y="188.12" style="stroke: #000000; stroke-width: 0.8"/>
      </g>
     </g>
     <g id="text_6">
      <!-- 250 -->
      <g transform="translate(252.574129 202.718437)scale(0.1 -0.1)">
       <use xlink:href="#DejaVuSans-32"/>
       <use xlink:href="#DejaVuSans-35" x="63.623047"/>
       <use xlink:href="#DejaVuSans-30" x="127.246094"/>
      </g>
     </g>
    </g>
   </g>
   <g id="matplotlib.axis_2">
    <g id="ytick_1">
     <g id="line2d_7">
      <defs>
       <path id="mefc07977b1" d="M 0 0 
L -3.5 0 
" style="stroke: #000000; stroke-width: 0.8"/>
      </defs>
      <g>
       <use xlink:href="#mefc07977b1" x="38.86" y="173.256919" style="stroke: #000000; stroke-width: 0.8"/>
      </g>
     </g>
     <g id="text_7">
      <!-- −30 -->
      <g transform="translate(10.755312 177.056138)scale(0.1 -0.1)">
       <defs>
        <path id="DejaVuSans-2212" d="M 678 2272 
L 4684 2272 
L 4684 1741 
L 678 1741 
L 678 2272 
z
" transform="scale(0.015625)"/>
        <path id="DejaVuSans-33" d="M 2597 2516 
Q 3050 2419 3304 2112 
Q 3559 1806 3559 1356 
Q 3559 666 3084 287 
Q 2609 -91 1734 -91 
Q 1441 -91 1130 -33 
Q 819 25 488 141 
L 488 750 
Q 750 597 1062 519 
Q 1375 441 1716 441 
Q 2309 441 2620 675 
Q 2931 909 2931 1356 
Q 2931 1769 2642 2001 
Q 2353 2234 1838 2234 
L 1294 2234 
L 1294 2753 
L 1863 2753 
Q 2328 2753 2575 2939 
Q 2822 3125 2822 3475 
Q 2822 3834 2567 4026 
Q 2313 4219 1838 4219 
Q 1578 4219 1281 4162 
Q 984 4106 628 3988 
L 628 4550 
Q 988 4650 1302 4700 
Q 1616 4750 1894 4750 
Q 2613 4750 3031 4423 
Q 3450 4097 3450 3541 
Q 3450 3153 3228 2886 
Q 3006 2619 2597 2516 
z
" transform="scale(0.015625)"/>
       </defs>
       <use xlink:href="#DejaVuSans-2212"/>
       <use xlink:href="#DejaVuSans-33" x="83.789062"/>
       <use xlink:href="#DejaVuSans-30" x="147.412109"/>
      </g>
     </g>
    </g>
    <g id="ytick_2">
     <g id="line2d_8">
      <g>
       <use xlink:href="#mefc07977b1" x="38.86" y="146.857784" style="stroke: #000000; stroke-width: 0.8"/>
      </g>
     </g>
     <g id="text_8">
      <!-- −20 -->
      <g transform="translate(10.755312 150.657002)scale(0.1 -0.1)">
       <use xlink:href="#DejaVuSans-2212"/>
       <use xlink:href="#DejaVuSans-32" x="83.789062"/>
       <use xlink:href="#DejaVuSans-30" x="147.412109"/>
      </g>
     </g>
    </g>
    <g id="ytick_3">
     <g id="line2d_9">
      <g>
       <use xlink:href="#mefc07977b1" x="38.86" y="120.458649" style="stroke: #000000; stroke-width: 0.8"/>
      </g>
     </g>
     <g id="text_9">
      <!-- −10 -->
      <g transform="translate(10.755312 124.257867)scale(0.1 -0.1)">
       <use xlink:href="#DejaVuSans-2212"/>
       <use xlink:href="#DejaVuSans-31" x="83.789062"/>
       <use xlink:href="#DejaVuSans-30" x="147.412109"/>
      </g>
     </g>
    </g>
    <g id="ytick_4">
     <g id="line2d_10">
      <g>
       <use xlink:href="#mefc07977b1" x="38.86" y="94.059513" style="stroke: #000000; stroke-width: 0.8"/>
      </g>
     </g>
     <g id="text_10">
      <!-- 0 -->
      <g transform="translate(25.4975 97.858732)scale(0.1 -0.1)">
       <use xlink:href="#DejaVuSans-30"/>
      </g>
     </g>
    </g>
    <g id="ytick_5">
     <g id="line2d_11">
      <g>
       <use xlink:href="#mefc07977b1" x="38.86" y="67.660378" style="stroke: #000000; stroke-width: 0.8"/>
      </g>
     </g>
     <g id="text_11">
      <!-- 10 -->
      <g transform="translate(19.135 71.459597)scale(0.1 -0.1)">
       <use xlink:href="#DejaVuSans-31"/>
       <use xlink:href="#DejaVuSans-30" x="63.623047"/>
      </g>
     </g>
    </g>
    <g id="ytick_6">
     <g id="line2d_12">
      <g>
       <use xlink:href="#mefc07977b1" x="38.86" y="41.261243" style="stroke: #000000; stroke-width: 0.8"/>
      </g>
     </g>
     <g id="text_12">
      <!-- 20 -->
      <g transform="translate(19.135 45.060462)scale(0.1 -0.1)">
       <use xlink:href="#DejaVuSans-32"/>
       <use xlink:href="#DejaVuSans-30" x="63.623047"/>
      </g>
     </g>
    </g>
    <g id="ytick_7">
     <g id="line2d_13">
      <g>
       <use xlink:href="#mefc07977b1" x="38.86" y="14.862108" style="stroke: #000000; stroke-width: 0.8"/>
      </g>
     </g>
     <g id="text_13">
      <!-- 30 -->
      <g transform="translate(19.135 18.661327)scale(0.1 -0.1)">
       <use xlink:href="#DejaVuSans-33"/>
       <use xlink:href="#DejaVuSans-30" x="63.623047"/>
      </g>
     </g>
    </g>
   </g>
   <g id="line2d_14">
    <path d="M 49.693636 84.099022 
L 50.543333 84.983776 
L 51.39303 88.359383 
L 52.242727 90.417981 
L 53.092424 84.055221 
L 53.942121 87.282172 
L 54.791818 88.234181 
L 55.641515 70.503159 
L 56.491212 84.270148 
L 57.340909 90.154513 
L 58.190606 79.774933 
L 59.040303 91.523665 
L 59.89 81.514025 
L 60.739697 87.879082 
L 61.589394 90.978088 
L 62.439091 84.588487 
L 63.288788 84.696379 
L 64.138485 76.336931 
L 64.988182 85.819147 
L 65.837879 79.101298 
L 66.687576 73.550914 
L 67.537273 58.850111 
L 68.38697 22.120037 
L 69.236667 80.493262 
L 70.086364 74.966161 
L 70.936061 87.719576 
L 71.785758 78.026504 
L 72.635455 83.2197 
L 73.485152 65.612291 
L 74.334848 82.943285 
L 75.184545 91.393496 
L 76.034242 86.825595 
L 76.883939 87.546152 
L 77.733636 86.763878 
L 78.583333 20.826662 
L 79.43303 87.539748 
L 80.282727 90.060588 
L 81.132424 87.843653 
L 81.982121 88.967379 
L 82.831818 84.703193 
L 83.681515 85.510567 
L 84.531212 89.565998 
L 85.380909 87.157079 
L 86.230606 79.214767 
L 87.080303 87.136675 
L 87.93 90.178998 
L 88.779697 80.469512 
L 90.479091 88.695528 
L 91.328788 81.678139 
L 92.178485 90.238605 
L 93.028182 89.857842 
L 93.877879 89.630272 
L 94.727576 88.227738 
L 95.577273 82.468485 
L 96.42697 82.10916 
L 97.276667 90.117459 
L 98.126364 83.379498 
L 98.976061 79.11895 
L 99.825758 90.388089 
L 100.675455 82.278454 
L 101.525152 91.06465 
L 102.374848 76.234503 
L 103.224545 77.150684 
L 104.074242 84.281771 
L 104.923939 89.343162 
L 105.773636 78.169784 
L 106.623333 85.96308 
L 107.47303 88.692266 
L 108.322727 83.120753 
L 109.172424 89.834545 
L 110.022121 83.879731 
L 110.871818 68.158575 
L 111.721515 89.142888 
L 112.571212 89.796896 
L 113.420909 88.031303 
L 114.270606 85.998465 
L 115.120303 90.843675 
L 115.97 77.656143 
L 116.819697 89.895564 
L 117.669394 88.639638 
L 118.519091 78.614299 
L 119.368788 90.458554 
L 120.218485 76.400778 
L 121.068182 83.290496 
L 121.917879 66.209085 
L 122.767576 86.622128 
L 123.617273 89.225714 
L 124.46697 73.216316 
L 125.316667 67.952712 
L 126.166364 86.114286 
L 127.016061 61.72123 
L 127.865758 90.028767 
L 128.715455 86.722021 
L 129.565152 90.048151 
L 130.414848 89.53448 
L 131.264545 82.095093 
L 132.114242 89.790927 
L 132.963939 79.671809 
L 133.813636 83.679345 
L 134.663333 86.827544 
L 135.51303 87.905167 
L 136.362727 80.687766 
L 137.212424 83.029516 
L 138.062121 86.838144 
L 138.911818 86.255858 
L 139.761515 79.263822 
L 140.611212 90.044778 
L 141.460909 79.269978 
L 142.310606 86.810074 
L 143.160303 89.33396 
L 144.01 78.836884 
L 144.859697 83.754649 
L 145.709394 73.650126 
L 146.559091 83.715817 
L 147.408788 87.240246 
L 148.258485 87.810879 
L 149.108182 83.374211 
L 149.957879 81.920661 
L 150.807576 81.165498 
L 151.657273 87.025456 
L 152.50697 89.635914 
L 153.356667 90.394584 
L 154.206364 80.631174 
L 155.056061 89.083153 
L 155.905758 70.096063 
L 156.755455 75.259265 
L 157.605152 87.470562 
L 158.454848 86.991715 
L 159.304545 38.1348 
L 160.154242 87.557434 
L 161.003939 88.436348 
L 161.853636 75.935298 
L 162.703333 78.00818 
L 163.55303 87.636383 
L 164.402727 70.289524 
L 165.252424 90.004583 
L 166.102121 87.718454 
L 166.951818 78.648166 
L 167.801515 91.463043 
L 168.651212 88.915243 
L 169.500909 90.204031 
L 170.350606 88.612747 
L 171.200303 40.778853 
L 172.05 87.345247 
L 172.899697 85.808499 
L 173.749394 87.43073 
L 174.599091 89.486727 
L 175.448788 90.755442 
L 176.298485 74.642611 
L 177.148182 65.651241 
L 177.997879 90.238459 
L 178.847576 75.386595 
L 179.697273 89.443277 
L 180.54697 87.448334 
L 181.396667 69.029074 
L 182.246364 62.398744 
L 183.096061 86.08374 
L 183.945758 86.42907 
L 184.795455 88.489817 
L 185.645152 85.121242 
L 186.494848 84.270114 
L 187.344545 76.567969 
L 188.194242 88.698998 
L 189.043939 84.221846 
L 189.893636 84.623115 
L 190.743333 84.34881 
L 191.59303 83.695465 
L 192.442727 81.991589 
L 193.292424 80.876877 
L 194.142121 88.901201 
L 194.991818 84.722411 
L 195.841515 79.402405 
L 196.691212 89.131494 
L 197.540909 88.210943 
L 198.390606 88.549287 
L 199.240303 85.445519 
L 200.09 80.888961 
L 200.939697 72.845316 
L 201.789394 89.064119 
L 202.639091 85.811433 
L 203.488788 89.72468 
L 204.338485 85.678562 
L 205.188182 66.824479 
L 206.037879 87.438619 
L 206.887576 89.393483 
L 207.737273 82.676235 
L 208.58697 88.73155 
L 209.436667 88.283084 
L 210.286364 80.706156 
L 211.136061 87.653245 
L 211.985758 87.764616 
L 212.835455 85.268582 
L 213.685152 81.432353 
L 214.534848 72.574917 
L 215.384545 83.997495 
L 216.234242 87.612193 
L 217.083939 82.203058 
L 217.933636 88.291039 
L 218.783333 89.511565 
L 219.63303 74.970589 
L 220.482727 66.9082 
L 221.332424 89.563422 
L 222.182121 83.584801 
L 223.031818 89.202257 
L 223.881515 76.866008 
L 224.731212 87.960878 
L 225.580909 81.869976 
L 226.430606 26.113679 
L 227.280303 90.896813 
L 228.13 69.643894 
L 228.979697 90.381908 
L 229.829394 80.259805 
L 230.679091 89.930851 
L 231.528788 75.824567 
L 232.378485 85.051488 
L 233.228182 90.002759 
L 234.077879 84.064783 
L 234.927576 42.886179 
L 235.777273 84.490918 
L 236.62697 88.448352 
L 237.476667 88.561756 
L 238.326364 88.861979 
L 239.176061 51.395208 
L 240.025758 87.929693 
L 240.875455 86.811131 
L 241.725152 81.761743 
L 242.574848 88.269394 
L 243.424545 87.889505 
L 244.274242 81.309156 
L 245.123939 85.178905 
L 245.973636 90.081855 
L 246.823333 80.340476 
L 247.67303 84.458102 
L 248.522727 76.541991 
L 249.372424 81.851773 
L 250.222121 86.399436 
L 251.921515 84.338627 
L 252.771212 84.669511 
L 253.620909 78.932396 
L 254.470606 86.285486 
L 255.320303 85.616888 
L 256.17 86.12247 
L 257.019697 87.789078 
L 257.869394 80.520494 
L 258.719091 83.504844 
L 259.568788 61.309678 
L 260.418485 87.403858 
L 261.268182 87.281322 
L 262.117879 84.912433 
L 262.967576 84.018174 
L 263.817273 83.671973 
L 264.66697 89.165771 
L 265.516667 80.558895 
L 266.366364 86.868393 
L 266.366364 86.868393 
" clip-path="url(#p85ac13f228)" style="fill: none; stroke: #20b2aa; stroke-width: 1.5; stroke-linecap: square"/>
   </g>
   <g id="line2d_15">
    <path d="M 49.693636 98.086469 
L 50.543333 103.419556 
L 51.39303 100.621118 
L 52.242727 103.431862 
L 53.092424 110.818673 
L 53.942121 102.17689 
L 54.791818 103.49491 
L 55.641515 100.091722 
L 56.491212 99.170177 
L 57.340909 107.339812 
L 58.190606 106.525107 
L 59.040303 104.238046 
L 59.89 99.252154 
L 60.739697 106.530771 
L 61.589394 97.829565 
L 62.439091 102.600906 
L 63.288788 100.952965 
L 64.138485 98.458427 
L 64.988182 97.16977 
L 65.837879 104.248249 
L 66.687576 105.529693 
L 68.38697 100.212445 
L 69.236667 95.996686 
L 70.086364 102.402168 
L 70.936061 100.653804 
L 71.785758 99.909235 
L 72.635455 101.858062 
L 73.485152 99.184416 
L 74.334848 97.257661 
L 75.184545 101.705406 
L 76.883939 140.440452 
L 77.733636 98.27241 
L 78.583333 97.032534 
L 79.43303 98.902865 
L 80.282727 103.536898 
L 81.132424 97.862336 
L 81.982121 109.631033 
L 82.831818 101.31975 
L 83.681515 172.431936 
L 84.531212 109.32696 
L 85.380909 113.902767 
L 86.230606 106.775286 
L 87.080303 109.597261 
L 87.93 105.928246 
L 88.779697 100.831835 
L 89.629394 97.510282 
L 90.479091 102.591948 
L 91.328788 102.196243 
L 92.178485 102.157579 
L 93.028182 97.181482 
L 93.877879 104.336845 
L 94.727576 108.621682 
L 95.577273 113.60147 
L 96.42697 100.529292 
L 97.276667 101.10335 
L 98.126364 98.326491 
L 98.976061 104.278057 
L 99.825758 101.609388 
L 100.675455 112.772248 
L 101.525152 102.537528 
L 102.374848 98.643878 
L 103.224545 98.931508 
L 104.074242 104.662503 
L 104.923939 106.769895 
L 105.773636 105.17805 
L 106.623333 106.579952 
L 107.47303 105.43419 
L 108.322727 117.689954 
L 109.172424 104.783061 
L 110.022121 101.744045 
L 110.871818 99.233774 
L 111.721515 101.387211 
L 113.420909 108.995705 
L 114.270606 99.524626 
L 115.120303 96.713462 
L 115.97 102.910595 
L 116.819697 98.137629 
L 117.669394 125.804485 
L 118.519091 98.818435 
L 119.368788 104.517213 
L 120.218485 99.686038 
L 121.068182 101.633567 
L 121.917879 105.928587 
L 122.767576 99.465513 
L 123.617273 101.490007 
L 124.46697 102.849964 
L 125.316667 101.922714 
L 126.166364 148.530081 
L 127.016061 144.5858 
L 127.865758 112.163768 
L 128.715455 108.051718 
L 129.565152 101.280181 
L 130.414848 100.298581 
L 131.264545 100.112076 
L 132.114242 138.187108 
L 132.963939 99.599296 
L 133.813636 109.204967 
L 134.663333 126.064789 
L 135.51303 101.729664 
L 136.362727 98.680132 
L 137.212424 102.005362 
L 138.062121 99.873977 
L 138.911818 126.432789 
L 139.761515 98.1612 
L 140.611212 106.187891 
L 141.460909 98.999543 
L 142.310606 99.750024 
L 143.160303 105.220366 
L 144.01 102.534666 
L 144.859697 110.203972 
L 145.709394 98.871673 
L 146.559091 115.612715 
L 147.408788 98.937948 
L 148.258485 96.669571 
L 149.108182 103.034481 
L 149.957879 103.378613 
L 150.807576 98.468659 
L 151.657273 120.026079 
L 152.50697 99.446044 
L 153.356667 112.357421 
L 154.206364 97.633665 
L 155.056061 108.357252 
L 155.905758 99.486632 
L 156.755455 101.469086 
L 157.605152 109.440059 
L 158.454848 101.144798 
L 159.304545 115.422983 
L 160.154242 107.245293 
L 161.003939 106.117847 
L 161.853636 99.378989 
L 162.703333 97.591896 
L 163.55303 102.149542 
L 164.402727 99.021414 
L 165.252424 100.48495 
L 166.102121 104.911196 
L 166.951818 100.042215 
L 167.801515 101.942482 
L 168.651212 103.56012 
L 169.500909 104.933245 
L 170.350606 113.777646 
L 171.200303 98.658806 
L 172.05 105.362561 
L 172.899697 98.45077 
L 173.749394 100.242412 
L 174.599091 121.786088 
L 175.448788 112.765893 
L 176.298485 112.000853 
L 177.148182 98.613062 
L 177.997879 107.892661 
L 178.847576 108.731331 
L 179.697273 106.425016 
L 180.54697 98.375229 
L 181.396667 121.541 
L 182.246364 126.59968 
L 183.096061 97.592893 
L 183.945758 99.69514 
L 184.795455 105.241399 
L 185.645152 98.363627 
L 186.494848 103.100075 
L 187.344545 101.139195 
L 188.194242 108.109931 
L 189.043939 98.9544 
L 190.743333 96.99795 
L 191.59303 100.01928 
L 192.442727 100.547944 
L 193.292424 99.093884 
L 194.142121 102.549884 
L 194.991818 114.910982 
L 195.841515 99.57528 
L 196.691212 100.414865 
L 197.540909 100.651086 
L 198.390606 104.910961 
L 199.240303 98.524478 
L 200.09 112.633446 
L 200.939697 104.026264 
L 201.789394 101.657795 
L 202.639091 114.909095 
L 203.488788 101.427091 
L 204.338485 99.002323 
L 205.188182 101.961678 
L 206.037879 180.153651 
L 206.887576 109.250734 
L 207.737273 96.879747 
L 208.58697 102.016809 
L 209.436667 104.99979 
L 210.286364 99.159203 
L 211.136061 119.036547 
L 211.985758 174.140849 
L 212.835455 104.255888 
L 213.685152 100.996822 
L 215.384545 107.886319 
L 216.234242 100.161253 
L 217.083939 101.73519 
L 217.933636 107.695813 
L 218.783333 109.479045 
L 219.63303 98.025838 
L 220.482727 111.083642 
L 221.332424 106.803786 
L 222.182121 100.755156 
L 223.031818 103.77642 
L 223.881515 104.991459 
L 224.731212 99.961127 
L 225.580909 111.286062 
L 226.430606 99.29939 
L 227.280303 106.466263 
L 228.13 98.764565 
L 228.979697 111.644008 
L 229.829394 104.558061 
L 230.679091 107.010705 
L 231.528788 102.368341 
L 232.378485 101.759704 
L 233.228182 104.13593 
L 234.077879 121.975204 
L 234.927576 97.537866 
L 235.777273 107.848958 
L 236.62697 103.664345 
L 237.476667 98.575192 
L 238.326364 105.651291 
L 239.176061 99.619324 
L 240.875455 106.226188 
L 241.725152 98.413776 
L 242.574848 107.606495 
L 243.424545 108.759653 
L 244.274242 102.582592 
L 245.123939 119.931862 
L 245.973636 100.015379 
L 246.823333 104.405701 
L 247.67303 106.273505 
L 248.522727 102.413548 
L 249.372424 99.917917 
L 250.222121 99.080991 
L 251.071818 96.827688 
L 251.921515 108.767627 
L 252.771212 100.143626 
L 253.620909 101.440412 
L 254.470606 120.056507 
L 255.320303 97.130912 
L 256.17 100.426767 
L 257.019697 107.488499 
L 257.869394 99.925583 
L 258.719091 99.385954 
L 259.568788 113.925239 
L 260.418485 108.646224 
L 261.268182 111.524036 
L 262.117879 99.214607 
L 262.967576 107.203588 
L 263.817273 102.131095 
L 264.66697 105.918052 
L 265.516667 99.309534 
L 266.366364 104.714108 
L 266.366364 104.714108 
" clip-path="url(#p85ac13f228)" style="fill: none; stroke: #4169e1; stroke-opacity: 0.8; stroke-width: 1.5; stroke-linecap: square"/>
   </g>
   <g id="patch_3">
    <path d="M 38.86 188.12 
L 38.86 12.860312 
" style="fill: none; stroke: #000000; stroke-width: 1.5; stroke-linejoin: miter; stroke-linecap: square"/>
   </g>
   <g id="patch_4">
    <path d="M 277.2 188.12 
L 277.2 12.860312 
" style="fill: none; stroke: #000000; stroke-width: 1.5; stroke-linejoin: miter; stroke-linecap: square"/>
   </g>
   <g id="patch_5">
    <path d="M 38.86 188.12 
L 277.2 188.12 
" style="fill: none; stroke: #000000; stroke-width: 1.5; stroke-linejoin: miter; stroke-linecap: square"/>
   </g>
   <g id="patch_6">
    <path d="M 38.86 12.860312 
L 277.2 12.860312 
" style="fill: none; stroke: #000000; stroke-width: 1.5; stroke-linejoin: miter; stroke-linecap: square"/>
   </g>
   <g id="legend_1">
    <g id="patch_7">
     <path d="M 235.4275 184.62 
L 272.3 184.62 
Q 273.7 184.62 273.7 183.22 
L 273.7 163.370625 
Q 273.7 161.970625 272.3 161.970625 
L 235.4275 161.970625 
Q 234.0275 161.970625 234.0275 163.370625 
L 234.0275 183.22 
Q 234.0275 184.62 235.4275 184.62 
z
" style="fill: #ffffff; opacity: 0.8; stroke: #000000; stroke-width: 1.5; stroke-linejoin: miter"/>
    </g>
    <g id="line2d_16">
     <path d="M 236.8275 167.639531 
L 243.8275 167.639531 
L 250.8275 167.639531 
" style="fill: none; stroke: #20b2aa; stroke-width: 1.5; stroke-linecap: square"/>
    </g>
    <g id="text_14">
     <!-- Max -->
     <g transform="translate(256.4275 170.089531)scale(0.07 -0.07)">
      <defs>
       <path id="DejaVuSans-4d" d="M 628 4666 
L 1569 4666 
L 2759 1491 
L 3956 4666 
L 4897 4666 
L 4897 0 
L 4281 0 
L 4281 4097 
L 3078 897 
L 2444 897 
L 1241 4097 
L 1241 0 
L 628 0 
L 628 4666 
z
" transform="scale(0.015625)"/>
       <path id="DejaVuSans-61" d="M 2194 1759 
Q 1497 1759 1228 1600 
Q 959 1441 959 1056 
Q 959 750 1161 570 
Q 1363 391 1709 391 
Q 2188 391 2477 730 
Q 2766 1069 2766 1631 
L 2766 1759 
L 2194 1759 
z
M 3341 1997 
L 3341 0 
L 2766 0 
L 2766 531 
Q 2569 213 2275 61 
Q 1981 -91 1556 -91 
Q 1019 -91 701 211 
Q 384 513 384 1019 
Q 384 1609 779 1909 
Q 1175 2209 1959 2209 
L 2766 2209 
L 2766 2266 
Q 2766 2663 2505 2880 
Q 2244 3097 1772 3097 
Q 1472 3097 1187 3025 
Q 903 2953 641 2809 
L 641 3341 
Q 956 3463 1253 3523 
Q 1550 3584 1831 3584 
Q 2591 3584 2966 3190 
Q 3341 2797 3341 1997 
z
" transform="scale(0.015625)"/>
       <path id="DejaVuSans-78" d="M 3513 3500 
L 2247 1797 
L 3578 0 
L 2900 0 
L 1881 1375 
L 863 0 
L 184 0 
L 1544 1831 
L 300 3500 
L 978 3500 
L 1906 2253 
L 2834 3500 
L 3513 3500 
z
" transform="scale(0.015625)"/>
      </defs>
      <use xlink:href="#DejaVuSans-4d"/>
      <use xlink:href="#DejaVuSans-61" x="86.279297"/>
      <use xlink:href="#DejaVuSans-78" x="147.558594"/>
     </g>
    </g>
    <g id="line2d_17">
     <path d="M 236.8275 177.914219 
L 243.8275 177.914219 
L 250.8275 177.914219 
" style="fill: none; stroke: #4169e1; stroke-opacity: 0.8; stroke-width: 1.5; stroke-linecap: square"/>
    </g>
    <g id="text_15">
     <!-- Min -->
     <g transform="translate(256.4275 180.364219)scale(0.07 -0.07)">
      <defs>
       <path id="DejaVuSans-69" d="M 603 3500 
L 1178 3500 
L 1178 0 
L 603 0 
L 603 3500 
z
M 603 4863 
L 1178 4863 
L 1178 4134 
L 603 4134 
L 603 4863 
z
" transform="scale(0.015625)"/>
       <path id="DejaVuSans-6e" d="M 3513 2113 
L 3513 0 
L 2938 0 
L 2938 2094 
Q 2938 2591 2744 2837 
Q 2550 3084 2163 3084 
Q 1697 3084 1428 2787 
Q 1159 2491 1159 1978 
L 1159 0 
L 581 0 
L 581 3500 
L 1159 3500 
L 1159 2956 
Q 1366 3272 1645 3428 
Q 1925 3584 2291 3584 
Q 2894 3584 3203 3211 
Q 3513 2838 3513 2113 
z
" transform="scale(0.015625)"/>
      </defs>
      <use xlink:href="#DejaVuSans-4d"/>
      <use xlink:href="#DejaVuSans-69" x="86.279297"/>
      <use xlink:href="#DejaVuSans-6e" x="114.0625"/>
     </g>
    </g>
   </g>
  </g>
 </g>
 <defs>
  <clipPath id="p85ac13f228">
   <rect x="38.86" y="12.860312" width="238.34" height="175.259688"/>
  </clipPath>
 </defs>
</svg>
