<?xml version="1.0" encoding="utf-8" standalone="no"?>
<!DOCTYPE svg PUBLIC "-//W3C//DTD SVG 1.1//EN"
  "http://www.w3.org/Graphics/SVG/1.1/DTD/svg11.dtd">
<svg height="216pt" version="1.1" viewBox="0 0 288 216" width="288pt" xmlns="http://www.w3.org/2000/svg" xmlns:xlink="http://www.w3.org/1999/xlink">
 <metadata>
  <rdf:RDF xmlns:cc="http://creativecommons.org/ns#" xmlns:dc="http://purl.org/dc/elements/1.1/" xmlns:rdf="http://www.w3.org/1999/02/22-rdf-syntax-ns#">
   <cc:Work>
    <dc:type rdf:resource="http://purl.org/dc/dcmitype/StillImage"/>
    <dc:date>2023-07-11T11:58:46.898572</dc:date>
    <dc:format>image/svg+xml</dc:format>
    <dc:creator>
     <cc:Agent>
      <dc:title>Matplotlib v3.4.1, https://matplotlib.org/</dc:title>
     </cc:Agent>
    </dc:creator>
   </cc:Work>
  </rdf:RDF>
 </metadata>
 <defs>
  <style type="text/css">*{stroke-linecap:butt;stroke-linejoin:round;}</style>
 </defs>
 <g id="figure_1">
  <g id="patch_1">
   <path d="M 0 216 
L 288 216 
L 288 0 
L 0 0 
z
" style="fill:#ffffff;"/>
  </g>
  <g id="axes_1">
   <g id="patch_2">
    <path d="M 32.56 188.12 
L 277.2 188.12 
L 277.2 10.8 
L 32.56 10.8 
z
" style="fill:#ffffff;"/>
   </g>
   <g id="matplotlib.axis_1">
    <g id="xtick_1">
     <g id="line2d_1">
      <defs>
       <path d="M 0 0 
L 0 3.5 
" id="m8ccae21767" style="stroke:#000000;stroke-width:0.8;"/>
      </defs>
      <g>
       <use style="stroke:#000000;stroke-width:0.8;" x="43.68" xlink:href="#m8ccae21767" y="188.12"/>
      </g>
     </g>
     <g id="text_1">
      <!-- 0 -->
      <g transform="translate(40.49875 202.718437)scale(0.1 -0.1)">
       <defs>
        <path d="M 2034 4250 
Q 1547 4250 1301 3770 
Q 1056 3291 1056 2328 
Q 1056 1369 1301 889 
Q 1547 409 2034 409 
Q 2525 409 2770 889 
Q 3016 1369 3016 2328 
Q 3016 3291 2770 3770 
Q 2525 4250 2034 4250 
z
M 2034 4750 
Q 2819 4750 3233 4129 
Q 3647 3509 3647 2328 
Q 3647 1150 3233 529 
Q 2819 -91 2034 -91 
Q 1250 -91 836 529 
Q 422 1150 422 2328 
Q 422 3509 836 4129 
Q 1250 4750 2034 4750 
z
" id="DejaVuSans-30" transform="scale(0.015625)"/>
       </defs>
       <use xlink:href="#DejaVuSans-30"/>
      </g>
     </g>
    </g>
    <g id="xtick_2">
     <g id="line2d_2">
      <g>
       <use style="stroke:#000000;stroke-width:0.8;" x="87.202505" xlink:href="#m8ccae21767" y="188.12"/>
      </g>
     </g>
     <g id="text_2">
      <!-- 100 -->
      <g transform="translate(77.658755 202.718437)scale(0.1 -0.1)">
       <defs>
        <path d="M 794 531 
L 1825 531 
L 1825 4091 
L 703 3866 
L 703 4441 
L 1819 4666 
L 2450 4666 
L 2450 531 
L 3481 531 
L 3481 0 
L 794 0 
L 794 531 
z
" id="DejaVuSans-31" transform="scale(0.015625)"/>
       </defs>
       <use xlink:href="#DejaVuSans-31"/>
       <use x="63.623047" xlink:href="#DejaVuSans-30"/>
       <use x="127.246094" xlink:href="#DejaVuSans-30"/>
      </g>
     </g>
    </g>
    <g id="xtick_3">
     <g id="line2d_3">
      <g>
       <use style="stroke:#000000;stroke-width:0.8;" x="130.72501" xlink:href="#m8ccae21767" y="188.12"/>
      </g>
     </g>
     <g id="text_3">
      <!-- 200 -->
      <g transform="translate(121.18126 202.718437)scale(0.1 -0.1)">
       <defs>
        <path d="M 1228 531 
L 3431 531 
L 3431 0 
L 469 0 
L 469 531 
Q 828 903 1448 1529 
Q 2069 2156 2228 2338 
Q 2531 2678 2651 2914 
Q 2772 3150 2772 3378 
Q 2772 3750 2511 3984 
Q 2250 4219 1831 4219 
Q 1534 4219 1204 4116 
Q 875 4013 500 3803 
L 500 4441 
Q 881 4594 1212 4672 
Q 1544 4750 1819 4750 
Q 2544 4750 2975 4387 
Q 3406 4025 3406 3419 
Q 3406 3131 3298 2873 
Q 3191 2616 2906 2266 
Q 2828 2175 2409 1742 
Q 1991 1309 1228 531 
z
" id="DejaVuSans-32" transform="scale(0.015625)"/>
       </defs>
       <use xlink:href="#DejaVuSans-32"/>
       <use x="63.623047" xlink:href="#DejaVuSans-30"/>
       <use x="127.246094" xlink:href="#DejaVuSans-30"/>
      </g>
     </g>
    </g>
    <g id="xtick_4">
     <g id="line2d_4">
      <g>
       <use style="stroke:#000000;stroke-width:0.8;" x="174.247515" xlink:href="#m8ccae21767" y="188.12"/>
      </g>
     </g>
     <g id="text_4">
      <!-- 300 -->
      <g transform="translate(164.703765 202.718437)scale(0.1 -0.1)">
       <defs>
        <path d="M 2597 2516 
Q 3050 2419 3304 2112 
Q 3559 1806 3559 1356 
Q 3559 666 3084 287 
Q 2609 -91 1734 -91 
Q 1441 -91 1130 -33 
Q 819 25 488 141 
L 488 750 
Q 750 597 1062 519 
Q 1375 441 1716 441 
Q 2309 441 2620 675 
Q 2931 909 2931 1356 
Q 2931 1769 2642 2001 
Q 2353 2234 1838 2234 
L 1294 2234 
L 1294 2753 
L 1863 2753 
Q 2328 2753 2575 2939 
Q 2822 3125 2822 3475 
Q 2822 3834 2567 4026 
Q 2313 4219 1838 4219 
Q 1578 4219 1281 4162 
Q 984 4106 628 3988 
L 628 4550 
Q 988 4650 1302 4700 
Q 1616 4750 1894 4750 
Q 2613 4750 3031 4423 
Q 3450 4097 3450 3541 
Q 3450 3153 3228 2886 
Q 3006 2619 2597 2516 
z
" id="DejaVuSans-33" transform="scale(0.015625)"/>
       </defs>
       <use xlink:href="#DejaVuSans-33"/>
       <use x="63.623047" xlink:href="#DejaVuSans-30"/>
       <use x="127.246094" xlink:href="#DejaVuSans-30"/>
      </g>
     </g>
    </g>
    <g id="xtick_5">
     <g id="line2d_5">
      <g>
       <use style="stroke:#000000;stroke-width:0.8;" x="217.77002" xlink:href="#m8ccae21767" y="188.12"/>
      </g>
     </g>
     <g id="text_5">
      <!-- 400 -->
      <g transform="translate(208.22627 202.718437)scale(0.1 -0.1)">
       <defs>
        <path d="M 2419 4116 
L 825 1625 
L 2419 1625 
L 2419 4116 
z
M 2253 4666 
L 3047 4666 
L 3047 1625 
L 3713 1625 
L 3713 1100 
L 3047 1100 
L 3047 0 
L 2419 0 
L 2419 1100 
L 313 1100 
L 313 1709 
L 2253 4666 
z
" id="DejaVuSans-34" transform="scale(0.015625)"/>
       </defs>
       <use xlink:href="#DejaVuSans-34"/>
       <use x="63.623047" xlink:href="#DejaVuSans-30"/>
       <use x="127.246094" xlink:href="#DejaVuSans-30"/>
      </g>
     </g>
    </g>
    <g id="xtick_6">
     <g id="line2d_6">
      <g>
       <use style="stroke:#000000;stroke-width:0.8;" x="261.292524" xlink:href="#m8ccae21767" y="188.12"/>
      </g>
     </g>
     <g id="text_6">
      <!-- 500 -->
      <g transform="translate(251.748774 202.718437)scale(0.1 -0.1)">
       <defs>
        <path d="M 691 4666 
L 3169 4666 
L 3169 4134 
L 1269 4134 
L 1269 2991 
Q 1406 3038 1543 3061 
Q 1681 3084 1819 3084 
Q 2600 3084 3056 2656 
Q 3513 2228 3513 1497 
Q 3513 744 3044 326 
Q 2575 -91 1722 -91 
Q 1428 -91 1123 -41 
Q 819 9 494 109 
L 494 744 
Q 775 591 1075 516 
Q 1375 441 1709 441 
Q 2250 441 2565 725 
Q 2881 1009 2881 1497 
Q 2881 1984 2565 2268 
Q 2250 2553 1709 2553 
Q 1456 2553 1204 2497 
Q 953 2441 691 2322 
L 691 4666 
z
" id="DejaVuSans-35" transform="scale(0.015625)"/>
       </defs>
       <use xlink:href="#DejaVuSans-35"/>
       <use x="63.623047" xlink:href="#DejaVuSans-30"/>
       <use x="127.246094" xlink:href="#DejaVuSans-30"/>
      </g>
     </g>
    </g>
   </g>
   <g id="matplotlib.axis_2">
    <g id="ytick_1">
     <g id="line2d_7">
      <defs>
       <path d="M 0 0 
L -3.5 0 
" id="m333691effb" style="stroke:#000000;stroke-width:0.8;"/>
      </defs>
      <g>
       <use style="stroke:#000000;stroke-width:0.8;" x="32.56" xlink:href="#m333691effb" y="171.443912"/>
      </g>
     </g>
     <g id="text_7">
      <!-- −6 -->
      <g transform="translate(10.817812 175.243131)scale(0.1 -0.1)">
       <defs>
        <path d="M 678 2272 
L 4684 2272 
L 4684 1741 
L 678 1741 
L 678 2272 
z
" id="DejaVuSans-2212" transform="scale(0.015625)"/>
        <path d="M 2113 2584 
Q 1688 2584 1439 2293 
Q 1191 2003 1191 1497 
Q 1191 994 1439 701 
Q 1688 409 2113 409 
Q 2538 409 2786 701 
Q 3034 994 3034 1497 
Q 3034 2003 2786 2293 
Q 2538 2584 2113 2584 
z
M 3366 4563 
L 3366 3988 
Q 3128 4100 2886 4159 
Q 2644 4219 2406 4219 
Q 1781 4219 1451 3797 
Q 1122 3375 1075 2522 
Q 1259 2794 1537 2939 
Q 1816 3084 2150 3084 
Q 2853 3084 3261 2657 
Q 3669 2231 3669 1497 
Q 3669 778 3244 343 
Q 2819 -91 2113 -91 
Q 1303 -91 875 529 
Q 447 1150 447 2328 
Q 447 3434 972 4092 
Q 1497 4750 2381 4750 
Q 2619 4750 2861 4703 
Q 3103 4656 3366 4563 
z
" id="DejaVuSans-36" transform="scale(0.015625)"/>
       </defs>
       <use xlink:href="#DejaVuSans-2212"/>
       <use x="83.789062" xlink:href="#DejaVuSans-36"/>
      </g>
     </g>
    </g>
    <g id="ytick_2">
     <g id="line2d_8">
      <g>
       <use style="stroke:#000000;stroke-width:0.8;" x="32.56" xlink:href="#m333691effb" y="147.449275"/>
      </g>
     </g>
     <g id="text_8">
      <!-- −4 -->
      <g transform="translate(10.817812 151.248494)scale(0.1 -0.1)">
       <use xlink:href="#DejaVuSans-2212"/>
       <use x="83.789062" xlink:href="#DejaVuSans-34"/>
      </g>
     </g>
    </g>
    <g id="ytick_3">
     <g id="line2d_9">
      <g>
       <use style="stroke:#000000;stroke-width:0.8;" x="32.56" xlink:href="#m333691effb" y="123.454637"/>
      </g>
     </g>
     <g id="text_9">
      <!-- −2 -->
      <g transform="translate(10.817812 127.253856)scale(0.1 -0.1)">
       <use xlink:href="#DejaVuSans-2212"/>
       <use x="83.789062" xlink:href="#DejaVuSans-32"/>
      </g>
     </g>
    </g>
    <g id="ytick_4">
     <g id="line2d_10">
      <g>
       <use style="stroke:#000000;stroke-width:0.8;" x="32.56" xlink:href="#m333691effb" y="99.46"/>
      </g>
     </g>
     <g id="text_10">
      <!-- 0 -->
      <g transform="translate(19.1975 103.259219)scale(0.1 -0.1)">
       <use xlink:href="#DejaVuSans-30"/>
      </g>
     </g>
    </g>
    <g id="ytick_5">
     <g id="line2d_11">
      <g>
       <use style="stroke:#000000;stroke-width:0.8;" x="32.56" xlink:href="#m333691effb" y="75.465363"/>
      </g>
     </g>
     <g id="text_11">
      <!-- 2 -->
      <g transform="translate(19.1975 79.264581)scale(0.1 -0.1)">
       <use xlink:href="#DejaVuSans-32"/>
      </g>
     </g>
    </g>
    <g id="ytick_6">
     <g id="line2d_12">
      <g>
       <use style="stroke:#000000;stroke-width:0.8;" x="32.56" xlink:href="#m333691effb" y="51.470725"/>
      </g>
     </g>
     <g id="text_12">
      <!-- 4 -->
      <g transform="translate(19.1975 55.269944)scale(0.1 -0.1)">
       <use xlink:href="#DejaVuSans-34"/>
      </g>
     </g>
    </g>
    <g id="ytick_7">
     <g id="line2d_13">
      <g>
       <use style="stroke:#000000;stroke-width:0.8;" x="32.56" xlink:href="#m333691effb" y="27.476088"/>
      </g>
     </g>
     <g id="text_13">
      <!-- 6 -->
      <g transform="translate(19.1975 31.275307)scale(0.1 -0.1)">
       <use xlink:href="#DejaVuSans-36"/>
      </g>
     </g>
    </g>
   </g>
   <g id="line2d_14">
    <path clip-path="url(#pbc5ff77f54)" d="M 43.68 72.79651 
L 44.115225 66.368502 
L 44.55045 70.243234 
L 44.985675 77.065335 
L 45.4209 81.938578 
L 45.856125 80.139793 
L 46.29135 70.699397 
L 46.726575 71.065824 
L 47.1618 73.756415 
L 47.597025 69.36191 
L 48.03225 83.24231 
L 48.467476 78.729262 
L 48.902701 72.726628 
L 49.337926 80.525074 
L 49.773151 61.898314 
L 51.078826 82.541794 
L 51.514051 76.247414 
L 51.949276 78.518802 
L 52.384501 67.821817 
L 52.819726 66.853565 
L 53.254951 80.624684 
L 53.690176 78.028798 
L 54.125401 74.40773 
L 54.560626 79.904873 
L 54.995851 67.196949 
L 55.431076 68.635132 
L 55.866301 75.844136 
L 56.301526 69.577975 
L 56.736751 83.221332 
L 57.171977 78.706661 
L 57.607202 70.356489 
L 58.042427 65.328131 
L 58.477652 72.660436 
L 58.912877 74.28538 
L 59.348102 68.441536 
L 60.218552 75.022655 
L 60.653777 76.146999 
L 61.089002 68.916297 
L 61.524227 73.255585 
L 61.959452 68.872261 
L 62.394677 67.710319 
L 62.829902 76.551639 
L 63.265127 72.830357 
L 63.700352 56.60935 
L 64.135577 90.087301 
L 64.570802 69.965445 
L 65.006027 43.023566 
L 65.441252 64.094159 
L 65.876477 68.322264 
L 66.311703 80.956905 
L 66.746928 77.55951 
L 67.182153 77.663685 
L 67.617378 71.633347 
L 68.052603 75.40149 
L 68.487828 82.8287 
L 68.923053 77.431582 
L 69.358278 74.40632 
L 69.793503 79.790344 
L 70.663953 68.479356 
L 71.099178 66.163054 
L 71.534403 77.842934 
L 71.969628 77.689059 
L 72.404853 73.902203 
L 72.840078 76.447827 
L 73.275303 74.264642 
L 73.710528 73.876986 
L 74.145753 75.529964 
L 74.580978 74.713471 
L 75.016204 72.330857 
L 75.451429 77.210421 
L 75.886654 69.099024 
L 76.321879 31.007157 
L 76.757104 71.988589 
L 77.192329 70.421491 
L 77.627554 76.615032 
L 78.062779 77.413154 
L 78.498004 98.791758 
L 78.933229 71.581926 
L 79.368454 76.921653 
L 79.803679 74.553558 
L 80.238904 64.178975 
L 81.109354 77.677041 
L 81.544579 78.137014 
L 81.979804 77.250082 
L 82.415029 65.386766 
L 83.285479 76.757994 
L 83.720705 62.448434 
L 84.15593 74.743476 
L 84.591155 68.102123 
L 85.02638 68.393533 
L 85.461605 60.539391 
L 85.89683 71.715946 
L 86.332055 52.944544 
L 86.76728 81.414842 
L 87.202505 70.336689 
L 87.63773 79.447686 
L 88.072955 76.82879 
L 88.50818 66.650512 
L 88.943405 68.776444 
L 89.37863 77.37569 
L 89.813855 69.677313 
L 90.24908 76.157358 
L 90.684305 67.06147 
L 91.554755 77.486763 
L 91.98998 76.880392 
L 92.425205 82.888155 
L 92.860431 45.258372 
L 93.730881 80.761981 
L 94.166106 64.926016 
L 94.601331 75.244867 
L 95.036556 66.154459 
L 95.471781 80.188687 
L 95.907006 61.91511 
L 96.342231 74.538141 
L 96.777456 51.746129 
L 97.212681 80.004686 
L 97.647906 63.837208 
L 98.083131 76.756626 
L 98.518356 67.085176 
L 99.388806 77.037813 
L 99.824031 77.041054 
L 100.259256 55.023954 
L 100.694481 81.001907 
L 101.129706 75.663331 
L 101.564932 42.069731 
L 102.000157 76.061721 
L 102.435382 64.211658 
L 102.870607 77.474244 
L 103.305832 63.567803 
L 103.741057 74.337502 
L 104.176282 65.910051 
L 104.611507 70.056943 
L 105.046732 72.124652 
L 105.481957 89.21043 
L 105.917182 63.881118 
L 106.352407 77.463484 
L 106.787632 77.900281 
L 107.222857 79.146409 
L 107.658082 69.923029 
L 108.093307 67.351873 
L 108.528532 70.937524 
L 108.963757 63.455939 
L 109.398982 77.932393 
L 109.834207 72.653954 
L 110.269432 71.907377 
L 110.704658 73.193102 
L 111.139883 75.25267 
L 111.575108 63.912845 
L 112.010333 73.96925 
L 112.445558 76.21448 
L 112.880783 64.520725 
L 113.316008 79.156994 
L 113.751233 82.14153 
L 114.186458 77.417765 
L 114.621683 78.336262 
L 115.056908 56.743774 
L 115.492133 74.917239 
L 115.927358 66.776781 
L 116.362583 66.534266 
L 116.797808 72.330067 
L 117.233033 66.880253 
L 117.668258 74.0254 
L 118.103483 73.185557 
L 118.538708 63.865385 
L 118.973933 76.973192 
L 119.409159 70.928422 
L 119.844384 66.781764 
L 120.279609 78.293534 
L 120.714834 74.972261 
L 121.150059 57.562078 
L 121.585284 74.757478 
L 122.020509 61.453318 
L 122.455734 63.616652 
L 122.890959 66.596337 
L 123.326184 76.189646 
L 123.761409 75.696756 
L 124.196634 84.051692 
L 124.631859 78.753551 
L 125.067084 75.153958 
L 125.502309 80.676686 
L 126.372759 66.641974 
L 126.807984 77.846422 
L 127.243209 72.483807 
L 127.678434 73.279769 
L 128.113659 73.063401 
L 128.548885 81.351174 
L 128.98411 60.437856 
L 129.419335 70.844922 
L 129.85456 67.545035 
L 130.289785 44.240619 
L 130.72501 68.116974 
L 131.160235 74.492157 
L 131.59546 63.738482 
L 132.030685 45.565949 
L 132.46591 85.107275 
L 132.901135 80.597939 
L 133.33636 81.595352 
L 133.771585 83.285221 
L 134.20681 74.043208 
L 134.642035 75.48057 
L 135.07726 68.042644 
L 135.512485 78.561342 
L 135.94771 72.418253 
L 136.382935 72.619676 
L 136.81816 75.865751 
L 137.253386 80.718769 
L 137.688611 79.957243 
L 138.123836 63.33848 
L 138.559061 72.294427 
L 138.994286 65.521239 
L 139.429511 69.753314 
L 139.864736 72.881089 
L 140.299961 61.464966 
L 140.735186 77.747894 
L 141.170411 64.752948 
L 141.605636 65.038715 
L 142.040861 30.972312 
L 142.476086 77.357147 
L 142.911311 70.605814 
L 143.346536 71.365712 
L 143.781761 68.293254 
L 144.216986 61.746854 
L 144.652211 75.575582 
L 145.087436 78.58383 
L 145.522661 64.195085 
L 145.957886 62.31563 
L 146.393112 65.886756 
L 146.828337 82.708828 
L 147.263562 58.136495 
L 147.698787 65.26746 
L 148.134012 64.507576 
L 148.569237 63.385939 
L 149.439687 78.305292 
L 149.874912 75.005098 
L 150.310137 59.11087 
L 150.745362 63.641343 
L 151.180587 74.73638 
L 151.615812 76.288262 
L 152.051037 71.738397 
L 152.486262 73.558814 
L 152.921487 70.299281 
L 153.356712 55.59962 
L 153.791937 77.911314 
L 154.227162 75.190199 
L 154.662387 70.840872 
L 155.097613 72.625505 
L 155.532838 77.961787 
L 155.968063 74.93848 
L 156.403288 68.686047 
L 156.838513 70.624135 
L 157.273738 77.853074 
L 157.708963 67.099724 
L 158.144188 82.198332 
L 158.579413 60.013867 
L 159.449863 86.840106 
L 159.885088 69.498019 
L 160.320313 75.596391 
L 160.755538 68.11942 
L 161.190763 72.615333 
L 161.625988 72.217571 
L 162.061213 73.733129 
L 162.496438 71.345666 
L 162.931663 73.187284 
L 163.366888 69.795459 
L 163.802114 58.734292 
L 164.237339 78.935245 
L 164.672564 76.344205 
L 165.107789 47.463362 
L 165.543014 73.07006 
L 165.978239 72.133256 
L 166.848689 79.915842 
L 167.283914 53.016637 
L 167.719139 75.57134 
L 168.154364 70.490486 
L 168.589589 77.615853 
L 169.024814 77.265265 
L 169.460039 76.273964 
L 169.895264 80.306699 
L 170.330489 72.482457 
L 170.765714 70.843383 
L 171.200939 58.19138 
L 171.636164 65.488733 
L 172.071389 69.7415 
L 172.506614 75.115243 
L 172.94184 78.335085 
L 173.377065 72.745292 
L 173.81229 55.017378 
L 174.247515 71.898069 
L 174.68274 73.420469 
L 175.117965 73.248428 
L 175.55319 78.438882 
L 175.988415 76.025883 
L 176.42364 77.693787 
L 176.858865 68.719233 
L 177.29409 82.763855 
L 177.729315 77.119987 
L 178.16454 77.572786 
L 178.599765 73.294554 
L 179.03499 76.06846 
L 179.470215 72.335313 
L 179.90544 82.40906 
L 180.340665 79.027303 
L 180.77589 73.717514 
L 181.211115 76.866802 
L 181.646341 81.734155 
L 182.081566 82.076309 
L 182.516791 64.787954 
L 182.952016 74.341117 
L 183.387241 71.244294 
L 183.822466 69.868965 
L 184.257691 70.214785 
L 184.692916 85.790255 
L 185.128141 67.937717 
L 185.563366 66.916151 
L 185.998591 61.68073 
L 186.433816 37.300482 
L 186.869041 67.884596 
L 187.304266 82.258142 
L 187.739491 84.799281 
L 188.174716 46.969751 
L 188.609941 72.421643 
L 189.045166 79.399574 
L 189.480391 67.96977 
L 189.915616 74.672859 
L 190.350841 67.997965 
L 190.786067 79.139943 
L 191.221292 79.142329 
L 191.656517 65.685525 
L 192.091742 66.900759 
L 192.526967 80.350532 
L 192.962192 74.05189 
L 193.397417 63.960076 
L 193.832642 76.844138 
L 194.267867 74.323051 
L 194.703092 77.577519 
L 195.138317 70.360015 
L 195.573542 80.364635 
L 196.008767 58.867632 
L 196.443992 58.686115 
L 196.879217 75.833711 
L 197.314442 74.498098 
L 197.749667 79.562927 
L 198.184892 77.442837 
L 198.620117 72.929112 
L 199.055342 78.750631 
L 199.925793 70.920499 
L 200.361018 77.057017 
L 200.796243 73.670592 
L 201.231468 75.459093 
L 201.666693 81.626131 
L 202.101918 74.100264 
L 202.537143 62.844017 
L 202.972368 66.681616 
L 203.407593 81.23783 
L 203.842818 62.089262 
L 204.278043 74.12563 
L 204.713268 79.913705 
L 205.148493 78.752304 
L 205.583718 78.68221 
L 206.018943 76.168371 
L 206.454168 78.311703 
L 206.889393 73.686713 
L 207.324618 97.210503 
L 207.759843 72.667272 
L 208.195068 77.973836 
L 208.630294 76.579822 
L 209.500744 73.20731 
L 210.371194 81.563369 
L 210.806419 76.431592 
L 211.241644 82.110773 
L 211.676869 77.938284 
L 212.112094 70.716016 
L 212.547319 75.577593 
L 212.982544 74.460907 
L 213.417769 66.898725 
L 213.852994 74.951014 
L 214.288219 79.342721 
L 214.723444 68.688891 
L 215.158669 76.340887 
L 215.593894 68.428538 
L 216.029119 74.874885 
L 216.464344 77.378607 
L 216.899569 74.529765 
L 217.334795 57.642758 
L 217.77002 68.554647 
L 218.64047 71.735279 
L 219.075695 44.061256 
L 219.51092 77.672066 
L 219.946145 84.184263 
L 220.38137 61.892361 
L 221.25182 85.674132 
L 221.687045 71.422359 
L 222.12227 64.004025 
L 222.557495 69.432287 
L 222.99272 62.842664 
L 223.427945 65.52623 
L 223.86317 70.425964 
L 224.298395 77.985087 
L 224.73362 71.701183 
L 225.168845 76.822926 
L 225.60407 73.69641 
L 226.039295 75.035024 
L 226.474521 73.65748 
L 226.909746 78.566413 
L 227.344971 79.463871 
L 227.780196 75.207625 
L 228.215421 63.341194 
L 228.650646 73.713483 
L 229.085871 74.810023 
L 229.521096 75.407783 
L 229.956321 69.502704 
L 230.391546 70.657644 
L 231.697221 78.748151 
L 232.132446 77.661488 
L 232.567671 67.041784 
L 233.002896 65.505993 
L 233.438121 57.526046 
L 233.873346 64.244381 
L 234.308571 68.394906 
L 234.743796 81.371334 
L 235.179022 89.003114 
L 235.614247 68.772242 
L 236.049472 59.70258 
L 236.484697 75.863135 
L 236.919922 79.609884 
L 237.355147 60.869723 
L 237.790372 76.991472 
L 238.225597 71.196417 
L 238.660822 79.093017 
L 239.096047 45.363291 
L 239.531272 65.028315 
L 239.966497 66.74415 
L 240.401722 81.398922 
L 240.836947 72.040219 
L 241.272172 87.830897 
L 241.707397 66.359955 
L 242.142622 65.137175 
L 242.577847 71.898521 
L 243.013072 74.629149 
L 243.448297 74.081077 
L 243.883523 74.953457 
L 244.318748 77.349218 
L 244.753973 78.495507 
L 245.624423 70.855079 
L 246.059648 75.21493 
L 246.494873 68.950066 
L 246.930098 87.991967 
L 247.365323 86.69875 
L 247.800548 77.985855 
L 248.235773 74.00933 
L 248.670998 61.574516 
L 249.106223 77.244687 
L 249.541448 59.836901 
L 249.976673 90.269652 
L 250.411898 71.293196 
L 250.847123 80.048201 
L 251.282348 83.392727 
L 251.717573 73.558368 
L 252.152798 71.871845 
L 252.588023 82.797042 
L 253.023249 69.784057 
L 253.458474 77.750256 
L 253.893699 18.86 
L 254.328924 74.359146 
L 254.764149 75.380658 
L 255.199374 62.716681 
L 255.634599 75.077809 
L 256.069824 78.920908 
L 256.505049 76.643322 
L 256.940274 61.250617 
L 257.375499 77.542236 
L 257.810724 82.059018 
L 258.245949 66.64174 
L 258.681174 71.917471 
L 259.116399 71.489707 
L 259.551624 75.830908 
L 259.986849 72.726883 
L 260.422074 54.260429 
L 260.857299 68.758821 
L 261.292524 74.378334 
L 261.72775 75.832471 
L 262.162975 71.544835 
L 262.5982 84.184534 
L 263.033425 66.006383 
L 263.46865 76.99103 
L 263.903875 78.645037 
L 264.3391 58.582366 
L 264.774325 76.493317 
L 265.20955 73.723034 
L 265.644775 71.821477 
L 266.08 73.737007 
L 266.08 73.737007 
" style="fill:none;stroke:#20b2aa;stroke-linecap:square;stroke-width:1.5;"/>
   </g>
   <g id="line2d_15">
    <path clip-path="url(#pbc5ff77f54)" d="M 43.68 126.12349 
L 44.115225 132.551498 
L 44.55045 128.676766 
L 44.985675 121.854665 
L 45.4209 116.981422 
L 45.856125 118.780207 
L 46.29135 128.220603 
L 46.726575 127.854176 
L 47.1618 125.163585 
L 47.597025 129.55809 
L 48.03225 115.67769 
L 48.467476 120.190738 
L 48.902701 126.193372 
L 49.337926 118.394926 
L 49.773151 137.021686 
L 51.078826 116.378206 
L 51.514051 122.672586 
L 51.949276 120.401198 
L 52.384501 131.098183 
L 52.819726 132.066435 
L 53.254951 118.295316 
L 53.690176 120.891202 
L 54.125401 124.51227 
L 54.560626 119.015127 
L 54.995851 131.723051 
L 55.431076 130.284868 
L 55.866301 123.075864 
L 56.301526 129.342025 
L 56.736751 115.698668 
L 57.171977 120.213339 
L 57.607202 128.563511 
L 58.042427 133.591869 
L 58.477652 126.259564 
L 58.912877 124.63462 
L 59.348102 130.478464 
L 60.218552 123.897345 
L 60.653777 122.773001 
L 61.089002 130.003703 
L 61.524227 125.664415 
L 61.959452 130.047739 
L 62.394677 131.209681 
L 62.829902 122.368361 
L 63.265127 126.089643 
L 63.700352 142.31065 
L 64.135577 108.832699 
L 64.570802 128.954552 
L 65.006027 155.896434 
L 65.441252 134.825841 
L 65.876477 130.597736 
L 66.311703 117.963095 
L 66.746928 121.36049 
L 67.182153 121.256315 
L 67.617378 127.286653 
L 68.052603 123.51851 
L 68.487828 116.0913 
L 68.923053 121.488418 
L 69.358278 124.51368 
L 69.793503 119.129656 
L 70.663953 130.440644 
L 71.099178 132.756946 
L 71.534403 121.077066 
L 71.969628 121.230941 
L 72.404853 125.017797 
L 72.840078 122.472173 
L 73.275303 124.655358 
L 73.710528 125.043014 
L 74.145753 123.390036 
L 74.580978 124.206529 
L 75.016204 126.589143 
L 75.451429 121.709579 
L 75.886654 129.820976 
L 76.321879 167.912843 
L 76.757104 126.931411 
L 77.192329 128.498509 
L 77.627554 122.304968 
L 78.062779 121.506846 
L 78.498004 100.128242 
L 78.933229 127.338074 
L 79.368454 121.998347 
L 79.803679 124.366442 
L 80.238904 134.741025 
L 81.109354 121.242959 
L 81.544579 120.782986 
L 81.979804 121.669918 
L 82.415029 133.533234 
L 83.285479 122.162006 
L 83.720705 136.471566 
L 84.15593 124.176524 
L 84.591155 130.817874 
L 85.02638 130.526467 
L 85.461605 138.380609 
L 85.89683 127.204054 
L 86.332055 145.975456 
L 86.76728 117.505158 
L 87.202505 128.583308 
L 87.63773 119.472314 
L 88.072955 122.09121 
L 88.50818 132.269488 
L 88.943405 130.143559 
L 89.37863 121.54431 
L 89.813855 129.242687 
L 90.24908 122.762642 
L 90.684305 131.85853 
L 91.554755 121.433237 
L 91.98998 122.039608 
L 92.425205 116.031845 
L 92.860431 153.661628 
L 93.730881 118.158019 
L 94.166106 133.993984 
L 94.601331 123.675133 
L 95.036556 132.765541 
L 95.471781 118.731313 
L 95.907006 137.00489 
L 96.342231 124.381859 
L 96.777456 147.173871 
L 97.212681 118.915314 
L 97.647906 135.082792 
L 98.083131 122.163374 
L 98.518356 131.834824 
L 99.388806 121.882187 
L 99.824031 121.878946 
L 100.259256 143.896046 
L 100.694481 117.918093 
L 101.129706 123.256669 
L 101.564932 156.850269 
L 102.000157 122.858279 
L 102.435382 134.708342 
L 102.870607 121.445756 
L 103.305832 135.352197 
L 103.741057 124.582498 
L 104.176282 133.009949 
L 104.611507 128.863057 
L 105.046732 126.795348 
L 105.481957 109.70957 
L 105.917182 135.038882 
L 106.352407 121.456516 
L 106.787632 121.019719 
L 107.222857 119.773591 
L 107.658082 128.996971 
L 108.093307 131.568127 
L 108.528532 127.982476 
L 108.963757 135.464061 
L 109.398982 120.987607 
L 109.834207 126.266046 
L 110.269432 127.012623 
L 110.704658 125.726898 
L 111.139883 123.66733 
L 111.575108 135.007155 
L 112.010333 124.95075 
L 112.445558 122.70552 
L 112.880783 134.399275 
L 113.316008 119.763006 
L 113.751233 116.77847 
L 114.186458 121.502235 
L 114.621683 120.583738 
L 115.056908 142.176226 
L 115.492133 124.002761 
L 115.927358 132.143219 
L 116.362583 132.385734 
L 116.797808 126.589933 
L 117.233033 132.039747 
L 117.668258 124.8946 
L 118.103483 125.734443 
L 118.538708 135.054615 
L 118.973933 121.946808 
L 119.409159 127.991578 
L 119.844384 132.138236 
L 120.279609 120.626466 
L 120.714834 123.947739 
L 121.150059 141.357922 
L 121.585284 124.162522 
L 122.020509 137.466682 
L 122.455734 135.303348 
L 122.890959 132.323663 
L 123.326184 122.730354 
L 123.761409 123.223244 
L 124.196634 114.868308 
L 124.631859 120.166449 
L 125.067084 123.766042 
L 125.502309 118.243314 
L 126.372759 132.278026 
L 126.807984 121.073578 
L 127.243209 126.436193 
L 127.678434 125.640231 
L 128.113659 125.856599 
L 128.548885 117.568826 
L 128.98411 138.482144 
L 129.419335 128.075078 
L 129.85456 131.374965 
L 130.289785 154.679381 
L 130.72501 130.803026 
L 131.160235 124.427843 
L 131.59546 135.181518 
L 132.030685 153.354045 
L 132.46591 113.812725 
L 132.901135 118.322061 
L 133.33636 117.324648 
L 133.771585 115.634779 
L 134.20681 124.876792 
L 134.642035 123.43943 
L 135.07726 130.877356 
L 135.512485 120.358658 
L 135.94771 126.501747 
L 136.382935 126.300324 
L 136.81816 123.054249 
L 137.253386 118.201231 
L 137.688611 118.962757 
L 138.123836 135.58152 
L 138.559061 126.625573 
L 138.994286 133.398761 
L 139.429511 129.166686 
L 139.864736 126.038911 
L 140.299961 137.455034 
L 140.735186 121.172106 
L 141.170411 134.167049 
L 141.605636 133.881285 
L 142.040861 167.947688 
L 142.476086 121.562853 
L 142.911311 128.314186 
L 143.346536 127.554288 
L 143.781761 130.626746 
L 144.216986 137.173146 
L 144.652211 123.344418 
L 145.087436 120.33617 
L 145.522661 134.724918 
L 145.957886 136.60437 
L 146.393112 133.033244 
L 146.828337 116.211172 
L 147.263562 140.783505 
L 147.698787 133.65254 
L 148.134012 134.412424 
L 148.569237 135.534061 
L 149.439687 120.614708 
L 149.874912 123.914902 
L 150.310137 139.80913 
L 150.745362 135.278657 
L 151.180587 124.18362 
L 151.615812 122.631738 
L 152.051037 127.181603 
L 152.486262 125.361186 
L 152.921487 128.620719 
L 153.356712 143.32038 
L 153.791937 121.008686 
L 154.227162 123.729801 
L 154.662387 128.079128 
L 155.097613 126.294495 
L 155.532838 120.958213 
L 155.968063 123.98152 
L 156.403288 130.233953 
L 156.838513 128.295865 
L 157.273738 121.066926 
L 157.708963 131.820276 
L 158.144188 116.721668 
L 158.579413 138.906133 
L 159.449863 112.079894 
L 159.885088 129.421981 
L 160.320313 123.323609 
L 160.755538 130.80058 
L 161.190763 126.304667 
L 161.625988 126.702429 
L 162.061213 125.186871 
L 162.496438 127.574334 
L 162.931663 125.732716 
L 163.366888 129.124541 
L 163.802114 140.185708 
L 164.237339 119.984755 
L 164.672564 122.575795 
L 165.107789 151.456638 
L 165.543014 125.84994 
L 165.978239 126.786744 
L 166.848689 119.004158 
L 167.283914 145.903363 
L 167.719139 123.34866 
L 168.154364 128.429514 
L 168.589589 121.304147 
L 169.024814 121.654735 
L 169.460039 122.646036 
L 169.895264 118.613301 
L 170.330489 126.437543 
L 170.765714 128.076617 
L 171.200939 140.72862 
L 171.636164 133.431267 
L 172.071389 129.1785 
L 172.506614 123.804757 
L 172.94184 120.584915 
L 173.377065 126.174708 
L 173.81229 143.902622 
L 174.247515 127.021931 
L 174.68274 125.499531 
L 175.117965 125.671572 
L 175.55319 120.481118 
L 175.988415 122.894117 
L 176.42364 121.226213 
L 176.858865 130.200767 
L 177.29409 116.156145 
L 177.729315 121.800013 
L 178.16454 121.347215 
L 178.599765 125.625446 
L 179.03499 122.85154 
L 179.470215 126.584687 
L 179.90544 116.51094 
L 180.340665 119.892697 
L 180.77589 125.202486 
L 181.211115 122.053198 
L 181.646341 117.185845 
L 182.081566 116.843691 
L 182.516791 134.132049 
L 182.952016 124.578883 
L 183.387241 127.675706 
L 183.822466 129.051035 
L 184.257691 128.705215 
L 184.692916 113.129745 
L 185.128141 130.982286 
L 185.563366 132.003849 
L 185.998591 137.23927 
L 186.433816 161.619518 
L 186.869041 131.035404 
L 187.304266 116.661858 
L 187.739491 114.120719 
L 188.174716 151.950249 
L 188.609941 126.498357 
L 189.045166 119.520426 
L 189.480391 130.95023 
L 189.915616 124.247141 
L 190.350841 130.922035 
L 190.786067 119.780057 
L 191.221292 119.777671 
L 191.656517 133.234472 
L 192.091742 132.019241 
L 192.526967 118.569468 
L 192.962192 124.86811 
L 193.397417 134.959924 
L 193.832642 122.075862 
L 194.267867 124.596949 
L 194.703092 121.342481 
L 195.138317 128.559985 
L 195.573542 118.555365 
L 196.008767 140.052368 
L 196.443992 140.233885 
L 196.879217 123.086289 
L 197.314442 124.421902 
L 197.749667 119.357073 
L 198.184892 121.477163 
L 198.620117 125.990888 
L 199.055342 120.169369 
L 199.925793 127.999501 
L 200.361018 121.862983 
L 200.796243 125.249408 
L 201.231468 123.460907 
L 201.666693 117.293869 
L 202.101918 124.819736 
L 202.537143 136.075983 
L 202.972368 132.238384 
L 203.407593 117.68217 
L 203.842818 136.830738 
L 204.278043 124.79437 
L 204.713268 119.006295 
L 205.148493 120.167696 
L 205.583718 120.23779 
L 206.018943 122.751629 
L 206.454168 120.608297 
L 206.889393 125.233287 
L 207.324618 101.709497 
L 207.759843 126.252728 
L 208.195068 120.946164 
L 208.630294 122.340178 
L 209.500744 125.71269 
L 210.371194 117.356631 
L 210.806419 122.488408 
L 211.241644 116.809227 
L 211.676869 120.981716 
L 212.112094 128.203984 
L 212.547319 123.342407 
L 212.982544 124.459093 
L 213.417769 132.021275 
L 213.852994 123.968986 
L 214.288219 119.577279 
L 214.723444 130.231109 
L 215.158669 122.579113 
L 215.593894 130.491462 
L 216.029119 124.045115 
L 216.464344 121.541393 
L 216.899569 124.390235 
L 217.334795 141.277239 
L 217.77002 130.365353 
L 218.64047 127.184721 
L 219.075695 154.858744 
L 219.51092 121.247934 
L 219.946145 114.735737 
L 220.38137 137.027639 
L 221.25182 113.245868 
L 221.687045 127.497641 
L 222.12227 134.915972 
L 222.557495 129.487713 
L 222.99272 136.077336 
L 223.427945 133.39377 
L 223.86317 128.494036 
L 224.298395 120.934913 
L 224.73362 127.218819 
L 225.168845 122.097074 
L 225.60407 125.22359 
L 226.039295 123.884976 
L 226.474521 125.26252 
L 226.909746 120.353587 
L 227.344971 119.456129 
L 227.780196 123.712375 
L 228.215421 135.578806 
L 228.650646 125.206517 
L 229.085871 124.109977 
L 229.521096 123.512217 
L 229.956321 129.417296 
L 230.391546 128.262356 
L 231.697221 120.171849 
L 232.132446 121.258512 
L 232.567671 131.878216 
L 233.002896 133.414007 
L 233.438121 141.393954 
L 233.873346 134.675617 
L 234.308571 130.525094 
L 234.743796 117.548666 
L 235.179022 109.916886 
L 235.614247 130.147758 
L 236.049472 139.21742 
L 236.484697 123.056865 
L 236.919922 119.310116 
L 237.355147 138.050277 
L 237.790372 121.928528 
L 238.225597 127.723583 
L 238.660822 119.826983 
L 239.096047 153.556709 
L 239.531272 133.891685 
L 239.966497 132.17585 
L 240.401722 117.521078 
L 240.836947 126.879781 
L 241.272172 111.089103 
L 241.707397 132.560045 
L 242.142622 133.782825 
L 242.577847 127.021479 
L 243.013072 124.290851 
L 243.448297 124.838923 
L 243.883523 123.966543 
L 244.318748 121.570782 
L 244.753973 120.424493 
L 245.624423 128.064921 
L 246.059648 123.70507 
L 246.494873 129.969934 
L 246.930098 110.928033 
L 247.365323 112.22125 
L 247.800548 120.934145 
L 248.235773 124.91067 
L 248.670998 137.345484 
L 249.106223 121.675313 
L 249.541448 139.083099 
L 249.976673 108.650348 
L 250.411898 127.626804 
L 250.847123 118.871799 
L 251.282348 115.527273 
L 251.717573 125.361632 
L 252.152798 127.048155 
L 252.588023 116.122958 
L 253.023249 129.135943 
L 253.458474 121.169744 
L 253.893699 180.06 
L 254.328924 124.560854 
L 254.764149 123.539342 
L 255.199374 136.203319 
L 255.634599 123.842191 
L 256.069824 119.999092 
L 256.505049 122.276678 
L 256.940274 137.669383 
L 257.375499 121.377764 
L 257.810724 116.860982 
L 258.245949 132.278263 
L 258.681174 127.002529 
L 259.116399 127.430293 
L 259.551624 123.089092 
L 259.986849 126.193117 
L 260.422074 144.659571 
L 260.857299 130.161179 
L 261.292524 124.541666 
L 261.72775 123.087529 
L 262.162975 127.375165 
L 262.5982 114.735466 
L 263.033425 132.913617 
L 263.46865 121.92897 
L 263.903875 120.274963 
L 264.3391 140.337634 
L 264.774325 122.426683 
L 265.20955 125.196966 
L 265.644775 127.098523 
L 266.08 125.182993 
L 266.08 125.182993 
" style="fill:none;stroke:#4169e1;stroke-linecap:square;stroke-opacity:0.8;stroke-width:1.5;"/>
   </g>
   <g id="patch_3">
    <path d="M 32.56 188.12 
L 32.56 10.8 
" style="fill:none;stroke:#000000;stroke-linecap:square;stroke-linejoin:miter;stroke-width:1.5;"/>
   </g>
   <g id="patch_4">
    <path d="M 277.2 188.12 
L 277.2 10.8 
" style="fill:none;stroke:#000000;stroke-linecap:square;stroke-linejoin:miter;stroke-width:1.5;"/>
   </g>
   <g id="patch_5">
    <path d="M 32.56 188.12 
L 277.2 188.12 
" style="fill:none;stroke:#000000;stroke-linecap:square;stroke-linejoin:miter;stroke-width:1.5;"/>
   </g>
   <g id="patch_6">
    <path d="M 32.56 10.8 
L 277.2 10.8 
" style="fill:none;stroke:#000000;stroke-linecap:square;stroke-linejoin:miter;stroke-width:1.5;"/>
   </g>
   <g id="legend_1">
    <g id="patch_7">
     <path d="M 37.46 184.62 
L 74.3325 184.62 
Q 75.7325 184.62 75.7325 183.22 
L 75.7325 163.370625 
Q 75.7325 161.970625 74.3325 161.970625 
L 37.46 161.970625 
Q 36.06 161.970625 36.06 163.370625 
L 36.06 183.22 
Q 36.06 184.62 37.46 184.62 
z
" style="fill:#ffffff;opacity:0.8;stroke:#000000;stroke-linejoin:miter;stroke-width:1.5;"/>
    </g>
    <g id="line2d_16">
     <path d="M 38.86 167.639531 
L 52.86 167.639531 
" style="fill:none;stroke:#20b2aa;stroke-linecap:square;stroke-width:1.5;"/>
    </g>
    <g id="line2d_17"/>
    <g id="text_14">
     <!-- Max -->
     <g transform="translate(58.46 170.089531)scale(0.07 -0.07)">
      <defs>
       <path d="M 628 4666 
L 1569 4666 
L 2759 1491 
L 3956 4666 
L 4897 4666 
L 4897 0 
L 4281 0 
L 4281 4097 
L 3078 897 
L 2444 897 
L 1241 4097 
L 1241 0 
L 628 0 
L 628 4666 
z
" id="DejaVuSans-4d" transform="scale(0.015625)"/>
       <path d="M 2194 1759 
Q 1497 1759 1228 1600 
Q 959 1441 959 1056 
Q 959 750 1161 570 
Q 1363 391 1709 391 
Q 2188 391 2477 730 
Q 2766 1069 2766 1631 
L 2766 1759 
L 2194 1759 
z
M 3341 1997 
L 3341 0 
L 2766 0 
L 2766 531 
Q 2569 213 2275 61 
Q 1981 -91 1556 -91 
Q 1019 -91 701 211 
Q 384 513 384 1019 
Q 384 1609 779 1909 
Q 1175 2209 1959 2209 
L 2766 2209 
L 2766 2266 
Q 2766 2663 2505 2880 
Q 2244 3097 1772 3097 
Q 1472 3097 1187 3025 
Q 903 2953 641 2809 
L 641 3341 
Q 956 3463 1253 3523 
Q 1550 3584 1831 3584 
Q 2591 3584 2966 3190 
Q 3341 2797 3341 1997 
z
" id="DejaVuSans-61" transform="scale(0.015625)"/>
       <path d="M 3513 3500 
L 2247 1797 
L 3578 0 
L 2900 0 
L 1881 1375 
L 863 0 
L 184 0 
L 1544 1831 
L 300 3500 
L 978 3500 
L 1906 2253 
L 2834 3500 
L 3513 3500 
z
" id="DejaVuSans-78" transform="scale(0.015625)"/>
      </defs>
      <use xlink:href="#DejaVuSans-4d"/>
      <use x="86.279297" xlink:href="#DejaVuSans-61"/>
      <use x="147.558594" xlink:href="#DejaVuSans-78"/>
     </g>
    </g>
    <g id="line2d_18">
     <path d="M 38.86 177.914219 
L 52.86 177.914219 
" style="fill:none;stroke:#4169e1;stroke-linecap:square;stroke-opacity:0.8;stroke-width:1.5;"/>
    </g>
    <g id="line2d_19"/>
    <g id="text_15">
     <!-- Min -->
     <g transform="translate(58.46 180.364219)scale(0.07 -0.07)">
      <defs>
       <path d="M 603 3500 
L 1178 3500 
L 1178 0 
L 603 0 
L 603 3500 
z
M 603 4863 
L 1178 4863 
L 1178 4134 
L 603 4134 
L 603 4863 
z
" id="DejaVuSans-69" transform="scale(0.015625)"/>
       <path d="M 3513 2113 
L 3513 0 
L 2938 0 
L 2938 2094 
Q 2938 2591 2744 2837 
Q 2550 3084 2163 3084 
Q 1697 3084 1428 2787 
Q 1159 2491 1159 1978 
L 1159 0 
L 581 0 
L 581 3500 
L 1159 3500 
L 1159 2956 
Q 1366 3272 1645 3428 
Q 1925 3584 2291 3584 
Q 2894 3584 3203 3211 
Q 3513 2838 3513 2113 
z
" id="DejaVuSans-6e" transform="scale(0.015625)"/>
      </defs>
      <use xlink:href="#DejaVuSans-4d"/>
      <use x="86.279297" xlink:href="#DejaVuSans-69"/>
      <use x="114.0625" xlink:href="#DejaVuSans-6e"/>
     </g>
    </g>
   </g>
  </g>
 </g>
 <defs>
  <clipPath id="pbc5ff77f54">
   <rect height="177.32" width="244.64" x="32.56" y="10.8"/>
  </clipPath>
 </defs>
</svg>
