<?xml version="1.0" encoding="utf-8" standalone="no"?>
<!DOCTYPE svg PUBLIC "-//W3C//DTD SVG 1.1//EN"
  "http://www.w3.org/Graphics/SVG/1.1/DTD/svg11.dtd">
<svg height="216pt" version="1.1" viewBox="0 0 288 216" width="288pt" xmlns="http://www.w3.org/2000/svg" xmlns:xlink="http://www.w3.org/1999/xlink">
 <metadata>
  <rdf:RDF xmlns:cc="http://creativecommons.org/ns#" xmlns:dc="http://purl.org/dc/elements/1.1/" xmlns:rdf="http://www.w3.org/1999/02/22-rdf-syntax-ns#">
   <cc:Work>
    <dc:type rdf:resource="http://purl.org/dc/dcmitype/StillImage"/>
    <dc:date>2023-07-11T11:58:47.069875</dc:date>
    <dc:format>image/svg+xml</dc:format>
    <dc:creator>
     <cc:Agent>
      <dc:title>Matplotlib v3.4.1, https://matplotlib.org/</dc:title>
     </cc:Agent>
    </dc:creator>
   </cc:Work>
  </rdf:RDF>
 </metadata>
 <defs>
  <style type="text/css">*{stroke-linecap:butt;stroke-linejoin:round;}</style>
 </defs>
 <g id="figure_1">
  <g id="patch_1">
   <path d="M 0 216 
L 288 216 
L 288 0 
L 0 0 
z
" style="fill:#ffffff;"/>
  </g>
  <g id="axes_1">
   <g id="patch_2">
    <path d="M 42.01 188.12 
L 277.2 188.12 
L 277.2 10.8 
L 42.01 10.8 
z
" style="fill:#ffffff;"/>
   </g>
   <g id="matplotlib.axis_1">
    <g id="xtick_1">
     <g id="line2d_1">
      <defs>
       <path d="M 0 0 
L 0 3.5 
" id="m79d5690da6" style="stroke:#000000;stroke-width:0.8;"/>
      </defs>
      <g>
       <use style="stroke:#000000;stroke-width:0.8;" x="52.700455" xlink:href="#m79d5690da6" y="188.12"/>
      </g>
     </g>
     <g id="text_1">
      <!-- 0 -->
      <g transform="translate(49.519205 202.718437)scale(0.1 -0.1)">
       <defs>
        <path d="M 2034 4250 
Q 1547 4250 1301 3770 
Q 1056 3291 1056 2328 
Q 1056 1369 1301 889 
Q 1547 409 2034 409 
Q 2525 409 2770 889 
Q 3016 1369 3016 2328 
Q 3016 3291 2770 3770 
Q 2525 4250 2034 4250 
z
M 2034 4750 
Q 2819 4750 3233 4129 
Q 3647 3509 3647 2328 
Q 3647 1150 3233 529 
Q 2819 -91 2034 -91 
Q 1250 -91 836 529 
Q 422 1150 422 2328 
Q 422 3509 836 4129 
Q 1250 4750 2034 4750 
z
" id="DejaVuSans-30" transform="scale(0.015625)"/>
       </defs>
       <use xlink:href="#DejaVuSans-30"/>
      </g>
     </g>
    </g>
    <g id="xtick_2">
     <g id="line2d_2">
      <g>
       <use style="stroke:#000000;stroke-width:0.8;" x="94.541764" xlink:href="#m79d5690da6" y="188.12"/>
      </g>
     </g>
     <g id="text_2">
      <!-- 100 -->
      <g transform="translate(84.998014 202.718437)scale(0.1 -0.1)">
       <defs>
        <path d="M 794 531 
L 1825 531 
L 1825 4091 
L 703 3866 
L 703 4441 
L 1819 4666 
L 2450 4666 
L 2450 531 
L 3481 531 
L 3481 0 
L 794 0 
L 794 531 
z
" id="DejaVuSans-31" transform="scale(0.015625)"/>
       </defs>
       <use xlink:href="#DejaVuSans-31"/>
       <use x="63.623047" xlink:href="#DejaVuSans-30"/>
       <use x="127.246094" xlink:href="#DejaVuSans-30"/>
      </g>
     </g>
    </g>
    <g id="xtick_3">
     <g id="line2d_3">
      <g>
       <use style="stroke:#000000;stroke-width:0.8;" x="136.383073" xlink:href="#m79d5690da6" y="188.12"/>
      </g>
     </g>
     <g id="text_3">
      <!-- 200 -->
      <g transform="translate(126.839323 202.718437)scale(0.1 -0.1)">
       <defs>
        <path d="M 1228 531 
L 3431 531 
L 3431 0 
L 469 0 
L 469 531 
Q 828 903 1448 1529 
Q 2069 2156 2228 2338 
Q 2531 2678 2651 2914 
Q 2772 3150 2772 3378 
Q 2772 3750 2511 3984 
Q 2250 4219 1831 4219 
Q 1534 4219 1204 4116 
Q 875 4013 500 3803 
L 500 4441 
Q 881 4594 1212 4672 
Q 1544 4750 1819 4750 
Q 2544 4750 2975 4387 
Q 3406 4025 3406 3419 
Q 3406 3131 3298 2873 
Q 3191 2616 2906 2266 
Q 2828 2175 2409 1742 
Q 1991 1309 1228 531 
z
" id="DejaVuSans-32" transform="scale(0.015625)"/>
       </defs>
       <use xlink:href="#DejaVuSans-32"/>
       <use x="63.623047" xlink:href="#DejaVuSans-30"/>
       <use x="127.246094" xlink:href="#DejaVuSans-30"/>
      </g>
     </g>
    </g>
    <g id="xtick_4">
     <g id="line2d_4">
      <g>
       <use style="stroke:#000000;stroke-width:0.8;" x="178.224383" xlink:href="#m79d5690da6" y="188.12"/>
      </g>
     </g>
     <g id="text_4">
      <!-- 300 -->
      <g transform="translate(168.680633 202.718437)scale(0.1 -0.1)">
       <defs>
        <path d="M 2597 2516 
Q 3050 2419 3304 2112 
Q 3559 1806 3559 1356 
Q 3559 666 3084 287 
Q 2609 -91 1734 -91 
Q 1441 -91 1130 -33 
Q 819 25 488 141 
L 488 750 
Q 750 597 1062 519 
Q 1375 441 1716 441 
Q 2309 441 2620 675 
Q 2931 909 2931 1356 
Q 2931 1769 2642 2001 
Q 2353 2234 1838 2234 
L 1294 2234 
L 1294 2753 
L 1863 2753 
Q 2328 2753 2575 2939 
Q 2822 3125 2822 3475 
Q 2822 3834 2567 4026 
Q 2313 4219 1838 4219 
Q 1578 4219 1281 4162 
Q 984 4106 628 3988 
L 628 4550 
Q 988 4650 1302 4700 
Q 1616 4750 1894 4750 
Q 2613 4750 3031 4423 
Q 3450 4097 3450 3541 
Q 3450 3153 3228 2886 
Q 3006 2619 2597 2516 
z
" id="DejaVuSans-33" transform="scale(0.015625)"/>
       </defs>
       <use xlink:href="#DejaVuSans-33"/>
       <use x="63.623047" xlink:href="#DejaVuSans-30"/>
       <use x="127.246094" xlink:href="#DejaVuSans-30"/>
      </g>
     </g>
    </g>
    <g id="xtick_5">
     <g id="line2d_5">
      <g>
       <use style="stroke:#000000;stroke-width:0.8;" x="220.065692" xlink:href="#m79d5690da6" y="188.12"/>
      </g>
     </g>
     <g id="text_5">
      <!-- 400 -->
      <g transform="translate(210.521942 202.718437)scale(0.1 -0.1)">
       <defs>
        <path d="M 2419 4116 
L 825 1625 
L 2419 1625 
L 2419 4116 
z
M 2253 4666 
L 3047 4666 
L 3047 1625 
L 3713 1625 
L 3713 1100 
L 3047 1100 
L 3047 0 
L 2419 0 
L 2419 1100 
L 313 1100 
L 313 1709 
L 2253 4666 
z
" id="DejaVuSans-34" transform="scale(0.015625)"/>
       </defs>
       <use xlink:href="#DejaVuSans-34"/>
       <use x="63.623047" xlink:href="#DejaVuSans-30"/>
       <use x="127.246094" xlink:href="#DejaVuSans-30"/>
      </g>
     </g>
    </g>
    <g id="xtick_6">
     <g id="line2d_6">
      <g>
       <use style="stroke:#000000;stroke-width:0.8;" x="261.907001" xlink:href="#m79d5690da6" y="188.12"/>
      </g>
     </g>
     <g id="text_6">
      <!-- 500 -->
      <g transform="translate(252.363251 202.718437)scale(0.1 -0.1)">
       <defs>
        <path d="M 691 4666 
L 3169 4666 
L 3169 4134 
L 1269 4134 
L 1269 2991 
Q 1406 3038 1543 3061 
Q 1681 3084 1819 3084 
Q 2600 3084 3056 2656 
Q 3513 2228 3513 1497 
Q 3513 744 3044 326 
Q 2575 -91 1722 -91 
Q 1428 -91 1123 -41 
Q 819 9 494 109 
L 494 744 
Q 775 591 1075 516 
Q 1375 441 1709 441 
Q 2250 441 2565 725 
Q 2881 1009 2881 1497 
Q 2881 1984 2565 2268 
Q 2250 2553 1709 2553 
Q 1456 2553 1204 2497 
Q 953 2441 691 2322 
L 691 4666 
z
" id="DejaVuSans-35" transform="scale(0.015625)"/>
       </defs>
       <use xlink:href="#DejaVuSans-35"/>
       <use x="63.623047" xlink:href="#DejaVuSans-30"/>
       <use x="127.246094" xlink:href="#DejaVuSans-30"/>
      </g>
     </g>
    </g>
   </g>
   <g id="matplotlib.axis_2">
    <g id="ytick_1">
     <g id="line2d_7">
      <defs>
       <path d="M 0 0 
L -3.5 0 
" id="m6a2f2dd781" style="stroke:#000000;stroke-width:0.8;"/>
      </defs>
      <g>
       <use style="stroke:#000000;stroke-width:0.8;" x="42.01" xlink:href="#m6a2f2dd781" y="179.476924"/>
      </g>
     </g>
     <g id="text_7">
      <!-- −0.6 -->
      <g transform="translate(10.727187 183.276143)scale(0.1 -0.1)">
       <defs>
        <path d="M 678 2272 
L 4684 2272 
L 4684 1741 
L 678 1741 
L 678 2272 
z
" id="DejaVuSans-2212" transform="scale(0.015625)"/>
        <path d="M 684 794 
L 1344 794 
L 1344 0 
L 684 0 
L 684 794 
z
" id="DejaVuSans-2e" transform="scale(0.015625)"/>
        <path d="M 2113 2584 
Q 1688 2584 1439 2293 
Q 1191 2003 1191 1497 
Q 1191 994 1439 701 
Q 1688 409 2113 409 
Q 2538 409 2786 701 
Q 3034 994 3034 1497 
Q 3034 2003 2786 2293 
Q 2538 2584 2113 2584 
z
M 3366 4563 
L 3366 3988 
Q 3128 4100 2886 4159 
Q 2644 4219 2406 4219 
Q 1781 4219 1451 3797 
Q 1122 3375 1075 2522 
Q 1259 2794 1537 2939 
Q 1816 3084 2150 3084 
Q 2853 3084 3261 2657 
Q 3669 2231 3669 1497 
Q 3669 778 3244 343 
Q 2819 -91 2113 -91 
Q 1303 -91 875 529 
Q 447 1150 447 2328 
Q 447 3434 972 4092 
Q 1497 4750 2381 4750 
Q 2619 4750 2861 4703 
Q 3103 4656 3366 4563 
z
" id="DejaVuSans-36" transform="scale(0.015625)"/>
       </defs>
       <use xlink:href="#DejaVuSans-2212"/>
       <use x="83.789062" xlink:href="#DejaVuSans-30"/>
       <use x="147.412109" xlink:href="#DejaVuSans-2e"/>
       <use x="179.199219" xlink:href="#DejaVuSans-36"/>
      </g>
     </g>
    </g>
    <g id="ytick_2">
     <g id="line2d_8">
      <g>
       <use style="stroke:#000000;stroke-width:0.8;" x="42.01" xlink:href="#m6a2f2dd781" y="152.804613"/>
      </g>
     </g>
     <g id="text_8">
      <!-- −0.4 -->
      <g transform="translate(10.727187 156.603832)scale(0.1 -0.1)">
       <use xlink:href="#DejaVuSans-2212"/>
       <use x="83.789062" xlink:href="#DejaVuSans-30"/>
       <use x="147.412109" xlink:href="#DejaVuSans-2e"/>
       <use x="179.199219" xlink:href="#DejaVuSans-34"/>
      </g>
     </g>
    </g>
    <g id="ytick_3">
     <g id="line2d_9">
      <g>
       <use style="stroke:#000000;stroke-width:0.8;" x="42.01" xlink:href="#m6a2f2dd781" y="126.132303"/>
      </g>
     </g>
     <g id="text_9">
      <!-- −0.2 -->
      <g transform="translate(10.727187 129.931521)scale(0.1 -0.1)">
       <use xlink:href="#DejaVuSans-2212"/>
       <use x="83.789062" xlink:href="#DejaVuSans-30"/>
       <use x="147.412109" xlink:href="#DejaVuSans-2e"/>
       <use x="179.199219" xlink:href="#DejaVuSans-32"/>
      </g>
     </g>
    </g>
    <g id="ytick_4">
     <g id="line2d_10">
      <g>
       <use style="stroke:#000000;stroke-width:0.8;" x="42.01" xlink:href="#m6a2f2dd781" y="99.459992"/>
      </g>
     </g>
     <g id="text_10">
      <!-- 0.0 -->
      <g transform="translate(19.106875 103.259211)scale(0.1 -0.1)">
       <use xlink:href="#DejaVuSans-30"/>
       <use x="63.623047" xlink:href="#DejaVuSans-2e"/>
       <use x="95.410156" xlink:href="#DejaVuSans-30"/>
      </g>
     </g>
    </g>
    <g id="ytick_5">
     <g id="line2d_11">
      <g>
       <use style="stroke:#000000;stroke-width:0.8;" x="42.01" xlink:href="#m6a2f2dd781" y="72.787681"/>
      </g>
     </g>
     <g id="text_11">
      <!-- 0.2 -->
      <g transform="translate(19.106875 76.5869)scale(0.1 -0.1)">
       <use xlink:href="#DejaVuSans-30"/>
       <use x="63.623047" xlink:href="#DejaVuSans-2e"/>
       <use x="95.410156" xlink:href="#DejaVuSans-32"/>
      </g>
     </g>
    </g>
    <g id="ytick_6">
     <g id="line2d_12">
      <g>
       <use style="stroke:#000000;stroke-width:0.8;" x="42.01" xlink:href="#m6a2f2dd781" y="46.115371"/>
      </g>
     </g>
     <g id="text_12">
      <!-- 0.4 -->
      <g transform="translate(19.106875 49.914589)scale(0.1 -0.1)">
       <use xlink:href="#DejaVuSans-30"/>
       <use x="63.623047" xlink:href="#DejaVuSans-2e"/>
       <use x="95.410156" xlink:href="#DejaVuSans-34"/>
      </g>
     </g>
    </g>
    <g id="ytick_7">
     <g id="line2d_13">
      <g>
       <use style="stroke:#000000;stroke-width:0.8;" x="42.01" xlink:href="#m6a2f2dd781" y="19.44306"/>
      </g>
     </g>
     <g id="text_13">
      <!-- 0.6 -->
      <g transform="translate(19.106875 23.242279)scale(0.1 -0.1)">
       <use xlink:href="#DejaVuSans-30"/>
       <use x="63.623047" xlink:href="#DejaVuSans-2e"/>
       <use x="95.410156" xlink:href="#DejaVuSans-36"/>
      </g>
     </g>
    </g>
   </g>
   <g id="line2d_14">
    <path clip-path="url(#p8f9320b88b)" d="M 52.700455 69.676671 
L 53.118868 73.211911 
L 53.537281 69.238429 
L 53.955694 69.783227 
L 54.374107 61.765811 
L 54.79252 68.53024 
L 55.210933 70.415751 
L 55.629346 71.206864 
L 56.047759 64.987063 
L 56.466172 61.966697 
L 56.884585 72.810298 
L 57.302999 73.210918 
L 57.721412 69.833648 
L 58.139825 79.447503 
L 58.558238 81.176825 
L 58.976651 71.204825 
L 59.395064 67.153709 
L 59.813477 72.572814 
L 60.23189 62.848142 
L 60.650303 70.275006 
L 61.068716 18.86 
L 61.48713 53.067017 
L 61.905543 68.482196 
L 62.323956 78.761197 
L 62.742369 70.602454 
L 63.160782 70.411204 
L 63.579195 59.566411 
L 63.997608 63.150537 
L 64.416021 69.525975 
L 64.834434 73.528463 
L 65.67126 79.753562 
L 66.089674 60.288034 
L 66.508087 64.298018 
L 66.9265 70.967695 
L 67.344913 71.176292 
L 67.763326 58.594125 
L 68.181739 80.057881 
L 68.600152 67.435635 
L 69.018565 70.943244 
L 69.436978 61.278348 
L 69.855391 60.624419 
L 70.273804 74.331202 
L 70.692218 57.523129 
L 71.110631 72.111228 
L 71.529044 51.932158 
L 72.36587 69.724826 
L 73.202696 61.005981 
L 73.621109 55.096722 
L 74.039522 62.090407 
L 74.457935 72.127545 
L 74.876349 69.032932 
L 75.294762 68.339321 
L 75.713175 65.90894 
L 76.131588 71.869919 
L 76.550001 73.743681 
L 76.968414 67.929552 
L 77.386827 91.958316 
L 77.80524 73.067487 
L 78.223653 64.383263 
L 78.642066 61.006605 
L 79.060479 46.031576 
L 79.478893 69.207778 
L 79.897306 70.001808 
L 80.315719 63.176069 
L 80.734132 72.889072 
L 81.152545 61.176717 
L 81.570958 73.579853 
L 81.989371 65.363816 
L 82.407784 68.022547 
L 82.826197 66.998318 
L 83.24461 70.149571 
L 83.663023 54.563394 
L 84.081437 29.754061 
L 84.49985 65.001049 
L 84.918263 77.058874 
L 85.336676 68.455408 
L 85.755089 66.974213 
L 86.173502 78.889653 
L 86.591915 76.398482 
L 87.010328 65.904974 
L 87.428741 77.506012 
L 87.847154 47.29508 
L 88.265568 69.879148 
L 88.683981 62.02641 
L 89.102394 69.387552 
L 89.520807 68.8006 
L 89.93922 65.239717 
L 90.776046 75.475326 
L 91.194459 62.844784 
L 91.612872 73.988812 
L 92.031285 72.181548 
L 92.449698 57.748259 
L 92.868112 66.808294 
L 93.286525 71.303158 
L 93.704938 40.181962 
L 94.123351 73.800135 
L 94.541764 73.134703 
L 95.37859 78.240514 
L 95.797003 68.238449 
L 96.215416 65.198163 
L 96.633829 68.49462 
L 97.052242 53.009573 
L 97.470656 66.873865 
L 97.889069 61.057892 
L 98.307482 70.180525 
L 98.725895 64.95593 
L 99.144308 73.326202 
L 99.562721 73.406582 
L 99.981134 26.156835 
L 100.399547 78.341545 
L 100.81796 76.468381 
L 101.236373 31.890044 
L 101.654787 67.001748 
L 102.0732 66.050464 
L 102.491613 69.151642 
L 102.910026 66.103936 
L 103.328439 65.104274 
L 103.746852 78.849353 
L 104.165265 76.983808 
L 104.583678 68.99405 
L 105.002091 70.3937 
L 105.420504 65.141571 
L 105.838917 69.393176 
L 106.257331 71.644931 
L 107.094157 62.860384 
L 107.51257 65.315983 
L 107.930983 66.172937 
L 108.349396 74.454701 
L 108.767809 70.56419 
L 109.186222 58.703153 
L 109.604635 70.494589 
L 110.023048 39.185336 
L 110.859875 65.933868 
L 111.278288 68.56566 
L 111.696701 69.525434 
L 112.115114 76.803684 
L 112.533527 71.809825 
L 112.95194 76.578681 
L 113.370353 70.099843 
L 113.788766 72.579301 
L 114.207179 63.902708 
L 114.625592 68.765712 
L 115.044006 68.884612 
L 115.462419 57.174725 
L 115.880832 74.964389 
L 116.299245 69.331178 
L 116.717658 59.34438 
L 117.136071 60.798473 
L 117.554484 72.264108 
L 117.972897 49.163374 
L 118.39131 70.825639 
L 118.809723 62.316054 
L 119.228136 37.758449 
L 119.64655 66.750672 
L 120.064963 74.94485 
L 120.483376 66.307223 
L 120.901789 61.997364 
L 121.320202 53.692823 
L 121.738615 57.673062 
L 122.157028 57.89576 
L 122.575441 53.397694 
L 122.993854 42.756951 
L 123.412267 70.28063 
L 123.83068 66.880638 
L 124.249094 72.234538 
L 124.667507 52.125636 
L 125.08592 67.26187 
L 125.504333 73.250997 
L 125.922746 61.539909 
L 126.341159 73.841879 
L 126.759572 82.794233 
L 127.177985 67.851511 
L 127.596398 79.626307 
L 128.014811 51.566395 
L 128.433225 89.142903 
L 128.851638 61.117636 
L 129.270051 68.7407 
L 129.688464 67.716233 
L 130.106877 77.51247 
L 130.52529 78.998033 
L 130.943703 66.461123 
L 131.362116 71.89065 
L 131.780529 56.707596 
L 132.198942 63.799912 
L 132.617355 66.924596 
L 133.035769 63.648389 
L 133.454182 66.686528 
L 133.872595 52.4316 
L 134.291008 63.736789 
L 134.709421 63.343478 
L 135.127834 60.353613 
L 135.546247 74.158506 
L 135.96466 60.510108 
L 136.383073 68.371109 
L 136.801486 70.656978 
L 137.219899 49.754694 
L 137.638313 82.997572 
L 138.475139 72.188855 
L 138.893552 62.46656 
L 139.311965 62.999936 
L 139.730378 51.415921 
L 140.148791 63.977961 
L 140.567204 64.203712 
L 141.40403 73.699489 
L 142.240857 56.351117 
L 142.65927 74.65174 
L 143.077683 75.865158 
L 143.496096 55.072692 
L 143.914509 55.213969 
L 144.332922 56.79273 
L 144.751335 71.698396 
L 145.169748 58.298805 
L 145.588161 54.70146 
L 146.006574 67.643516 
L 146.424988 73.988259 
L 146.843401 61.373629 
L 147.261814 53.74473 
L 147.680227 69.104807 
L 148.09864 64.569559 
L 148.517053 55.936038 
L 148.935466 60.965437 
L 149.353879 58.821692 
L 149.772292 64.834931 
L 150.609118 84.254723 
L 151.027532 58.588004 
L 151.445945 65.444701 
L 151.864358 70.294974 
L 152.282771 61.345612 
L 152.701184 55.069282 
L 153.119597 67.35445 
L 153.53801 62.497529 
L 153.956423 60.654529 
L 154.793249 67.250472 
L 155.211663 39.334236 
L 155.630076 76.688305 
L 156.048489 66.429804 
L 156.466902 70.20932 
L 156.885315 76.029674 
L 157.303728 67.542874 
L 157.722141 64.613465 
L 158.140554 63.448703 
L 158.558967 68.4959 
L 158.97738 63.990051 
L 159.395793 69.576181 
L 159.814207 72.201139 
L 160.23262 67.607189 
L 160.651033 78.711914 
L 161.069446 52.018389 
L 161.487859 69.278555 
L 161.906272 64.461354 
L 162.324685 69.071469 
L 162.743098 70.002484 
L 163.161511 66.055841 
L 163.579924 71.230409 
L 163.998337 74.039129 
L 164.416751 68.111619 
L 165.253577 64.201677 
L 165.67199 68.179229 
L 166.090403 70.264102 
L 166.508816 70.590278 
L 166.927229 72.794018 
L 167.345642 71.222477 
L 167.764055 62.053707 
L 168.182468 55.865785 
L 168.600882 66.524937 
L 169.019295 65.626927 
L 169.437708 48.041504 
L 169.856121 64.598159 
L 170.274534 69.110943 
L 170.692947 64.120867 
L 171.11136 71.818314 
L 171.529773 59.217658 
L 171.948186 62.584105 
L 172.366599 70.717533 
L 172.785012 57.709405 
L 173.203426 72.574833 
L 173.621839 72.230587 
L 174.458665 61.259509 
L 174.877078 68.907271 
L 175.295491 82.34431 
L 175.713904 74.499662 
L 176.132317 60.260833 
L 176.55073 64.993831 
L 176.969143 73.968619 
L 177.387556 60.04001 
L 177.80597 51.908904 
L 178.224383 70.711675 
L 178.642796 65.708801 
L 179.061209 66.374877 
L 179.479622 67.261902 
L 179.898035 70.923038 
L 180.316448 61.78182 
L 180.734861 59.543486 
L 181.153274 72.342111 
L 181.571687 70.836982 
L 181.990101 74.784525 
L 182.408514 45.422971 
L 182.826927 59.15246 
L 183.24534 67.021351 
L 183.663753 70.371634 
L 184.082166 59.848933 
L 184.500579 61.266822 
L 184.918992 64.959547 
L 185.337405 74.903142 
L 185.755818 77.019801 
L 186.174231 59.686905 
L 186.592645 52.128975 
L 187.011058 70.757421 
L 187.847884 68.934627 
L 188.266297 84.710547 
L 189.103123 63.308753 
L 189.521536 75.129284 
L 189.939949 53.462947 
L 190.358362 71.824928 
L 190.776775 73.022885 
L 191.195189 77.69966 
L 191.613602 86.905442 
L 192.032015 62.203815 
L 192.450428 73.50534 
L 192.868841 72.145277 
L 193.287254 71.699561 
L 193.705667 61.321622 
L 194.12408 77.370341 
L 194.542493 74.507653 
L 194.960906 69.698905 
L 195.37932 59.233711 
L 195.797733 74.85137 
L 196.216146 69.374277 
L 196.634559 67.677856 
L 197.052972 61.930974 
L 197.471385 62.341316 
L 197.889798 62.436847 
L 198.308211 71.794229 
L 198.726624 60.171232 
L 199.145037 65.427046 
L 199.56345 59.083726 
L 199.981864 74.692117 
L 200.400277 58.772977 
L 200.81869 54.40858 
L 201.237103 67.277983 
L 201.655516 63.013425 
L 202.073929 69.156729 
L 202.492342 59.692672 
L 202.910755 38.136311 
L 203.329168 73.44761 
L 203.747581 75.023656 
L 204.165994 67.677538 
L 204.584408 62.736904 
L 205.002821 72.281668 
L 205.421234 65.102422 
L 205.839647 69.840468 
L 206.25806 76.953284 
L 206.676473 61.597014 
L 207.094886 65.239685 
L 207.513299 66.657876 
L 207.931712 74.806339 
L 208.350125 62.309202 
L 208.768539 65.65908 
L 209.186952 72.988975 
L 209.605365 63.363076 
L 210.023778 84.122236 
L 210.442191 66.398549 
L 210.860604 73.381304 
L 211.279017 66.554746 
L 211.69743 64.045567 
L 212.115843 65.887844 
L 212.534256 58.544937 
L 212.952669 72.039582 
L 213.371083 70.665269 
L 213.789496 66.649458 
L 214.207909 69.54925 
L 215.044735 59.795802 
L 215.463148 74.493516 
L 216.299974 65.255599 
L 216.718387 74.804781 
L 217.1368 35.437923 
L 217.555213 65.78376 
L 217.973627 74.080857 
L 218.39204 61.752727 
L 218.810453 60.966097 
L 219.228866 68.348939 
L 219.647279 85.371104 
L 220.065692 60.77837 
L 220.484105 52.710013 
L 220.902518 77.472644 
L 221.320931 48.04276 
L 221.739344 68.872045 
L 222.157758 79.213001 
L 222.576171 50.460542 
L 222.994584 69.701425 
L 223.412997 79.538352 
L 223.83141 69.054959 
L 224.249823 77.37945 
L 224.668236 71.208326 
L 225.505062 50.331491 
L 226.760302 72.093865 
L 227.178715 54.302636 
L 228.015541 74.717335 
L 229.27078 60.134078 
L 229.689193 74.412651 
L 230.107606 60.628699 
L 230.526019 72.596359 
L 230.944432 69.697084 
L 231.362846 65.582699 
L 231.781259 72.364736 
L 232.199672 52.016497 
L 232.618085 69.31078 
L 233.036498 62.063722 
L 233.454911 73.841231 
L 233.873324 72.575889 
L 234.291737 61.322401 
L 234.71015 63.508745 
L 235.546977 66.201911 
L 235.96539 60.799805 
L 236.383803 71.968423 
L 236.802216 67.898424 
L 237.220629 59.37153 
L 237.639042 23.946926 
L 238.057455 63.359817 
L 238.475868 75.483369 
L 239.312694 68.214459 
L 239.731107 68.26107 
L 240.149521 72.22434 
L 240.567934 85.325284 
L 241.40476 58.062021 
L 241.823173 76.388303 
L 242.241586 76.905066 
L 242.659999 76.256096 
L 243.078412 50.340775 
L 243.496825 45.931164 
L 243.915238 66.567027 
L 244.333651 77.341514 
L 244.752065 74.723106 
L 245.170478 66.994467 
L 245.588891 54.174292 
L 246.007304 61.875093 
L 246.425717 72.581574 
L 246.84413 61.009403 
L 247.262543 67.36942 
L 247.680956 80.599086 
L 248.099369 83.271537 
L 248.517782 80.969993 
L 248.936196 66.813262 
L 249.354609 61.64346 
L 249.773022 76.425401 
L 250.191435 71.227022 
L 250.609848 52.000826 
L 251.028261 77.717092 
L 251.446674 49.636981 
L 251.865087 71.379643 
L 252.2835 76.188228 
L 253.120326 63.02294 
L 253.53874 69.108559 
L 254.375566 66.73541 
L 254.793979 38.973496 
L 255.212392 66.375111 
L 255.630805 57.273189 
L 256.049218 76.763133 
L 256.886044 72.959341 
L 257.304457 68.893396 
L 257.72287 49.511781 
L 258.559697 74.107267 
L 258.97811 74.201234 
L 259.814936 52.023921 
L 260.233349 50.045709 
L 260.651762 76.644959 
L 261.070175 63.074839 
L 261.488588 63.043858 
L 261.907001 76.525725 
L 262.325415 67.60091 
L 262.743828 70.446553 
L 263.162241 76.982711 
L 263.580654 74.079875 
L 263.999067 76.382429 
L 264.41748 64.990453 
L 264.835893 82.8428 
L 265.254306 67.298579 
L 265.672719 64.074843 
L 266.091132 59.864457 
L 266.509545 70.930822 
L 266.509545 70.930822 
" style="fill:none;stroke:#20b2aa;stroke-linecap:square;stroke-width:1.5;"/>
   </g>
   <g id="line2d_15">
    <path clip-path="url(#p8f9320b88b)" d="M 52.700455 129.243313 
L 53.118868 125.708071 
L 53.537281 129.681587 
L 53.955694 129.136765 
L 54.374107 137.154189 
L 54.79252 130.389745 
L 55.210933 128.504233 
L 55.629346 127.713128 
L 56.047759 133.932922 
L 56.466172 136.953287 
L 56.884585 126.109686 
L 57.302999 125.709066 
L 57.721412 129.086336 
L 58.139825 119.472481 
L 58.558238 117.743159 
L 58.976651 127.715159 
L 59.395064 131.766271 
L 59.813477 126.34717 
L 60.23189 136.071842 
L 60.650303 128.644978 
L 61.068716 180.06 
L 61.48713 145.852967 
L 61.905543 130.437772 
L 62.323956 120.158755 
L 62.742369 128.31753 
L 63.160782 128.50878 
L 63.579195 139.353573 
L 63.997608 135.769451 
L 64.416021 129.394009 
L 64.834434 125.391521 
L 65.67126 119.166414 
L 66.089674 138.63195 
L 66.508087 134.621982 
L 66.9265 127.952289 
L 67.344913 127.743694 
L 67.763326 140.325859 
L 68.181739 118.862103 
L 68.600152 131.484333 
L 69.018565 127.976748 
L 69.436978 137.641636 
L 69.855391 138.295566 
L 70.273804 124.588782 
L 70.692218 141.396855 
L 71.110631 126.808756 
L 71.529044 146.98781 
L 72.36587 129.195142 
L 73.202696 137.914003 
L 73.621109 143.823254 
L 74.039522 136.829577 
L 74.457935 126.792447 
L 74.876349 129.887036 
L 75.294762 130.580663 
L 75.713175 133.01104 
L 76.131588 127.050065 
L 76.550001 125.176303 
L 76.968414 130.99044 
L 77.386827 106.961668 
L 77.80524 125.852499 
L 78.223653 134.536705 
L 78.642066 137.913379 
L 79.060479 152.888408 
L 79.478893 129.712175 
L 79.897306 128.918172 
L 80.315719 135.743931 
L 80.734132 126.030896 
L 81.152545 137.743263 
L 81.570958 125.340139 
L 81.989371 133.556168 
L 82.407784 130.897437 
L 82.826197 131.921664 
L 83.24461 128.770413 
L 83.663023 144.35659 
L 84.081437 169.165955 
L 84.49985 133.918931 
L 84.918263 121.861112 
L 85.336676 130.464576 
L 85.755089 131.945771 
L 86.173502 120.030331 
L 86.591915 122.521502 
L 87.010328 133.015003 
L 87.428741 121.413973 
L 87.847154 151.624872 
L 88.265568 129.040852 
L 88.683981 136.893558 
L 89.102394 129.532432 
L 89.520807 130.119384 
L 89.93922 133.680268 
L 90.776046 123.444656 
L 91.194459 136.0752 
L 91.612872 124.931172 
L 92.031285 126.738436 
L 92.449698 141.171725 
L 92.868112 132.111692 
L 93.286525 127.616827 
L 93.704938 158.738022 
L 94.123351 125.119849 
L 94.541764 125.785283 
L 95.37859 120.67947 
L 95.797003 130.681543 
L 96.215416 133.721821 
L 96.633829 130.425368 
L 97.052242 145.910407 
L 97.470656 132.046119 
L 97.889069 137.862061 
L 98.307482 128.739463 
L 98.725895 133.96405 
L 99.144308 125.593798 
L 99.562721 125.513418 
L 99.981134 172.763149 
L 100.399547 120.578441 
L 100.81796 122.451603 
L 101.236373 167.029924 
L 101.654787 131.918252 
L 102.0732 132.869521 
L 102.491613 129.768326 
L 102.910026 132.816048 
L 103.328439 133.81571 
L 103.746852 120.070629 
L 104.165265 121.936172 
L 104.583678 129.925934 
L 105.002091 128.526284 
L 105.420504 133.778413 
L 105.838917 129.526809 
L 106.257331 127.275053 
L 107.094157 136.0596 
L 107.51257 133.604001 
L 107.930983 132.747045 
L 108.349396 124.465283 
L 108.767809 128.355786 
L 109.186222 140.216863 
L 109.604635 128.425411 
L 110.023048 159.73464 
L 110.859875 132.986116 
L 111.278288 130.354316 
L 111.696701 129.394554 
L 112.115114 122.116316 
L 112.533527 127.110159 
L 112.95194 122.341303 
L 113.370353 128.820141 
L 113.788766 126.340683 
L 114.207179 135.01728 
L 114.625592 130.154272 
L 115.044006 130.035372 
L 115.462419 141.745259 
L 115.880832 123.955595 
L 116.299245 129.588807 
L 116.717658 139.575604 
L 117.136071 138.121511 
L 117.554484 126.655872 
L 117.972897 149.75661 
L 118.39131 128.094337 
L 118.809723 136.60393 
L 119.228136 161.161503 
L 119.64655 132.169312 
L 120.064963 123.975134 
L 120.483376 132.612761 
L 120.901789 136.92262 
L 121.320202 145.227157 
L 121.738615 141.246938 
L 122.157028 141.024256 
L 122.575441 145.52229 
L 122.993854 156.163065 
L 123.412267 128.639354 
L 123.83068 132.039314 
L 124.249094 126.685446 
L 124.667507 146.794348 
L 125.08592 131.658098 
L 125.504333 125.668986 
L 125.922746 137.380075 
L 126.341159 125.078101 
L 126.759572 116.125743 
L 127.177985 131.068473 
L 127.596398 119.293677 
L 128.014811 147.353597 
L 128.433225 109.777077 
L 128.851638 137.802348 
L 129.270051 130.179284 
L 129.688464 131.203767 
L 130.106877 121.40751 
L 130.52529 119.921951 
L 130.943703 132.458861 
L 131.362116 127.029338 
L 131.780529 142.212404 
L 132.198942 135.120072 
L 132.617355 131.995388 
L 133.035769 135.271599 
L 133.454182 132.23346 
L 133.872595 146.488388 
L 134.291008 135.183195 
L 134.709421 135.576506 
L 135.127834 138.566403 
L 135.546247 124.761486 
L 135.96466 138.409876 
L 136.383073 130.548875 
L 136.801486 128.263006 
L 137.219899 149.165287 
L 137.638313 115.922412 
L 138.475139 126.731129 
L 138.893552 136.453408 
L 139.311965 135.920048 
L 139.730378 147.504063 
L 140.148791 134.942023 
L 140.567204 134.716276 
L 141.40403 125.220495 
L 142.240857 142.568851 
L 142.65927 124.26826 
L 143.077683 123.054828 
L 143.496096 143.847292 
L 143.914509 143.706015 
L 144.332922 142.127286 
L 144.751335 127.221588 
L 145.169748 140.621195 
L 145.588161 144.218524 
L 146.006574 131.276468 
L 146.424988 124.931725 
L 146.843401 137.546359 
L 147.261814 145.175254 
L 147.680227 129.815177 
L 148.09864 134.350429 
L 148.517053 142.983946 
L 148.935466 137.954547 
L 149.353879 140.098292 
L 149.772292 134.085049 
L 150.609118 114.665261 
L 151.027532 140.33198 
L 151.445945 133.475284 
L 151.864358 128.625026 
L 152.282771 137.574372 
L 152.701184 143.850702 
L 153.119597 131.565534 
L 153.53801 136.422471 
L 153.956423 138.265423 
L 154.793249 131.669513 
L 155.211663 159.58574 
L 155.630076 122.231679 
L 156.048489 132.490184 
L 156.466902 128.710664 
L 156.885315 122.890311 
L 157.303728 131.377108 
L 157.722141 134.306519 
L 158.140554 135.471281 
L 158.558967 130.424084 
L 158.97738 134.929925 
L 159.395793 129.343803 
L 159.814207 126.718846 
L 160.23262 131.312795 
L 160.651033 120.208062 
L 161.069446 146.901595 
L 161.487859 129.641429 
L 161.906272 134.458631 
L 162.324685 129.848515 
L 162.743098 128.9175 
L 163.161511 132.864143 
L 163.579924 127.68956 
L 163.998337 124.880871 
L 164.416751 130.808365 
L 165.253577 134.718307 
L 165.67199 130.740755 
L 166.090403 128.655882 
L 166.508816 128.32971 
L 166.927229 126.125974 
L 167.345642 127.697507 
L 167.764055 136.866278 
L 168.182468 143.054199 
L 168.600882 132.395078 
L 169.019295 133.293057 
L 169.437708 150.878464 
L 169.856121 134.321825 
L 170.274534 129.809041 
L 170.692947 134.799117 
L 171.11136 127.10167 
L 171.529773 139.702326 
L 171.948186 136.335875 
L 172.366599 128.202451 
L 172.785012 141.210579 
L 173.203426 126.345167 
L 173.621839 126.689393 
L 174.458665 137.660459 
L 174.877078 130.012713 
L 175.295491 116.575672 
L 175.713904 124.420322 
L 176.132317 138.659151 
L 176.55073 133.926153 
L 176.969143 124.951367 
L 177.387556 138.879978 
L 177.80597 147.011076 
L 178.224383 128.208307 
L 178.642796 133.211183 
L 179.061209 132.545107 
L 179.479622 131.658098 
L 179.898035 127.996978 
L 180.316448 137.138196 
L 180.734861 139.376506 
L 181.153274 126.577873 
L 181.571687 128.083002 
L 181.990101 124.135457 
L 182.408514 153.496981 
L 182.826927 139.767524 
L 183.24534 131.898618 
L 183.663753 128.54835 
L 184.082166 139.071051 
L 184.500579 137.653194 
L 184.918992 133.960421 
L 185.337405 124.016842 
L 185.755818 121.900183 
L 186.174231 139.233079 
L 186.592645 146.791041 
L 187.011058 128.162567 
L 187.847884 129.985357 
L 188.266297 114.209445 
L 189.103123 135.611199 
L 189.521536 123.7907 
L 189.939949 145.457037 
L 190.358362 127.095064 
L 190.776775 125.897115 
L 191.195189 121.220324 
L 191.613602 112.01454 
L 192.032015 136.716169 
L 192.450428 125.414613 
L 192.868841 126.774707 
L 193.287254 127.220419 
L 193.705667 137.598362 
L 194.12408 121.549644 
L 194.542493 124.412333 
L 194.960906 129.221079 
L 195.37932 139.686273 
L 195.797733 124.068614 
L 196.216146 129.545707 
L 196.634559 131.242097 
L 197.052972 136.989014 
L 197.471385 136.578652 
L 197.889798 136.483145 
L 198.308211 127.125755 
L 198.726624 138.748768 
L 199.145037 133.492938 
L 199.56345 139.836258 
L 199.981864 124.227868 
L 200.400277 140.147007 
L 200.81869 144.511404 
L 201.237103 131.642005 
L 201.655516 135.906555 
L 202.073929 129.763255 
L 202.492342 139.227312 
L 202.910755 160.783705 
L 203.329168 125.472374 
L 203.747581 123.896344 
L 204.165994 131.242478 
L 204.584408 136.183111 
L 205.002821 126.638317 
L 205.421234 133.817594 
L 205.839647 129.079532 
L 206.25806 121.9667 
L 206.676473 137.322966 
L 207.094886 133.680268 
L 207.513299 132.262108 
L 207.931712 124.113649 
L 208.350125 136.610782 
L 208.768539 133.260904 
L 209.186952 125.931009 
L 209.605365 135.556908 
L 210.023778 114.797748 
L 210.442191 132.521435 
L 210.860604 125.53868 
L 211.279017 132.365238 
L 211.69743 134.874417 
L 212.115843 133.032156 
L 212.534256 140.375063 
L 212.952669 126.880434 
L 213.371083 128.254715 
L 213.789496 132.270522 
L 214.207909 129.370743 
L 215.044735 139.124182 
L 215.463148 124.426469 
L 216.299974 133.664386 
L 216.718387 124.115203 
L 217.1368 163.482077 
L 217.555213 133.136232 
L 217.973627 124.839127 
L 218.39204 137.167257 
L 218.810453 137.953919 
L 219.228866 130.571053 
L 219.647279 113.548882 
L 220.065692 138.141614 
L 220.484105 146.209972 
L 220.902518 121.447342 
L 221.320931 150.877224 
L 221.739344 130.047939 
L 222.157758 119.706987 
L 222.576171 148.459442 
L 222.994584 129.218575 
L 223.412997 119.381632 
L 223.83141 129.865027 
L 224.249823 121.540532 
L 224.668236 127.711658 
L 225.505062 148.588486 
L 226.760302 126.826119 
L 227.178715 144.617348 
L 228.015541 124.202653 
L 229.27078 138.78589 
L 229.689193 124.507333 
L 230.107606 138.291285 
L 230.526019 126.323625 
L 230.944432 129.2229 
L 231.362846 133.337293 
L 231.781259 126.555248 
L 232.199672 146.903487 
L 232.618085 129.609204 
L 233.036498 136.856262 
L 233.454911 125.078753 
L 233.873324 126.344093 
L 234.291737 137.597583 
L 234.71015 135.411239 
L 235.546977 132.718073 
L 235.96539 138.120195 
L 236.383803 126.951577 
L 236.802216 131.02156 
L 237.220629 139.548454 
L 237.639042 174.973066 
L 238.057455 135.560175 
L 238.475868 123.436607 
L 239.312694 130.705509 
L 239.731107 130.658913 
L 240.149521 126.695641 
L 240.567934 113.594704 
L 241.40476 140.857931 
L 241.823173 122.531665 
L 242.241586 122.014919 
L 242.659999 122.663888 
L 243.078412 148.579209 
L 243.496825 152.98882 
L 243.915238 132.352959 
L 244.333651 121.578473 
L 244.752065 124.196871 
L 245.170478 131.925549 
L 245.588891 144.745692 
L 246.007304 137.044891 
L 246.425717 126.33841 
L 246.84413 137.910613 
L 247.262543 131.550572 
L 247.680956 118.320898 
L 248.099369 115.648479 
L 248.517782 117.949991 
L 248.936196 132.106722 
L 249.354609 137.276524 
L 249.773022 122.494583 
L 250.191435 127.69297 
L 250.609848 146.919159 
L 251.028261 121.202892 
L 251.446674 149.283007 
L 251.865087 127.54035 
L 252.2835 122.731772 
L 253.120326 135.897044 
L 253.53874 129.811425 
L 254.375566 132.184574 
L 254.793979 159.946488 
L 255.212392 132.544871 
L 255.630805 141.646795 
L 256.049218 122.156851 
L 256.886044 125.960643 
L 257.304457 130.026588 
L 257.72287 149.408207 
L 258.559697 124.812709 
L 258.97811 124.71875 
L 259.814936 146.896047 
L 260.233349 148.874259 
L 260.651762 122.275017 
L 261.070175 135.845145 
L 261.488588 135.876126 
L 261.907001 122.394251 
L 262.325415 131.319074 
L 262.743828 128.473431 
L 263.162241 121.937273 
L 263.580654 124.840125 
L 263.999067 122.537555 
L 264.41748 133.929531 
L 264.835893 116.077186 
L 265.254306 131.621397 
L 265.672719 134.845141 
L 266.091132 139.055527 
L 266.509545 127.989162 
L 266.509545 127.989162 
" style="fill:none;stroke:#4169e1;stroke-linecap:square;stroke-opacity:0.8;stroke-width:1.5;"/>
   </g>
   <g id="patch_3">
    <path d="M 42.01 188.12 
L 42.01 10.8 
" style="fill:none;stroke:#000000;stroke-linecap:square;stroke-linejoin:miter;stroke-width:1.5;"/>
   </g>
   <g id="patch_4">
    <path d="M 277.2 188.12 
L 277.2 10.8 
" style="fill:none;stroke:#000000;stroke-linecap:square;stroke-linejoin:miter;stroke-width:1.5;"/>
   </g>
   <g id="patch_5">
    <path d="M 42.01 188.12 
L 277.2 188.12 
" style="fill:none;stroke:#000000;stroke-linecap:square;stroke-linejoin:miter;stroke-width:1.5;"/>
   </g>
   <g id="patch_6">
    <path d="M 42.01 10.8 
L 277.2 10.8 
" style="fill:none;stroke:#000000;stroke-linecap:square;stroke-linejoin:miter;stroke-width:1.5;"/>
   </g>
   <g id="legend_1">
    <g id="patch_7">
     <path d="M 46.91 184.62 
L 83.7825 184.62 
Q 85.1825 184.62 85.1825 183.22 
L 85.1825 163.370625 
Q 85.1825 161.970625 83.7825 161.970625 
L 46.91 161.970625 
Q 45.51 161.970625 45.51 163.370625 
L 45.51 183.22 
Q 45.51 184.62 46.91 184.62 
z
" style="fill:#ffffff;opacity:0.8;stroke:#000000;stroke-linejoin:miter;stroke-width:1.5;"/>
    </g>
    <g id="line2d_16">
     <path d="M 48.31 167.639531 
L 62.31 167.639531 
" style="fill:none;stroke:#20b2aa;stroke-linecap:square;stroke-width:1.5;"/>
    </g>
    <g id="line2d_17"/>
    <g id="text_14">
     <!-- Max -->
     <g transform="translate(67.91 170.089531)scale(0.07 -0.07)">
      <defs>
       <path d="M 628 4666 
L 1569 4666 
L 2759 1491 
L 3956 4666 
L 4897 4666 
L 4897 0 
L 4281 0 
L 4281 4097 
L 3078 897 
L 2444 897 
L 1241 4097 
L 1241 0 
L 628 0 
L 628 4666 
z
" id="DejaVuSans-4d" transform="scale(0.015625)"/>
       <path d="M 2194 1759 
Q 1497 1759 1228 1600 
Q 959 1441 959 1056 
Q 959 750 1161 570 
Q 1363 391 1709 391 
Q 2188 391 2477 730 
Q 2766 1069 2766 1631 
L 2766 1759 
L 2194 1759 
z
M 3341 1997 
L 3341 0 
L 2766 0 
L 2766 531 
Q 2569 213 2275 61 
Q 1981 -91 1556 -91 
Q 1019 -91 701 211 
Q 384 513 384 1019 
Q 384 1609 779 1909 
Q 1175 2209 1959 2209 
L 2766 2209 
L 2766 2266 
Q 2766 2663 2505 2880 
Q 2244 3097 1772 3097 
Q 1472 3097 1187 3025 
Q 903 2953 641 2809 
L 641 3341 
Q 956 3463 1253 3523 
Q 1550 3584 1831 3584 
Q 2591 3584 2966 3190 
Q 3341 2797 3341 1997 
z
" id="DejaVuSans-61" transform="scale(0.015625)"/>
       <path d="M 3513 3500 
L 2247 1797 
L 3578 0 
L 2900 0 
L 1881 1375 
L 863 0 
L 184 0 
L 1544 1831 
L 300 3500 
L 978 3500 
L 1906 2253 
L 2834 3500 
L 3513 3500 
z
" id="DejaVuSans-78" transform="scale(0.015625)"/>
      </defs>
      <use xlink:href="#DejaVuSans-4d"/>
      <use x="86.279297" xlink:href="#DejaVuSans-61"/>
      <use x="147.558594" xlink:href="#DejaVuSans-78"/>
     </g>
    </g>
    <g id="line2d_18">
     <path d="M 48.31 177.914219 
L 62.31 177.914219 
" style="fill:none;stroke:#4169e1;stroke-linecap:square;stroke-opacity:0.8;stroke-width:1.5;"/>
    </g>
    <g id="line2d_19"/>
    <g id="text_15">
     <!-- Min -->
     <g transform="translate(67.91 180.364219)scale(0.07 -0.07)">
      <defs>
       <path d="M 603 3500 
L 1178 3500 
L 1178 0 
L 603 0 
L 603 3500 
z
M 603 4863 
L 1178 4863 
L 1178 4134 
L 603 4134 
L 603 4863 
z
" id="DejaVuSans-69" transform="scale(0.015625)"/>
       <path d="M 3513 2113 
L 3513 0 
L 2938 0 
L 2938 2094 
Q 2938 2591 2744 2837 
Q 2550 3084 2163 3084 
Q 1697 3084 1428 2787 
Q 1159 2491 1159 1978 
L 1159 0 
L 581 0 
L 581 3500 
L 1159 3500 
L 1159 2956 
Q 1366 3272 1645 3428 
Q 1925 3584 2291 3584 
Q 2894 3584 3203 3211 
Q 3513 2838 3513 2113 
z
" id="DejaVuSans-6e" transform="scale(0.015625)"/>
      </defs>
      <use xlink:href="#DejaVuSans-4d"/>
      <use x="86.279297" xlink:href="#DejaVuSans-69"/>
      <use x="114.0625" xlink:href="#DejaVuSans-6e"/>
     </g>
    </g>
   </g>
  </g>
 </g>
 <defs>
  <clipPath id="p8f9320b88b">
   <rect height="177.32" width="235.19" x="42.01" y="10.8"/>
  </clipPath>
 </defs>
</svg>
